<svg id="Capa_1" enable-background="new 0 0 501 501" height="512" viewBox="0 0 501 501" width="512" xmlns="http://www.w3.org/2000/svg"><path d="m501 250.5c0 135.31-109.69 245-245 245-1.371 0-2.739-.011-4.105-.034-1.592-.026-105.469-25.771-106.682-26.387-79.641-40.446-134.213-123.14-134.213-218.579 0-135.31 109.69-245 245-245 51.128 0 98.598 15.661 137.875 42.448.544.371 71.827 75.791 72.174 76.367 22.188 36.857 34.951 80.03 34.951 126.185z" fill="#012d4e"/><path d="m323.912 290.323-116.773 194.177-17.139-10.307 114.076-189.693h-244.076v-20h219.186l-199.186-115 10-17.321 226.898 131 107.192-178.247 17.14 10.308-101.789 169.26zm154.308-19.199-61.513-22.368c-.988-.359-2.094-.114-2.837.629l-22.369 22.369c-1.056 1.056-1.056 2.769 0 3.825l22.369 22.368c.743.743 1.849.989 2.837.629l61.513-22.369c2.373-.863 2.373-4.22 0-5.083z" fill="#00429a"/><path d="m29.163 182.088-27.02-46.8c-2.857-4.948-2.857-11.044 0-15.992l27.02-46.8c2.857-4.948 8.136-7.996 13.85-7.996h54.04c5.713 0 10.993 3.048 13.85 7.996l27.02 46.8c2.857 4.948 2.857 11.044 0 15.992l-27.02 46.8c-2.857 4.948-8.136 7.996-13.85 7.996h-54.04c-5.714 0-10.994-3.048-13.85-7.996zm226.794 292.897-22.717-39.347c-2.402-4.16-6.84-6.723-11.644-6.723h-45.434c-4.804 0-9.242 2.563-11.644 6.723l-19.307 33.44c32.127 16.316 68.334 25.757 106.684 26.388l4.062-7.036c2.402-4.159 2.402-9.285 0-13.445zm-205.149-169.732h26.142c2.764 0 5.318-1.475 6.7-3.868l13.071-22.64c1.382-2.394 1.382-5.343 0-7.737l-13.071-22.64c-1.382-2.394-3.936-3.868-6.7-3.868h-26.142c-2.764 0-5.318 1.475-6.7 3.868l-13.071 22.64c-1.382 2.394-1.382 5.343 0 7.737l13.071 22.64c1.382 2.394 3.936 3.868 6.7 3.868zm415.241-180.936c-18.281-30.366-42.96-56.443-72.172-76.366l-9.835 17.035c-2.402 4.16-2.402 9.285 0 13.445l22.717 39.347c2.402 4.16 6.84 6.723 11.644 6.723h45.434c.749-.001 1.488-.063 2.212-.184z" fill="#01988c"/><path d="m298.477 166.285c-.743-.743-.988-1.849-.629-2.837l22.369-61.513c.863-2.374 4.22-2.374 5.083 0l22.369 61.513c.359.988.114 2.094-.629 2.837l-22.369 22.368c-1.056 1.056-2.769 1.056-3.825 0zm26.193 199.007c-1.056-1.056-2.769-1.056-3.825 0l-22.369 22.369c-.743.743-.988 1.849-.629 2.837l22.369 61.513c.863 2.374 4.22 2.374 5.083 0l22.369-61.513c.359-.988.114-2.094-.629-2.837zm-62.202-58.053-30.556-8.188c-1.015-.272-2.096.069-2.771.873l-42.088 50.128c-1.624 1.934.054 4.842 2.542 4.403l64.456-11.385c1.035-.183 1.87-.948 2.142-1.963l8.187-30.556c.387-1.443-.469-2.926-1.912-3.312zm159.275-1.773c-.676-.805-1.756-1.145-2.771-.873l-30.556 8.188c-1.443.386-2.299 1.87-1.912 3.312l8.187 30.556c.272 1.015 1.107 1.781 2.142 1.963l64.457 11.385c2.487.439 4.166-2.468 2.542-4.403zm47.609-116.463-64.456 11.385c-1.035.183-1.87.948-2.142 1.963l-8.187 30.556c-.387 1.443.47 2.926 1.912 3.312l30.556 8.188c1.015.272 2.096-.069 2.771-.873l42.088-50.128c1.624-1.934-.054-4.842-2.542-4.403z" fill="#037e73"/><path d="m243.332 376.458-50.687-87.792c-5.359-9.282-5.359-20.718 0-30l50.687-87.792c5.359-9.282 15.263-15 25.981-15h101.374c10.718 0 20.622 5.718 25.981 15l50.687 87.792c5.359 9.282 5.359 20.718 0 30l-50.687 87.792c-5.359 9.282-15.263 15-25.981 15h-101.374c-10.718 0-20.622-5.718-25.981-15z" fill="#0ab59e"/><path d="m447.354 258.666c5.359 9.282 5.359 20.718 0 30l-45.475 78.765c-2.607.156-5.234.235-7.88.235-71.797 0-130-58.203-130-130 0-30.994 10.847-59.454 28.95-81.792h77.736c10.718 0 20.622 5.718 25.981 15z" fill="#00f1a5"/><path d="m82.018 264.123c1.786 3.094 1.786 6.906 0 10l-3.104 5.377c-1.786 3.094-5.088 5-8.66 5h-6.208c-3.573 0-6.874-1.906-8.66-5l-3.104-5.377c-1.786-3.094-1.786-6.906 0-10l3.104-5.377c1.786-3.094 5.088-5 8.66-5h6.208c3.573 0 6.874 1.906 8.66 5zm173.939 210.862-22.717-39.347c-2.402-4.16-6.841-6.723-11.644-6.723h-3.192c-4.804 0-9.242 2.563-11.644 6.723-10.796 18.7-1.476 42.645 19.157 49.01 9.195 2.837 18.621 5.147 28.243 6.896l1.798-3.114c2.401-4.159 2.401-9.285-.001-13.445zm-145.055-402.489c-2.857-4.948-8.136-7.996-13.85-7.996h-41.439c-9.651 11.908-15.433 27.08-15.433 43.602 0 38.273 31.027 69.3 69.3 69.3 1.41 0 2.811-.042 4.201-.125l24.242-41.988c2.857-4.948 2.857-11.044 0-15.992z" fill="#04d481"/><path d="m419.801 277.72-28.293 48.844c-1.854 3.201-5.212 4.989-8.663 4.989-1.701 0-3.425-.434-5.003-1.348-4.779-2.769-6.409-8.887-3.641-13.666l25.331-43.73-25.242-41.867c-2.852-4.729-1.329-10.875 3.401-13.727 4.729-2.851 10.875-1.33 13.727 3.401l28.293 46.929c1.883 3.122 1.917 7.021.09 10.175zm-179.333-4.91 25.242-41.867c2.852-4.729 1.329-10.875-3.401-13.727-4.729-2.852-10.875-1.329-13.727 3.401l-28.293 46.929c-1.882 3.122-1.917 7.021-.089 10.175l28.293 48.844c1.854 3.201 5.211 4.99 8.663 4.989 1.701 0 3.425-.435 5.003-1.348 4.779-2.769 6.409-8.887 3.641-13.666zm104.281-61.367c-5.132-2.042-10.946.464-12.988 5.596l-42.105 105.863c-2.041 5.132.464 10.947 5.596 12.988 1.212.482 2.463.71 3.693.71 3.976 0 7.736-2.387 9.295-6.307l42.105-105.863c2.041-5.131-.465-10.946-5.596-12.987z" fill="#fff5f5"/></svg>