<svg xmlns="http://www.w3.org/2000/svg" width="25.033" height="24.017" viewBox="-0.017 -0.017 25.033 24.017"><path d="M24.716 11.031 14.541.79a2.927 2.927 0 0 0-3.986-.008L.287 11.028a.977.977 0 0 0 1.38 1.383l.774-.774v8.432a3.91 3.91 0 0 0 3.907 3.906h3.515c.54 0 .977-.437.977-.976v-7.96h3.418V23c0 .54.437.976.976.976h3.418a3.91 3.91 0 0 0 3.907-3.906.977.977 0 1 0-1.953 0 1.955 1.955 0 0 1-1.954 1.953h-2.441v-7.959a.977.977 0 0 0-.977-.976h-5.37a.977.977 0 0 0-.977.976v7.96h-2.54a1.955 1.955 0 0 1-1.952-1.954V9.688l7.516-7.502a.976.976 0 0 1 1.267.003l7.428 7.476v5.521a.977.977 0 1 0 1.953 0v-3.555l.772.777a.973.973 0 0 0 1.38.004.977.977 0 0 0 .005-1.38Z" fill="#fd5c37" fill-rule="evenodd" data-name="Path 436"/></svg>