<svg xmlns="http://www.w3.org/2000/svg" width="123" height="141.017" viewBox="84.817 966.3 123 141.017"><g data-name="comet"><path d="M182.62 993.184c-.399-2.497-.732-5.045-.855-7.61-3.8.167-7.571-.056-11.347-.766-1.855-.339-3.082-2.796-1.324-4.162 2.563-1.942 5.943-3.486 9.367-3.958-1.405-2.423-2.503-4.98-3.211-7.669-.423-1.62 1.495-3.231 3.028-2.564 3.655 1.62 6.844 3.701 9.52 6.664.264.29 1.595 1.869 2.21 3.26a.793.793 0 0 1 .178-.116c.708-2.28 4.787-3.767 6.649-4.435 2.639-.936 7.462-2.706 9.872-.52 2.836 2.555-.419 5.333-2.73 6.509a315.829 315.829 0 0 1-6.208 3.115c1.636 1.121 3.127 2.374 4.583 3.448 2.21 1.684 4.494 4.293 2.556 7.106-1.986 2.911-5.618 1.989-8.278.732-1.485-.684-2.923-1.466-4.344-2.28 1.17 5.056.167 12.003-4.94 11.452-3.82-.368-4.275-5.237-4.726-8.206Z" fill="#ff3c12" fill-rule="evenodd" data-name="Path 849"/><path d="M109.23 1039.915c-1.23-1.125-1.799-2.777-1.637-4.435.538-4.75 5.05-8.449 8.122-11.68 5.16-5.444 11.488-9.551 17.933-13.319 6.493-3.784 13.365-7.1 20.373-9.785 4.175-1.601 8.402-2.975 12.66-4.333 1.669-.52 3.353-1.073 5.091-1.073 1.738-.001 3.564.647 4.618 2.05.066.113.165.242.15.356.018.21-.176.359-.32.49-1.612 1.316-3.553 2.147-5.495 2.978-2.555 1.098-5.308 2.019-7.781 3.278-2.215 1.142-4.395 2.463-6.576 3.703-4.652 2.662-9.206 5.452-13.627 8.469a193.506 193.506 0 0 0-14.53 10.897c-4.753 3.946-8.752 8.664-13.49 12.577-.418.362-.885.74-1.42.924-1.149.45-2.517.025-3.548-.68-.163-.08-.327-.24-.524-.417Z" fill="#ff3c12" fill-rule="evenodd" data-name="Path 850"/><path d="M128.277 1081.981c2.503-6.539 6.935-11.732 11.268-17.136 4.59-5.682 8.869-11.638 12.854-17.737 3.057-4.692 5.672-9.64 8.63-14.38 2.415-3.875 4.178-7.986 6.364-12.053 3.446-6.32 5.652-13.328 9.393-19.424 1.263-2.092 4.075-.235 3.56 1.817-1.72 6.84-4.857 13.271-7.979 19.59a214.452 214.452 0 0 1-8.863 17.177c-1.213 2.237-2.442 4.426-3.687 6.648-3.96 6.96-8.166 13.759-12.551 20.43-4.162 6.296-8.247 13.76-14.572 18.192-2.08 1.532-5.51-.303-4.417-3.124Z" fill="#ff3c12" fill-rule="evenodd" data-name="Path 851"/><path d="M85.608 1085.943c1.734-3.72 3.988-7.35 6.262-10.767 8.612-12.935 20.222-23.398 31.506-33.938 7.099-6.601 14.211-13.478 21.719-19.839a196.892 196.892 0 0 1 10.235-8.224 161.81 161.81 0 0 1 5.146-3.592c1.646-1.137 3.05-2.19 5.076-2.617.486-.086.973-.172 1.478-.047.472.11.946.462 1.032.949.085.324-.01.682-.168 1.008-.303.62-.834 1.13-1.35 1.606-5.408 5.04-10.67 10.193-16.078 15.234-5.634 5.254-11.202 10.621-16.557 16.214-5.434 5.674-10.803 11.462-16.025 17.361-3.743 4.277-7.272 8.78-10.933 13.137a5911.608 5911.608 0 0 1-6.946 9.02c-2.294 2.963-4.505 6.087-6.962 8.97-1.622 1.918-4.305 3.276-6.676 1.675-2.127-1.522-1.73-4.077-.76-6.15Z" fill="#ff3c12" fill-rule="evenodd" data-name="Path 852"/><path d="M101.277 1090.11c5.25-7.947 11.985-15.21 18.054-22.515a1070.425 1070.425 0 0 1 18.869-22.199c3.197-3.654 6.393-7.308 9.623-10.946 3.117-3.491 6.194-7.81 10.116-10.383.597-.396 1.603-.471 2.097.174.51.693.167 2.061-.15 2.795-.27.718-.75 1.372-1.2 1.962a70.003 70.003 0 0 1-5.749 6.814c-1.897 1.985-3.498 4.356-5.215 6.55a379.287 379.287 0 0 0-10.804 14.695 498.551 498.551 0 0 0-4.452 6.477c-7.814 11.546-14.122 24.231-20.938 36.466-1.166 2.058-2.364 4.182-4.184 5.678-1.821 1.497-4.511 2.205-6.634 1.09-1.845-.941-2.84-3.043-3.04-5.12-.347-3.928 1.446-8.267 3.607-11.538Z" fill="#ff3c12" fill-rule="evenodd" data-name="Path 853"/></g></svg>