<svg xmlns="http://www.w3.org/2000/svg" width="129.75" height="217.133" viewBox="473.433 1968.8 129.75 217.133"><g data-name="fox"><g data-name="Group 48"><g data-name="Group 37"><g data-name="Group 28"><path d="M477.25 2146.217c2.175-2.224 4.844-4.078 7.81-5.462.124-.074.272-.124.396-.173 5.66-2.546 12.407-3.436 18.66-1.928 4.25 1.038 8.156 2.966 12.284 4.35 4.127 1.384 8.774 2.2 12.901.865 2.299 1.038 5.042 1.26 7.588.964-7.91 7.39-18.76 12.333-30.302 13.816-6.895.89-13.989.519-20.76-.989a54.328 54.328 0 0 1-6.031-1.68c-2.225-.742-5.635-1.211-6.253-3.584-.643-2.348 2.15-4.573 3.707-6.18Z" fill="#341c77" fill-rule="evenodd" data-name="Path 76"/><g data-name="Group 27"><path d="M502.04 2159.094c0-.865.173-1.78.222-2.645.074-.89.099-1.78.099-2.67.025-1.778-.05-3.533-.198-5.313a56.021 56.021 0 0 0-.766-5.363c-.346-1.755-.865-3.436-1.285-5.166-.124-.519.717-.89.914-.346 1.286 3.361 1.879 7.093 2.225 10.652.173 1.854.272 3.708.247 5.562 0 .89-.05 1.78-.099 2.669-.05.914-.05 1.903-.272 2.793-.148.643-1.087.445-1.087-.173Z" fill="#ede6dd" fill-rule="evenodd" data-name="Path 77"/><path d="M499.47 2159.44c.37-3.658.42-7.341.148-11.024-.124-1.829-.371-3.633-.643-5.437-.148-.89-.297-1.78-.47-2.67-.173-.914-.47-1.828-.494-2.767-.025-.445.667-.594.865-.198.396.815.569 1.705.742 2.595.197.914.395 1.829.543 2.768.322 1.83.544 3.658.692 5.512a66.015 66.015 0 0 1-.074 11.27c-.099.79-1.384.766-1.31-.05Z" fill="#ede6dd" fill-rule="evenodd" data-name="Path 78"/><path d="M497.121 2159.242a49.97 49.97 0 0 0 .52-11.196 57.749 57.749 0 0 0-.643-5.462c-.149-.915-.346-1.83-.544-2.769-.099-.42-.173-.84-.247-1.26-.074-.396-.173-.692.074-1.013a.274.274 0 0 1 .272-.1c.667.248.815 1.434.989 2.027.247.915.444 1.83.617 2.744.346 1.878.594 3.781.717 5.684.247 3.807.099 7.613-.494 11.37-.124.815-1.384.741-1.26-.025Z" fill="#ede6dd" fill-rule="evenodd" data-name="Path 79"/></g></g><g data-name="Group 32"><path d="M516.152 2168.263c1.36-7.044 2.422-14.112 2.447-21.379.025-7.662 0-15.348.865-22.96 1.112-9.986 2.57-18.636 3.683-28.646 12.58 2.546 26.223-.667 36.357-8.576-.272.222 3.608 9.762 3.93 10.75a273.278 273.278 0 0 1 3.435 11.395c1.952 7.02 4.325 14.236 5.314 21.428a154.073 154.073 0 0 1 1.433 24.098c-.074 3.188-.494 6.401-.47 9.565.025 3.04.42 6.055.1 9.12-.297 2.842-1.286 5.783-3.46 7.637-2.176 1.854-5.76 2.274-7.86.321-1.286-1.186-1.83-3.04-1.83-4.819.025-3.04.42-5.29-.049-8.33-.568-3.707-1.705-7.068-4.275-9.886a7.918 7.918 0 0 0-1.162-1.062c-3.51-2.793-8.997-3.312-13.05-1.656-9.318 3.781-9.64 16.732-14.26 24.443-1.237 2.077-2.72 4.128-4.845 5.29-2.917 1.581-7.884 1.31-8.997-2.299-1.21-3.98 1.928-10.43 2.694-14.434Z" fill="#341c77" fill-rule="evenodd" data-name="Path 80"/><g data-name="Group 31"><g data-name="Group 29"><path d="M573.22 2166.434c-2.05 1.013-4.374 1.458-6.648 1.607-1.112.074-2.249.074-3.361-.025-1.088-.099-2.274-.47-3.361-.346-.322.025-.445.519-.173.692.939.593 2.323.667 3.41.766 1.187.1 2.373.124 3.535.05 2.471-.149 4.794-.791 7.118-1.508.84-.247.272-1.606-.52-1.236Z" fill="#ede6dd" fill-rule="evenodd" data-name="Path 81"/><path d="M572.949 2164.63c-2.076.766-4.226 1.285-6.45 1.483-1.088.099-2.2.148-3.288.099-1.112-.05-2.225-.247-3.337-.247-.568 0-.865.815-.247 1.038 1.063.37 2.323.445 3.436.494 1.161.05 2.348 0 3.51-.099a26.461 26.461 0 0 0 6.87-1.606c.766-.322.272-1.459-.494-1.162Z" fill="#ede6dd" fill-rule="evenodd" data-name="Path 82"/><path d="M572.875 2162.38c-2.225.668-4.449 1.187-6.748 1.484a40.16 40.16 0 0 1-3.435.272c-1.137.05-2.323-.099-3.436.099-.444.074-.568.79-.098.939 1.137.346 2.397.296 3.559.272a41.848 41.848 0 0 0 3.51-.223c2.372-.272 4.77-.766 7.043-1.532.742-.247.37-1.532-.395-1.31Z" fill="#ede6dd" fill-rule="evenodd" data-name="Path 83"/></g><g data-name="Group 30"><path d="M530.71 2172.02a21.47 21.47 0 0 1-14.657-3.213c-.692-.445-1.433.618-.716 1.087 4.646 3.016 10.281 4.276 15.595 3.362.742-.124.52-1.335-.222-1.236Z" fill="#ede6dd" fill-rule="evenodd" data-name="Path 84"/><path d="M530.957 2170.067c-2.57.149-5.116-.123-7.637-.667a31.782 31.782 0 0 1-3.707-1.063 35.876 35.876 0 0 1-1.73-.617c-.594-.223-1.212-.57-1.83-.594-.222 0-.42.272-.222.495.42.47 1.013.716 1.557.964.593.271 1.186.543 1.804.766 1.26.445 2.57.815 3.88 1.112 2.62.593 5.34.865 8.009.89.815-.025.766-1.335-.124-1.286Z" fill="#ede6dd" fill-rule="evenodd" data-name="Path 85"/><path d="M531.624 2167.892c-2.644-.123-5.24-.271-7.86-.667a101.2 101.2 0 0 1-3.78-.692c-1.113-.222-2.2-.544-3.14-1.285-.247-.198-.617.099-.47.395.545 1.063 1.558 1.508 2.62 1.804 1.31.371 2.645.594 3.98.816 2.817.445 5.71.791 8.552.742.692 0 .79-1.088.098-1.113Z" fill="#ede6dd" fill-rule="evenodd" data-name="Path 86"/></g><path d="M546.429 2154.57c1.384-15.2.544-30.647-2.595-45.6-.42-2.05-.915-4.102-1.409-6.13-.519-2.075-1.137-4.127-1.532-6.227-.1-.544.692-.618.89-.173.74 1.78 1.21 3.657 1.705 5.536.494 1.878.939 3.757 1.36 5.635a160.34 160.34 0 0 1 2.05 11.344 148.014 148.014 0 0 1 1.582 22.887 151.437 151.437 0 0 1-.642 12.976c-.074.964-1.483.692-1.41-.247Z" fill="#ede6dd" fill-rule="evenodd" data-name="Path 87"/></g></g><g data-name="Group 34"><path d="M563.582 2102.915c10.158 1.952 21.552.099 31.29-5.091 2.62-1.384 5.215-3.114 6.772-5.537 1.557-2.422 1.78-5.709-.149-7.488-1.656-1.508-4.424-1.558-6.821-.816-2.397.741-4.572 2.15-6.797 3.361-8.873 4.795-19.253 6.525-28.571 4.77 1.112 3.88 2.224 7.34 4.276 10.801Z" fill="#341c77" fill-rule="evenodd" data-name="Path 88"/><g data-name="Group 33"><path d="M576.335 2091.892c.47 1.952.914 3.905 1.36 5.858.222.963.444 1.903.667 2.867.222.988.37 2.051.741 2.99.173.47.964.42.915-.148-.075-.964-.371-1.953-.594-2.892-.222-1.013-.444-2.002-.667-3.015l-1.335-6.006c-.123-.742-1.26-.396-1.087.346Z" fill="#ede6dd" fill-rule="evenodd" data-name="Path 89"/><path d="M578.831 2090.31c-.222-.123-.47.025-.544.247-.173.544.05.964.223 1.483.198.569.37 1.112.519 1.68.296 1.064.568 2.126.79 3.19.223 1.087.421 2.199.57 3.311.073.544.123 1.088.222 1.631.099.544.296 1.088.37 1.632.05.32.47.296.495-.025.05-.643.173-1.236.173-1.879 0-.543-.074-1.087-.124-1.63a40.738 40.738 0 0 0-.544-3.412 38.299 38.299 0 0 0-.865-3.41 37.85 37.85 0 0 0-.494-1.557c-.173-.52-.297-.964-.79-1.261Z" fill="#ede6dd" fill-rule="evenodd" data-name="Path 90"/><path d="M580.092 2090.088c1.013 1.903 1.581 4.201 1.977 6.302.198 1.063.321 2.126.395 3.213.074 1.112-.024 2.274.124 3.386.074.52.84.668.964.1.272-1.113.148-2.374.074-3.51a29.14 29.14 0 0 0-.42-3.288c-.198-1.112-.47-2.2-.791-3.287-.346-1.161-.84-2.249-1.26-3.386-.272-.84-1.484-.296-1.063.47Z" fill="#ede6dd" fill-rule="evenodd" data-name="Path 91"/></g></g><g data-name="Group 36"><path d="M522.603 2111.862c-6.13 4.128-13.025 7.316-20.291 9.392-2.324.667-4.696 1.211-7.118 1.186-5.265-.098-9.59-4.004-5.957-8.6 1.458-1.83 3.782-3.016 6.154-3.733 2.373-.716 4.87-1.038 7.316-1.581 9.021-2.003 16.807-7.044 22.763-13.372.717 1.83 1.038 3.88 1.458 5.784.618 2.719 2.052 6.228-.766 8.378a54.241 54.241 0 0 1-3.559 2.546Z" fill="#341c77" fill-rule="evenodd" data-name="Path 92"/><g data-name="Group 35"><path d="M509.627 2118.857a101.034 101.034 0 0 1-2.718-5.735c-.42-.939-.816-1.853-1.187-2.792-.395-.94-.692-2.027-1.31-2.867-.247-.346-.741-.05-.716.321.099.989.593 1.977.964 2.892.395.988.79 1.952 1.21 2.94a152.24 152.24 0 0 0 2.645 5.76c.346.692 1.458.173 1.112-.52Z" fill="#ede6dd" fill-rule="evenodd" data-name="Path 93"/><path d="m511.407 2116.805-.742-1.334a165.757 165.757 0 0 1-1.532-2.917c-.494-.989-.988-1.952-1.458-2.966-.445-.939-.84-1.952-1.409-2.817-.222-.346-.865-.074-.741.321.272 1.013.766 1.977 1.21 2.916.47 1.039.965 2.076 1.459 3.09.47.988.964 1.977 1.458 2.941.247.494.494.989.742 1.458.247.47.346.766.89.84a.432.432 0 0 0 .444-.271c.223-.495-.05-.791-.321-1.26Z" fill="#ede6dd" fill-rule="evenodd" data-name="Path 94"/><path d="M514.051 2116.706c-.988-1.903-1.977-3.83-2.99-5.734-.47-.914-.964-1.829-1.458-2.743-.396-.741-.766-1.928-1.582-2.299-.148-.074-.272.05-.321.198-.173.84.543 1.829.89 2.546l1.408 2.892c.94 1.878 1.879 3.781 2.818 5.66.42.766 1.631.222 1.235-.52Z" fill="#ede6dd" fill-rule="evenodd" data-name="Path 95"/></g></g><path d="M582.316 2055.708c-.914-5.091-2.298-10.183-4.548-14.854-2.125-4.374-5.042-8.304-8.774-11.443-3.485-2.941-7.563-5.19-11.863-6.723-9.862-3.534-20.687-3.139-30.746-.667-9.911 2.447-19.748 6.698-27.064 13.989-6.377 6.352-10.554 14.755-12.012 23.628-1.433 8.824-.074 17.944 4.054 25.877 4.053 7.786 10.454 14.335 18.19 18.488 2.373 1.26 4.795 2.446 7.464 2.891 2.991.52 6.13.668 9.145.742 6.402.148 12.828-.495 19.056-1.977 8.848-2.126 17.45-5.833 24.518-11.642 3.336-2.743 6.401-6.005 8.626-9.737 2.422-4.054 3.954-8.626 4.547-13.322.643-5.042.297-10.208-.593-15.25Zm-.198 8.552c.198 5.042-.32 10.183-2.076 14.928-1.483 3.98-3.781 7.711-6.599 10.85-5.808 6.5-13.593 10.85-21.774 13.57-4.87 1.63-9.96 2.644-15.052 3.237-5.29.593-10.702.692-15.991.148-10.307-1.087-19.204-7.884-25.16-16.213-5.067-7.118-7.91-15.72-7.761-24.469.148-8.848 3.09-17.622 8.28-24.74 5.808-7.958 14.384-13.173 23.529-16.362 9.837-3.435 20.687-5.067 30.993-3.065 8.725 1.681 17.153 6.204 22.59 13.396 3.114 4.103 5.166 8.947 6.575 13.89 1.359 4.82 2.249 9.813 2.446 14.83Z" fill="#383451" fill-rule="evenodd" data-name="Path 96"/></g><g data-name="Group 47"><path d="M499.667 2049.579c-.074-1.063-.124-2.2.37-3.164.841-1.705 2.596-1.582 3.93-.618a67.192 67.192 0 0 1 10.233 9.046c10.282-8.23 24.592-11.468 37.296-7.983a60.754 60.754 0 0 1 5.165-12.284c.766-1.384 2.027-2.94 3.584-2.595.989.223 1.631 1.187 2.126 2.076 6.228 11.567 8.082 25.31 5.56 38.112-.123.618-.247 1.26-.395 1.878-.074.297-.148.569-.222.865-2.645 10.257-10.109 19.847-20.045 23.777-.123.05-.272.099-.395.148-.025.124-.025.148-.05.297-.173.865-.395 1.754-.766 2.545-.519 1.112-1.409 2.126-2.57 2.497-1.755.568-3.658-.445-4.844-1.854a11.064 11.064 0 0 1-.791-1.088c-.025-.049-.025-.049-.05-.074a31.716 31.716 0 0 1-6.846.1c-5.29-.52-10.331-3.387-14.384-6.773a36.866 36.866 0 0 1-3.189-3.04 41.918 41.918 0 0 1-3.287-3.93 40.945 40.945 0 0 1-1.483-2.125 48.153 48.153 0 0 1-1.483-2.398c-1.804-3.163-2.793-6.277-3.682-9.762a129.6 129.6 0 0 1-3.782-23.653Z" fill="#fdc153" fill-rule="evenodd" data-name="Path 97"/><g data-name="Group 38"><path d="M546.874 2098.837c.123-.05.272-.099.395-.148 9.911-3.93 17.4-13.52 20.045-23.777-5.116.1-10.06 2.966-13.371 6.945-3.584 4.3-5.512 9.738-6.698 15.225-.075.346-.149.717-.223 1.063-.05.222-.099.47-.148.692Z" fill="#fff6e9" fill-rule="evenodd" data-name="Path 98"/><path d="M510.097 2087.517a41.93 41.93 0 0 0 3.287 3.93 41.313 41.313 0 0 0 3.189 3.04c4.028 3.386 9.095 6.253 14.384 6.772 2.274.223 4.572.173 6.846-.099a14.46 14.46 0 0 1-.741-1.36c-.37-.74-.717-1.507-1.088-2.248-2.694-5.166-7.612-9.12-13.223-10.603-4.176-1.112-8.625-.89-12.654.568Z" fill="#fff6e9" fill-rule="evenodd" data-name="Path 99"/></g><path d="M538.792 2100.345a5.482 5.482 0 0 0-.94.914c.223.37.495.742.792 1.088 1.186 1.408 3.09 2.397 4.844 1.853 1.162-.37 2.051-1.384 2.57-2.496.371-.816.593-1.68.766-2.546-2.669-.988-5.808-.568-8.032 1.187Z" fill="#6f373b" fill-rule="evenodd" data-name="Path 100"/><g data-name="Group 39"><path d="M504.98 2051.877c-.271-.173-.543-.37-.864-.42-.321-.05-.692.074-.816.37-.074.174-.05.372-.024.545.271 2.545.543 5.091.815 7.661.074.643.247 1.434.865 1.632.593.173 1.137-.297 1.582-.717 1.236-1.236 3.781-2.818 2.99-4.82-.691-1.78-3.138-3.163-4.547-4.25Z" fill="#f99787" fill-rule="evenodd" data-name="Path 101"/><path d="M562.618 2047.478c.074.519.123 1.112-.198 1.532-.47.618-1.433.47-2.2.248a43.126 43.126 0 0 1-2.52-.84c-.47-.174-.94-.372-1.236-.767-.42-.568-.272-1.384-.1-2.076a19.538 19.538 0 0 1 1.978-4.696c.37-.643.89-1.31 1.606-1.36 2.052-.123 2.472 6.525 2.67 7.959Z" fill="#f99787" fill-rule="evenodd" data-name="Path 102"/></g><g data-name="Group 42"><g data-name="Group 40"><path d="M511.16 2082.475c6.673-1.631 9.219 8.75 2.52 10.38-6.672 1.607-9.193-8.773-2.52-10.38Z" fill="#f99787" fill-rule="evenodd" data-name="Path 103"/><path d="M511.926 2083.068c1.878-.32 3.707.767 4.424 2.497.05.148-.148.247-.198.123-.716-1.582-2.397-2.446-4.127-2.249-.247.025-.346-.346-.099-.37Z" fill="#fff" fill-rule="evenodd" data-name="Path 104"/></g><g data-name="Group 41"><path d="M562.47 2070.043c6.673-1.63 9.218 8.75 2.52 10.38-6.697 1.632-9.219-8.748-2.52-10.38Z" fill="#f99787" fill-rule="evenodd" data-name="Path 105"/><path d="M563.21 2070.636c1.88-.32 3.708.767 4.425 2.497.05.148-.148.247-.198.123-.717-1.581-2.397-2.447-4.127-2.249-.247.025-.346-.321-.1-.37Z" fill="#fff" fill-rule="evenodd" data-name="Path 106"/></g></g><g data-name="Group 45"><g data-name="Group 43"><path d="M511.481 2078.249c.074-.396.297-.742.643-.94.37-.222.939-.246 1.31.025l.05.05c.42.296.666.741.568 1.285-.075.494-.445.89-.94 1.038-.024 0-.049 0-.074.025-.865.222-1.705-.618-1.557-1.483Z" fill="#120d07" fill-rule="evenodd" data-name="Path 107"/><path d="M512.593 2077.483c.272-.371.989.074 1.088.42.099.42-.84.05-.964-.025-.148-.099-.223-.272-.124-.395Z" fill="#fff" fill-rule="evenodd" data-name="Path 108"/></g><g data-name="Group 44"><path d="M560.492 2066.36c.074-.395.297-.74.643-.939.37-.222.939-.247 1.31.025l.05.05c.42.296.666.741.568 1.285-.075.494-.445.89-.94 1.038-.024 0-.049 0-.074.025-.89.247-1.705-.594-1.557-1.483Z" fill="#120d07" fill-rule="evenodd" data-name="Path 109"/><path d="M561.58 2065.594c.272-.37.988.075 1.087.42.099.42-.84.05-.964-.024-.123-.074-.222-.247-.123-.396Z" fill="#fff" fill-rule="evenodd" data-name="Path 110"/></g></g><g data-name="Group 46"><path d="M556.983 2055.412c.074-.247.494-.124.395.123-.198.52-.321 1.162-.643 1.631-.074.1-.247.075-.247-.074.025-.568.322-1.137.495-1.68Z" fill="#fff" fill-rule="evenodd" data-name="Path 111"/><path d="M549.543 2052.372c.025-.149.247-.124.297 0 .123.445.321 1.038.05 1.458-.075.123-.248.099-.322 0-.272-.37-.099-1.013-.025-1.458Z" fill="#fff" fill-rule="evenodd" data-name="Path 112"/><path d="M551.768 2059.416c.024-.173.296-.1.272.074-.1.519-.198 1.038-.371 1.532-.025.074-.149.05-.149-.025.05-.519.173-1.062.248-1.581Z" fill="#fff" fill-rule="evenodd" data-name="Path 113"/><path d="M545.836 2059.119c.025-.272.445-.247.42.025-.074.815-.123 1.606-.346 2.372-.025.124-.198.075-.198-.024-.074-.816.025-1.582.124-2.373Z" fill="#fff" fill-rule="evenodd" data-name="Path 114"/><path d="M555.005 2064.31c.074-.149.272-.1.247.073-.049.346-.049.816-.32 1.088-.075.074-.223.025-.248-.074-.074-.371.173-.766.321-1.088Z" fill="#fff" fill-rule="evenodd" data-name="Path 115"/><path d="M553.547 2069.944c.05-.173.297-.098.247.075-.099.543-.123 1.235-.42 1.73-.074.123-.222.05-.222-.074-.025-.544.247-1.187.395-1.73Z" fill="#fff" fill-rule="evenodd" data-name="Path 116"/><path d="M548.876 2067.572c0-.248.173-.47.272-.692a1.61 1.61 0 0 0 .074-.84c-.05-.297.42-.42.47-.124.049.346.049.716-.075 1.062-.099.272-.272.668-.593.717-.074.025-.148-.024-.148-.123Z" fill="#fff" fill-rule="evenodd" data-name="Path 117"/><path d="M545.292 2049.06c.074-.198.395-.173.395.074-.024.346-.074.642-.296.914-.074.074-.223.074-.247-.049-.05-.321.024-.618.148-.94Z" fill="#fff" fill-rule="evenodd" data-name="Path 118"/><path d="M541.14 2055.337c.074-.395.148-.766.222-1.161.074-.321.569-.173.495.148-.075.37-.149.717-.223 1.088-.074.32-.123.667-.321.939-.074.099-.223.074-.247-.05-.074-.321 0-.642.074-.964Z" fill="#fff" fill-rule="evenodd" data-name="Path 119"/><path d="M554.906 2051.21c.025-.173.322-.124.322.05-.025.37 0 .815-.198 1.161-.05.099-.173.05-.198-.025-.123-.37 0-.815.074-1.186Z" fill="#fff" fill-rule="evenodd" data-name="Path 120"/><path d="M535.43 2050.024c0-.173.272-.173.272 0 .025.519.1 1.137-.05 1.656-.024.098-.197.098-.221 0-.1-.52-.025-1.137 0-1.656Z" fill="#fff" fill-rule="evenodd" data-name="Path 121"/><path d="M536.073 2057.216c-.05-.445.569-.52.618-.074.025.346.074.692-.074 1.013-.05.099-.223.124-.272.025-.222-.272-.222-.643-.272-.964Z" fill="#fff" fill-rule="evenodd" data-name="Path 122"/><path d="M530.413 2053.805c.248.494.52.964.692 1.483.025.074-.074.099-.099.05-.32-.445-.543-.94-.79-1.41-.075-.148.148-.246.197-.123Z" fill="#fff" fill-rule="evenodd" data-name="Path 123"/><path d="M540.744 2049.208a5.21 5.21 0 0 1-.049-.618c-.025-.272.395-.247.42.025.025.198.025.395.05.568.024.173.049.322-.075.445a.152.152 0 0 1-.173.025c-.148-.099-.148-.272-.173-.445Z" fill="#fff" fill-rule="evenodd" data-name="Path 124"/><path d="M524.333 2052.298c.198.47.47.939.495 1.458 0 .099-.149.148-.223.074-.346-.346-.519-.865-.741-1.31-.1-.272.321-.519.47-.222Z" fill="#fff" fill-rule="evenodd" data-name="Path 125"/><path d="M529.87 2049.925c.074.173.148.346.197.544.05.148.149.32.149.494 0 .074-.1.123-.173.074-.124-.124-.173-.297-.223-.445l-.222-.568c-.025-.198.222-.248.272-.1Z" fill="#fff" fill-rule="evenodd" data-name="Path 126"/><path d="M527.003 2058.056c.074.247.173.47.247.717.074.222.148.42.099.643-.025.098-.173.173-.272.098-.198-.148-.272-.346-.346-.568-.1-.247-.173-.519-.272-.766-.099-.321.42-.445.544-.124Z" fill="#fff" fill-rule="evenodd" data-name="Path 127"/><path d="M518.377 2055.733c.247.544.667 1.137.692 1.73 0 .198-.223.222-.346.124-.445-.371-.668-1.038-.94-1.533-.197-.395.396-.717.594-.321Z" fill="#fff" fill-rule="evenodd" data-name="Path 128"/><path d="M514.422 2059.292c.346.593.915 1.285 1.063 1.977.025.173-.148.247-.272.149-.544-.445-.89-1.26-1.26-1.879-.173-.296.296-.544.47-.247Z" fill="#fff" fill-rule="evenodd" data-name="Path 129"/><path d="M521.021 2062.53c.272.42.668.865.767 1.36.024.123-.124.246-.223.172-.445-.297-.692-.84-.989-1.285-.173-.272.272-.494.445-.247Z" fill="#fff" fill-rule="evenodd" data-name="Path 130"/><path d="M526.805 2063.815c.173.222.346.42.544.643.148.197.296.346.395.593.05.123-.099.197-.198.148-.222-.124-.346-.321-.519-.494l-.519-.593c-.173-.223.124-.52.297-.297Z" fill="#fff" fill-rule="evenodd" data-name="Path 131"/><path d="M532.662 2060.305c.297.643.717 1.31.865 2.002.025.1-.123.223-.197.124-.42-.569-.668-1.31-.94-1.953-.123-.222.174-.37.272-.173Z" fill="#fff" fill-rule="evenodd" data-name="Path 132"/><path d="M541.93 2061.393c.322.568.545 1.285.372 1.928-.05.123-.248.123-.272 0-.124-.593-.173-1.162-.495-1.706-.148-.247.248-.47.396-.222Z" fill="#fff" fill-rule="evenodd" data-name="Path 133"/><path d="M544.674 2068.338c.025-.124.198-.124.198 0-.025.667.05 1.458-.173 2.1-.025.1-.198.1-.198 0-.099-.667.099-1.433.173-2.1Z" fill="#fff" fill-rule="evenodd" data-name="Path 134"/><path d="M536.963 2064.285c-.05-.223.272-.297.321-.075.124.495.346 1.063.322 1.582 0 .1-.149.149-.198.05-.247-.47-.321-1.063-.445-1.557Z" fill="#fff" fill-rule="evenodd" data-name="Path 135"/><path d="M538.545 2071.328c-.05-.222.296-.296.346-.074.05.173.074.371.123.544.05.173.1.346.074.52 0 .123-.173.172-.247.049-.099-.149-.123-.322-.173-.495l-.123-.544Z" fill="#fff" fill-rule="evenodd" data-name="Path 136"/><path d="M532.687 2067.893c.247.643.618 1.335.643 2.027 0 .099-.124.148-.173.074-.445-.568-.618-1.36-.89-2.002-.074-.247.321-.346.42-.099Z" fill="#fff" fill-rule="evenodd" data-name="Path 137"/><path d="M525.174 2069.524c.32.643.865 1.41.914 2.15 0 .124-.173.174-.247.1-.247-.272-.37-.618-.494-.964-.149-.371-.297-.767-.445-1.137-.074-.173.173-.322.272-.149Z" fill="#fff" fill-rule="evenodd" data-name="Path 138"/><path d="M516.87 2068.017c.172.247.32.494.493.741.149.223.322.445.371.717.025.099-.099.222-.198.148-.222-.148-.346-.395-.47-.618-.172-.272-.32-.544-.493-.815-.124-.198.173-.346.296-.173Z" fill="#fff" fill-rule="evenodd" data-name="Path 139"/><path d="M511.432 2062.975c.42.618.964 1.235 1.186 1.952.05.173-.173.247-.297.148-.568-.47-.963-1.235-1.384-1.853-.173-.272.297-.544.495-.247Z" fill="#fff" fill-rule="evenodd" data-name="Path 140"/><path d="M519.365 2075.851c.297.297.692.594.84 1.014.05.099-.098.222-.197.173-.395-.148-.717-.544-1.013-.84-.223-.223.148-.569.37-.347Z" fill="#fff" fill-rule="evenodd" data-name="Path 141"/><path d="M525.149 2076.84c.346.494.717.989.989 1.533.024.049-.05.123-.1.074-.42-.47-.74-.989-1.087-1.483-.05-.124.124-.223.198-.124Z" fill="#fff" fill-rule="evenodd" data-name="Path 142"/><path d="M532.86 2074.912c.272.692.717 1.434.791 2.2.025.148-.148.272-.272.148-.494-.568-.741-1.36-1.063-2.026-.148-.371.396-.668.544-.322Z" fill="#fff" fill-rule="evenodd" data-name="Path 143"/><path d="M545.317 2074.146c-.074-.198.222-.272.296-.074.272.717.371 1.508.025 2.224-.025.075-.148.025-.148-.05.05-.716.074-1.408-.173-2.1Z" fill="#fff" fill-rule="evenodd" data-name="Path 144"/><path d="M550.186 2076.099c.123-.272.568-.149.445.148-.198.42-.371.865-.668 1.211-.05.074-.197 0-.197-.074.074-.47.247-.89.42-1.285Z" fill="#fff" fill-rule="evenodd" data-name="Path 145"/><path d="M546.8 2082.475c.05-.222.395-.123.346.1-.074.395-.074.938-.297 1.284-.05.1-.197.075-.222-.024-.074-.42.099-.94.173-1.36Z" fill="#fff" fill-rule="evenodd" data-name="Path 146"/><path d="M541.214 2077.384c-.025-.223.346-.247.37-.05.124.717.273 1.434.174 2.15-.025.149-.198.149-.247.025-.247-.667-.247-1.408-.297-2.125Z" fill="#fff" fill-rule="evenodd" data-name="Path 147"/><path d="M537.383 2081.066c-.05-.222.297-.296.346-.074.074.346.198.717.173 1.063 0 .099-.148.148-.198.05-.173-.322-.247-.692-.32-1.039Z" fill="#fff" fill-rule="evenodd" data-name="Path 148"/><path d="M525.99 2083.217c.222.173.469.346.691.519.198.148.42.296.544.519.05.099-.05.222-.148.198-.247-.05-.445-.223-.643-.371-.222-.148-.445-.321-.667-.494-.198-.174 0-.52.222-.371Z" fill="#fff" fill-rule="evenodd" data-name="Path 149"/><path d="M531.896 2082.772c.149.247.272.47.42.716.124.223.297.446.346.693.05.197-.173.271-.296.173-.198-.149-.321-.42-.445-.618-.148-.223-.297-.47-.445-.692-.198-.297.247-.569.42-.272Z" fill="#fff" fill-rule="evenodd" data-name="Path 150"/><path d="M541.263 2085.441c-.049-.272.346-.37.42-.099.1.346.347.865.223 1.236-.05.099-.173.148-.247.05-.297-.272-.321-.84-.396-1.187Z" fill="#fff" fill-rule="evenodd" data-name="Path 151"/><path d="M545.094 2089.297c-.024-.346.544-.346.544.024 0 .47.025.99-.099 1.434-.049.148-.247.124-.296 0-.124-.47-.124-.989-.149-1.458Z" fill="#fff" fill-rule="evenodd" data-name="Path 152"/><path d="M542.573 2093.523c-.049-.222.297-.296.347-.074l.148.667c.05.198.123.371.074.569-.025.074-.148.123-.198.05-.123-.15-.148-.347-.197-.52-.075-.247-.124-.47-.174-.692Z" fill="#fff" fill-rule="evenodd" data-name="Path 153"/><path d="M537.111 2087.666c-.074-.322.42-.445.495-.124.098.494.37.914.519 1.384.049.124-.124.223-.223.173-.494-.297-.692-.89-.79-1.433Z" fill="#fff" fill-rule="evenodd" data-name="Path 154"/><path d="M532.81 2088.358c0-.074.075-.1.124-.1.272.075.445.322.618.52s.42.42.396.717c-.025.123-.124.197-.248.173-.271-.05-.42-.371-.568-.569-.124-.247-.321-.47-.321-.741Z" fill="#fff" fill-rule="evenodd" data-name="Path 155"/><path d="M537.951 2094.759c.075.222.149.47.223.692.074.198.124.445 0 .618a.235.235 0 0 1-.247.099c-.247-.074-.322-.297-.396-.52-.074-.247-.173-.494-.247-.74-.148-.42.52-.594.667-.15Z" fill="#fff" fill-rule="evenodd" data-name="Path 156"/><path d="M560.344 2060.404c.05-.296.124-.593.173-.89.025-.173.321-.123.297.05-.025.296-.05.593-.1.89-.024.247-.049.519-.172.741-.074.099-.198.074-.223-.025-.099-.247-.025-.519.025-.766Z" fill="#fff" fill-rule="evenodd" data-name="Path 157"/><path d="M563.137 2053.805c0-.222-.025-.47.099-.667.05-.124.222-.1.296 0 .124.198.149.445.173.667.025.223.025.445-.074.668-.05.148-.247.173-.321.024-.148-.198-.173-.445-.173-.692Z" fill="#fff" fill-rule="evenodd" data-name="Path 158"/><path d="M566.177 2058.6c.024-.074.148-.074.173 0 .074.717.123 1.607-.05 2.299-.024.123-.222.123-.247 0-.148-.717-.025-1.582.124-2.299Z" fill="#fff" fill-rule="evenodd" data-name="Path 159"/><path d="M565.238 2065.52c.074-.296.543-.148.444.149-.098.346-.148.741-.395 1.013-.074.074-.222.025-.247-.074-.074-.346.099-.742.198-1.088Z" fill="#fff" fill-rule="evenodd" data-name="Path 160"/><path d="M518.896 2081.289c.247.05.519.297.79.272.47-.05.42.642-.024.544-.395-.075-.865-.173-.964-.618-.05-.124.074-.223.198-.198Z" fill="#fff" fill-rule="evenodd" data-name="Path 161"/><path d="M513.854 2073.306c.37.05.692.395.964.642.123.124-.05.322-.198.223-.297-.173-.742-.346-.89-.668-.024-.098.025-.222.124-.197Z" fill="#fff" fill-rule="evenodd" data-name="Path 162"/><path d="M509.01 2068.931c.494.272.865.717 1.235 1.137.124.148-.074.321-.222.198-.42-.346-.89-.692-1.186-1.187-.05-.098.074-.197.173-.148Z" fill="#fff" fill-rule="evenodd" data-name="Path 163"/><path d="M503.844 2066.064c0-.222.272-.247.395-.099.223.297.47.84.346 1.187-.049.123-.173.173-.296.098-.346-.197-.445-.79-.445-1.186Z" fill="#fff" fill-rule="evenodd" data-name="Path 164"/><path d="M506.736 2072.416c.222.099.346.346.47.544.148.247.296.494.444.717.074.098-.099.222-.173.123-.173-.222-.37-.42-.568-.643-.173-.173-.346-.37-.396-.617-.024-.1.1-.173.223-.124Z" fill="#fff" fill-rule="evenodd" data-name="Path 165"/><path d="M506.563 2076.865c0-.124.148-.198.222-.124.272.198.42.445.569.742.148.296.32.618.37.939.025.074-.074.198-.173.123-.272-.197-.445-.494-.618-.766s-.346-.543-.37-.914Z" fill="#fff" fill-rule="evenodd" data-name="Path 166"/></g></g></g><g data-name="Group 49"><path d="M571.367 1969.92c2.62 8.527 5.314 17.03 7.81 25.606a886.102 886.102 0 0 1 6.995 25.58 899.308 899.308 0 0 1 11.74 52.002c1.927 9.911 3.781 19.847 5.24 29.832.024.247-.248.272-.297.025-1.557-8.75-3.04-17.524-4.72-26.273a851.5 851.5 0 0 0-5.463-26.248c-3.905-17.45-8.304-34.775-13.223-51.878-2.719-9.516-5.511-19.08-8.7-28.423-.099-.42.47-.717.618-.223Z" fill="#383451" fill-rule="evenodd" data-name="Path 167"/><path d="M481.773 2004.572c1.137.914 2.768.79 4.202.593.173-.025.346-.05.494-.074.124-.025.222-.025.346-.05 3.262-.42 6.525-.84 9.812-1.26.099 0 .198-.025.321-.05 2.843-.346 5.685-.667 8.552-.939.124-.025.247-.025.395-.025 5.141-.47 10.282-.716 15.398-.568h.272c1.285.05 2.57.099 3.856.198.099 0 .197.024.296.024 1.187.1 2.373.223 3.56.371 5.165.643 10.207 1.78 15.249 3.065.148.025.272.074.42.099 4.474 1.137 8.922 2.372 13.42 3.435.841.198 1.681.396 2.522.569.074.024.148.024.222.05 2.793.592 5.61 1.111 8.428 1.482 1.26.148 2.496.346 3.757.494.173.025.321.05.494.05.346.05.692.074 1.038.123.1 0 .198.025.297.025.544.05 1.087.074 1.656.099 1.458.05 5.017.494 5.413-1.458.148-.717-.075-1.458-.297-2.175a140.688 140.688 0 0 1-1.582-5.24c-.025-.099-.074-.222-.099-.321-.32-1.088-.642-2.2-.964-3.287-.148-.47-.271-.915-.42-1.385-.025-.098-.074-.222-.099-.32-1.137-3.758-2.249-7.54-3.386-11.296l-.099-.296c-1.062-3.51-2.1-7.02-3.163-10.53-.297-.938-.569-1.878-.94-2.792-.37-.964-.469-2.2-1.112-3.04-.42-.544-1.062-.89-1.73-1.038a5.468 5.468 0 0 0-.618-.124c-.296-.05-.568-.074-.865-.099-.098 0-.197-.024-.296-.024-.544-.025-1.112-.025-1.631-.05-1.953-.05-3.88.42-5.809.668-3.188.42-6.376.914-9.54 1.482-.099.025-.222.05-.321.05-1.236.222-2.496.47-3.732.717-.297.05-.618.123-.915.173l-.395.074c-5.091 1.038-10.133 2.298-15.126 3.707-.074.025-.173.05-.247.074a208.954 208.954 0 0 0-9.442 2.966c-.865.297-1.73.593-2.595.865-.099.025-.222.074-.321.099-1.458.494-2.941.989-4.4 1.483a.458.458 0 0 1-.172.05c-3.856 1.31-7.662 2.693-11.345 4.3-.074.025-.123.05-.198.074a71.763 71.763 0 0 0-5.857 2.917c-.124.074-.272.148-.396.222-3.114 1.854-6.055 3.905-8.749 6.377l-.148.148a44.678 44.678 0 0 0-1.903 1.854c-.989 1.038-1.978 2.15-2.398 3.534-.47 1.335-.222 3.015.89 3.93Z" fill="#341c77" fill-rule="evenodd" data-name="Path 168"/><path d="M509.974 1993.326c-1.508 3.164-3.016 6.327-4.499 9.516.124-.025.247-.025.396-.025 1.458-3.09 2.891-6.179 4.35-9.268 1.606 1.26 3.188 2.52 4.794 3.781 2.077 1.656 4.177 3.287 6.254 4.943h.271c-3.756-2.966-7.488-5.932-11.245-8.897 1.087-2.324 2.175-4.622 3.262-6.946.445-.914.865-1.853 1.31-2.768 4.943 3.831 9.911 7.637 14.904 11.37-1.483 2.471-2.917 4.943-4.375 7.439.099 0 .198.025.297.025a704.259 704.259 0 0 1 4.275-7.292c2.052 1.533 4.079 3.04 6.13 4.573l8.379 6.154c.148.025.271.074.42.099-.025-.025-.05-.025-.074-.05.568-1.013 1.136-2.05 1.705-3.064 1.705-3.04 3.41-6.056 5.14-9.07 2.571 2.1 5.142 4.2 7.712 6.351 1.68 1.409 3.361 2.793 5.017 4.202a704.58 704.58 0 0 1-3.534 5.635c.074.025.148.025.222.05.297-.446.569-.89.84-1.335.89-1.384 1.756-2.793 2.645-4.202l5.042 4.3a427.547 427.547 0 0 1 3.683 3.214c.173.024.321.049.494.049-1.78-1.532-3.584-3.04-5.363-4.572-1.236-1.063-2.472-2.101-3.732-3.164a753.405 753.405 0 0 0 7.39-12.11c.025-.025.05-.075.074-.1a803.46 803.46 0 0 1 6.649 6.328c-.025-.1-.075-.223-.1-.322-.172-.148-.32-.321-.494-.47a1328.684 1328.684 0 0 0-5.956-5.709c1.013-1.705 2.051-3.41 3.065-5.116l-.1-.296-3.113 5.264c-4.079-3.88-8.206-7.736-12.334-11.542 2.324-3.806 4.696-7.563 7.044-11.345-.098 0-.197-.024-.296-.024-1.26 1.977-2.496 3.979-3.732 5.956-1.088 1.73-2.15 3.485-3.213 5.215a873.197 873.197 0 0 0-10.035-9.07c-.099.024-.222.049-.321.049l4.226 3.782a1201.3 1201.3 0 0 1 6.006 5.462 879.744 879.744 0 0 0-7.835 13.173c-1.285-1.038-2.595-2.1-3.88-3.139a770.357 770.357 0 0 0-9.936-7.86 764.121 764.121 0 0 1 5.265-8.23c.494-.766 1.013-1.532 1.507-2.298-.123.025-.272.05-.395.074-.717 1.112-1.434 2.2-2.15 3.312a334.05 334.05 0 0 0-4.45 6.97c-2.817-2.2-5.684-4.4-8.526-6.55-.074.025-.173.05-.247.074 2.892 2.2 5.783 4.424 8.675 6.649-2.595 4.102-5.116 8.255-7.612 12.432-1.928-1.434-3.831-2.892-5.734-4.326a823.307 823.307 0 0 1-9.17-7.068c.593-1.285 1.211-2.57 1.804-3.856-.099.025-.222.074-.321.099-.569 1.186-1.137 2.397-1.705 3.584l-1.335-1.038c-.47-.371-.915-.717-1.36-1.088a.459.459 0 0 1-.172.05c.939.741 1.878 1.458 2.792 2.175-1.532 3.237-3.064 6.45-4.597 9.688l-4.523-3.559a708.589 708.589 0 0 0-5.042-3.98c-.074.026-.123.05-.197.075 3.213 2.546 6.45 5.091 9.664 7.637Zm41.818.321c2.002-3.435 4.004-6.87 6.056-10.281.568-.964 1.161-1.928 1.754-2.892 4.153 3.806 8.28 7.637 12.358 11.493a768.828 768.828 0 0 1-7.464 12.234 756.188 756.188 0 0 0-12.704-10.554Zm-21.75 1.434a619.22 619.22 0 0 1 6.698-10.974c.297-.494.618-.964.915-1.458.272.198.544.42.79.618a748.45 748.45 0 0 1 13.026 10.38 729.634 729.634 0 0 0-6.87 12.136 998.98 998.98 0 0 1-14.558-10.702Zm-41.497 5.536c-.692 1.483-1.36 2.99-2.051 4.474.123-.025.222-.025.346-.05.964-2.125 1.952-4.276 2.916-6.401 2.299 1.705 4.573 3.435 6.871 5.14.099 0 .198-.024.321-.049-2.372-1.754-4.745-3.534-7.093-5.289a772.575 772.575 0 0 1 3.683-7.909c.296-.642.617-1.31.939-1.952-.124.074-.272.148-.396.222a1107.184 1107.184 0 0 0-4.424 9.466 45.475 45.475 0 0 1-1.31-.988l-2.966-2.225-.148.148c1.458 1.088 2.917 2.175 4.35 3.263a33.924 33.924 0 0 0-1.038 2.15Zm86.282 11.592c.1 0 .198.025.297.025a144.717 144.717 0 0 0 3.559-5.932c.544-.94 1.063-1.879 1.582-2.843-.025-.098-.074-.222-.1-.32a180.982 180.982 0 0 1-5.339 9.07Z" fill="#ede6dd" fill-rule="evenodd" data-name="Path 169"/></g></g></svg>