<svg xmlns="http://www.w3.org/2000/svg" width="129.35" height="199.067" viewBox="899.983 1979.55 129.35 199.067"><g data-name="giraffe"><g data-name="Group 72"><g data-name="Group 70"><g data-name="Group 58"><path d="M921.241 2171.57c1.008.022 2.038.066 3.045.088-.832-.24-1.643-.46-2.475-.7-.548-.154-.416-.987.153-.987l3.067-.044c-1.227-.394-2.453-.766-3.68-1.16-.438-.132-.504-.899.022-.964a19.738 19.738 0 0 1 2.98-.241c-.395-.132-.811-.263-1.206-.395-.482-.153-.416-1.007.132-.942 1.183.154 2.344.307 3.527.46-1.315-.547-2.651-1.117-3.965-1.664-.482-.198-.482-1.052.153-.986 1.314.11 2.65.219 3.965.35-1.227-.591-2.475-1.16-3.702-1.752-.46-.22-.241-1.03.285-.964.438.066.854.11 1.292.175-.329-.11-.657-.219-.964-.307-.547-.175-.46-1.095.154-1.03.832.088 1.664.154 2.475.242-.745-.373-1.468-.767-2.213-1.14-.482-.24-.24-1.007.285-.985 1.008.022 2.016.066 3.023.088-.964-.373-1.906-.745-2.87-1.118-.547-.219-.481-1.051.154-1.073h4.03c-1.117-.504-2.234-.986-3.33-1.49-.525-.24-.196-.986.286-1.007 1.117-.022 2.234-.066 3.373-.088-1.292-.548-2.563-1.095-3.855-1.643-.526-.22-.504-1.052.153-1.052h3.396c-.899-.394-1.819-.788-2.717-1.182-.504-.22-.504-1.118.153-1.052.46.044.942.066 1.402.11-.35-.11-.7-.22-1.051-.351-.57-.175-.46-1.073.153-1.051.658.021 1.337.043 1.994.043-.81-.263-1.621-.547-2.41-.81-.57-.197-.438-1.008.153-1.03 1.03-.065 2.038-.131 3.067-.197a16.58 16.58 0 0 1-3.965-2.037c-.416-.285-.263-.942.263-.942h1.402c0-.22.154-.438.394-.438-.394-.132-.81-.285-1.204-.417-.636-.219-.35-1.095.284-.985 1.468.263 2.936.394 4.426.438-1.424-.482-2.87-.986-4.294-1.468-.46-.153-.438-.767 0-.92a9.809 9.809 0 0 1 2.826-.482l-2.235-1.117c-.46-.241-.24-1.074.285-1.008.57.088 1.14.153 1.709.241a21.98 21.98 0 0 1-1.556-.898c-.416-.263-.284-1.073.285-1.008.855.088 1.687.176 2.541.285-.525-.219-1.051-.46-1.577-.679-.526-.22-.526-1.117.153-1.095.745.043 1.49.065 2.235.11-1.117-.417-2.235-.811-3.352-1.228-.57-.197-.482-1.051.154-1.073 1.555-.022 3.132-.044 4.688-.088-1.227-.57-2.432-1.16-3.659-1.73-.482-.22-.219-1.008.285-.986l3.57.197c-1.489-.679-3-1.358-4.49-2.059-.482-.22-.241-1.052.285-1.008 1.314.154 2.607.285 3.92.438a65.336 65.336 0 0 0-3.504-1.139c-.592-.175-.46-1.117.153-1.073l2.235.131c-.964-.35-1.95-.7-2.914-1.051-.548-.197-.504-1.14.153-1.095.745.043 1.512.11 2.257.153-.482-.153-.964-.329-1.446-.482-.548-.175-.482-1.117.153-1.074 1.227.11 2.454.22 3.703.33a491.344 491.344 0 0 1-3.199-1.25c-.526-.197-.482-1.051.154-1.051 1.643.044 3.264.066 4.907.11a29.065 29.065 0 0 0-5.477-1.38c-.657-.088-.701-1.052.022-1.074 1.884-.066 3.746-.153 5.63-.175a229.84 229.84 0 0 1-5.39-.898c-.613-.11-.328-.986.264-.899 1.139.176 2.256.35 3.373.526-.766-.328-1.533-.679-2.3-1.008-.57-.24-.11-.985.394-.898l3.002.526c-1.008-.591-2.038-1.205-3.045-1.796-.504-.307-.132-.986.394-.898l1.511.262-2.606-.876c-.504-.175-.438-1.03.153-.964 1.402.132 2.782.285 4.162.417-.832-.439-1.665-.855-2.475-1.293-.395-.219-.22-.942.24-.876l3.812.46c-1.577-.701-3.176-1.38-4.753-2.081-.526-.241-.175-.942.285-.986 1.402-.11 2.76-.11 4.14 0-1.315-.635-2.65-1.249-3.965-1.884-.46-.22-.22-.942.263-.942 1.226.022 2.431.044 3.658.088-1.03-.438-2.081-.898-3.11-1.337-.483-.197-.483-1.051.153-1.007l3.636.263c-1.38-.548-2.76-1.074-4.14-1.621-.504-.198-.46-1.03.153-.986.81.044 1.6.066 2.41.11a31.216 31.216 0 0 1-2.213-.899c-.46-.219-.219-.964.263-.942 1.512.066 3.023.154 4.535.22a168.118 168.118 0 0 0-3.505-1.49c-.46-.198-.482-1.03.153-.986l5.017.438-4.47-1.972c-.437-.197-.218-.964.264-.92 1.577.154 3.176.285 4.753.438a21.335 21.335 0 0 0-5.28-1.577c-.547-.087-.415-1.008.132-.964 1.096.088 2.17.154 3.264.241l-3.811-1.314c-.526-.175-.46-1.03.153-1.008 1.468.066 2.935.132 4.403.22a230.08 230.08 0 0 1-4.118-1.666c-.46-.197-.438-.964.131-.942l4.47.263c-1.271-.482-2.52-.964-3.79-1.446-.526-.197-.307-.92.24-.832 1.096.153 2.169.307 3.264.46-1.577-.854-3.154-1.709-4.731-2.585-.373-.197-.22-.876.24-.832.351.044.68.065 1.03.131.044-.263.241-.504.57-.482-.22-.066-.438-.153-.68-.219-.262-.066-.547-.153-.81-.219-.613-.153-.328-1.051.263-.92.394.088.789.175 1.161.285-.372-.154-.745-.329-1.117-.482-.438-.197-.307-.942.153-1.03a14.364 14.364 0 0 1 2.87-.306l-1.249-.526c-.657-.263-.394-1.161.307-1.052l.526.088c-.548-.241-1.118-.46-1.665-.701-.636-.285-.395-1.183.306-1.052 1.424.263 2.87.526 4.294.79l-3.877-1.907c-.482-.24-.241-1.03.284-1.007l3.09.219a20.427 20.427 0 0 1-2.651-1.928c-.46-.394.065-.964.525-.898.767.11 1.556.24 2.322.35-1.314-.745-2.65-1.468-3.965-2.212-.57-.307-.131-1.074.417-.986.416.066.832.153 1.226.219l-.985-.329c-.548-.175-.482-1.095.153-1.051 1.008.087 2.015.153 3.023.219-.767-.307-1.533-.592-2.278-.898-.504-.22-.504-1.096.153-1.052l3.352.263c-1.249-.57-2.52-1.117-3.768-1.687-.482-.219-.154-.832.24-.876a18.348 18.348 0 0 1 3.637-.022c-1.03-.613-2.08-1.248-3.11-1.862-.395-.24-.241-.942.262-.898l2.804.263c-1.27-.592-2.563-1.205-3.833-1.796-.504-.241-.132-1.008.372-.877.614.154 1.227.307 1.862.46-.57-.306-1.117-.591-1.687-.898-.481-.263-.131-.942.373-.854l4.995 1.051c-1.556-1.051-3.243-1.862-5.06-2.475-.592-.197-.33-.986.262-.898l2.65.394c-1.073-.46-2.168-.898-3.241-1.358-.417-.175-.439-.92.065-.92-.022 0-.065-.022-.087-.022-.46-.11-.373-.876.131-.855 1.249.088 2.497.198 3.768.307-.745-.416-1.468-.832-2.213-1.248-.372-.198-.219-.877.241-.833.964.11 1.928.241 2.914.373-1.27-.548-2.541-1.074-3.812-1.622-.438-.197-.263-.788.197-.722l3.79.591c-1.205-.723-2.431-1.468-3.636-2.19-.285-.176-.175-.724.197-.68 1.752.241 3.483.482 5.236.723-1.512-.723-3.024-1.424-4.535-2.147-.46-.219-.088-.81.329-.744 2.256.35 4.49.788 6.725 1.248.197.044.153.373-.044.373a147.41 147.41 0 0 1-4.36-.482c1.425.7 2.848 1.424 4.272 2.103.307.153.154.7-.175.657l-5.74-.789c1.271.745 2.52 1.49 3.79 2.257.395.24.11.744-.306.679-.898-.132-1.775-.285-2.673-.416l3.549 1.511c.35.153.35.789-.11.745-1.16-.132-2.322-.241-3.46-.373.7.395 1.401.789 2.124 1.183.373.22.22.877-.24.855-.373-.022-.724-.066-1.096-.088.482.132.942.263 1.424.373.46.109.372.898-.132.854a99.405 99.405 0 0 1-2.672-.307c1.227.504 2.431 1.008 3.658 1.512.57.24.35 1.007-.263.92-.942-.132-1.884-.285-2.826-.416a22.553 22.553 0 0 1 3.68 2.475c.395.329-.043.854-.46.767l-3.811-.789c.723.394 1.446.767 2.19 1.161.482.263.132.986-.372.854-.285-.065-.57-.153-.876-.219.635.285 1.248.592 1.884.877.416.197.219.92-.241.876-1.14-.11-2.278-.197-3.396-.307 1.161.68 2.3 1.38 3.462 2.06.481.284.153 1.007-.395.876a17.826 17.826 0 0 0-3.855-.46c1.49.657 2.957 1.314 4.447 1.971.438.197.197.942-.263.898-.876-.065-1.753-.11-2.65-.175.854.329 1.686.657 2.54.986.526.197.504 1.117-.153 1.051a85.975 85.975 0 0 0-2.366-.175c1.205.394 2.432.81 3.637 1.205.679.219.372 1.183-.307 1.051-1.709-.306-3.418-.613-5.104-.898 1.27.701 2.519 1.402 3.79 2.103.569.329.13 1.052-.417.964l-3.264-.504a18.13 18.13 0 0 0 3.133 1.731c.482.219.219 1.03-.285.986-.964-.066-1.928-.132-2.914-.22 1.578.767 3.155 1.556 4.71 2.323.57.285.132 1.051-.416.964-1.073-.198-2.147-.373-3.198-.57.46.197.942.394 1.402.591.657.285.394 1.183-.307 1.052l-.46-.066c.35.132.68.285 1.03.417.613.262.372 1.226-.285 1.03-1.621-.505-3.177-.68-4.776-.549 2.038.899 4.053 1.84 6.09 2.783.482.219.132.963-.35.832-.723-.197-1.468-.394-2.19-.613a.492.492 0 0 1 .021.46c.789.262 1.577.57 2.344.898.416.175.11.898-.307.723-1.927-.745-3.899-1.337-5.914-1.709l4.666 2.563c.46.263.11.854-.35.789-.549-.088-1.074-.154-1.622-.241.942.35 1.906.7 2.848 1.051.46.175.416.942-.132.898-1.555-.087-3.088-.175-4.644-.263 1.337.548 2.695 1.096 4.031 1.643.46.176.438.942-.131.92-1.249-.065-2.52-.087-3.768-.13l4.14 1.445c.482.175.438.986-.131.942-.701-.044-1.402-.11-2.125-.153 1.03.416 2.037.92 3.023 1.511.394.241.24.964-.263.92-1.424-.131-2.826-.263-4.25-.394 1.49.657 2.957 1.314 4.447 1.95.46.197.22.963-.263.92-1.643-.154-3.264-.285-4.907-.439 1.074.46 2.125.899 3.198 1.359.482.197.482 1.007-.153.985-1.424-.065-2.826-.131-4.25-.197 1.315.416 2.651.723 4.053.92.613.088.657 1.03-.022 1.008l-4.49-.197 4.402 1.708c.504.198.46 1.03-.153.986-1.336-.087-2.672-.197-4.009-.284.92.394 1.84.788 2.76 1.204.482.22.482 1.008-.153 1.008-1.314-.022-2.629-.066-3.943-.088 1.621.79 3.22 1.578 4.841 2.366.482.241.132.986-.372.855-1.775-.46-3.461-.68-5.236-.614l5.784 2.629c.416.197.197.942-.241.876l-4.316-.525c.81.416 1.643.832 2.454 1.248.416.22.219.964-.263.92a97.878 97.878 0 0 0-2.52-.24c1.359.46 2.695.92 4.053 1.401.592.197.329 1.008-.263.92a341.363 341.363 0 0 0-4.644-.744c1.052.613 2.103 1.248 3.155 1.862.525.306.131 1.007-.395.92a51.396 51.396 0 0 0-1.796-.307c.723.329 1.446.657 2.169.964.263.131.284.35.197.547l.175.044c.526.088.329.81-.131.855-1.293.11-2.563.175-3.856.24 1.468.439 2.892.986 4.294 1.665.482.241.219.986-.285.964-1.555-.043-3.11-.065-4.666-.087 1.292.504 2.607 1.007 3.9 1.511.525.197.503 1.118-.154 1.074-.964-.088-1.906-.176-2.87-.241.395.131.767.263 1.14.372.547.175.481 1.095-.154 1.052-.876-.066-1.774-.11-2.65-.176.92.329 1.861.68 2.781 1.008.548.197.504 1.117-.153 1.074-.613-.044-1.227-.066-1.84-.11a48.51 48.51 0 0 1 3.33 1.38c.482.22.24 1.073-.285 1.008-1.49-.176-2.957-.329-4.447-.504l4.009 1.84c.482.22.219 1.008-.285.986-1.227-.066-2.453-.132-3.68-.22 1.095.526 2.169 1.03 3.264 1.556.504.241.197.986-.285.986l-4.009.088c1.358.481 2.738.985 4.097 1.467.57.197.503 1.14-.154 1.096-.964-.044-1.906-.11-2.87-.154.702.307 1.403.614 2.104.898.525.22.525 1.161-.154 1.096l-3.483-.395c1.074.504 2.169.899 3.33 1.205.57.154.46 1.14-.153 1.052l-3.155-.46c.832.416 1.643.832 2.475 1.27.526.263.154 1.161-.416.942-1.402-.526-2.738-.7-4.14-.547 1.709.591 3.395 1.183 5.104 1.752a.459.459 0 0 1-.131.898c-1.03.066-2.06.088-3.067.066.394.131.788.263 1.16.416.088.022.132.066.198.132.591.022 1.183.022 1.774.043.307.022.307.46 0 .482-.547.044-1.095.066-1.643.11a.434.434 0 0 1-.46.263c-.416-.044-.81-.11-1.226-.154l-2.892.132a17.509 17.509 0 0 0 5.367 1.84c.613.11.394.986-.153 1.03-1.205.087-2.41.153-3.637.24 1.074.373 2.147.723 3.22 1.096.548.197.46 1.051-.153 1.051-.635-.022-1.27-.022-1.884-.043.614.197 1.249.416 1.862.613.548.175.482 1.095-.153 1.051-.876-.065-1.775-.153-2.65-.219l2.102.92c.526.22.504 1.052-.153 1.052h-3.352c1.227.526 2.476 1.051 3.702 1.577.548.241.504 1.052-.153 1.052-1.161.022-2.3.065-3.461.087 1.16.526 2.322 1.03 3.483 1.556.526.24.219 1.007-.285 1.007h-3.68c1.03.395 2.06.81 3.089 1.205.547.22.482 1.074-.154 1.052-1.27-.044-2.54-.066-3.811-.11.854.438 1.686.876 2.54 1.336.46.241.242 1.03-.284.986-.131-.022-.263-.022-.394-.044.635.198 1.248.395 1.884.614.525.175.46 1.117-.154 1.03-1.248-.176-2.497-.33-3.746-.504 1.096.525 2.213 1.051 3.308 1.577.46.219.22 1.007-.263.964l-3.614-.329c1.446.613 2.913 1.227 4.36 1.84.46.197.46 1.052-.154.986l-1.906-.263c.591.197.329 1.03-.263.92a19.286 19.286 0 0 0-4.184-.263c1.446.46 2.892.898 4.315 1.358.548.176.439.986-.153.986l-2.87.044c.942.285 1.906.548 2.848.833.504.153.416.963-.131.941-.438-.021-.876-.021-1.293-.043 1.096.153 2.17.372 3.242.657.439.11.439.81 0 .898-2.103.416-4.03.329-6.09-.263a.43.43 0 0 1-.284-.263c-.526-.044-1.052-.065-1.556-.11-.482-.043-.591-.503-.394-.81-.219-.11-.416-.197-.635-.306-.592-.044-.373-.723.087-.701Z" fill="#855f47" fill-rule="evenodd" data-name="Path 197"/><path d="M986.566 2046.42c-3.44 11.084-5.827 22.498-7.842 33.998a1029.857 1029.857 0 0 0-2.673 16.123l-1.314 8.15a308.018 308.018 0 0 0-1.731 11.96 329.363 329.363 0 0 0-2.125 23.2c-.175 2.978-.285 5.936-.394 8.915-.285 9.42-.154 18.861.372 28.26-.986.174-1.993.35-3.001.481-7.229 1.074-14.546 1.336-21.819.876l-1.796-.131c-3.44-.263-6.879-.701-10.274-1.249-1.643-.263-4.666-.24-6.068-1.117-1.643-1.03-1.008-.526-.789-2.432.636-5.323 1.468-10.624 2.366-15.925 1.906-11.15 4.206-22.28 6.09-33.342.657-3.833 1.293-7.645 1.928-11.479 1.249-7.689 2.41-15.4 3.22-23.155.22-2.146.416-4.271.592-6.418.065-.942.153-1.884.219-2.848.657-8.653 1.248-17.24 2.037-25.871.329-3.527.7-7.054 1.117-10.603 13.626-1.468 28.588-.46 41.885 2.607Z" fill="#fcc953" fill-rule="evenodd" data-name="Path 198"/><g data-name="Group 57"><path d="M970.86 2177.025c-.987.175-1.994.35-3.002.482-.438-.57-.92-1.117-1.512-1.49-2.628-1.62-5.235-3.242-7.426-5.454-2.563-2.585-4.512-5.98-4.688-9.639-.131-2.98.92-5.915 2.476-8.456 1.555-2.541 3.57-4.753 5.608-6.944.547-.613 1.183-1.249 1.971-1.38.833-.154 1.643.263 2.322.723 1.556 1.03 2.804 2.366 3.856 3.855-.241 9.442-.132 18.883.394 28.303Z" fill="#855f47" fill-rule="evenodd" data-name="Path 199"/><path d="M945.404 2176.127a8.775 8.775 0 0 1-1.139 2.147c-3.44-.263-6.879-.701-10.274-1.249-1.643-.263-4.666-.24-6.068-1.117-1.643-1.03-1.008-.526-.789-2.432.636-5.323 1.468-10.624 2.366-15.926 2.06-1.292 4.535-1.993 6.879-1.467 2.41.504 4.425 2.212 5.783 4.25 1.38 2.037 2.147 4.403 2.804 6.769.832 2.935 1.468 6.133.438 9.025Z" fill="#855f47" fill-rule="evenodd" data-name="Path 200"/><path d="M973.006 2116.63a329.413 329.413 0 0 0-2.125 23.198c-.942-.219-1.774-.92-2.497-1.599-2.213-2.037-4.425-4.096-6.638-6.134-1.73-1.577-3.461-3.198-4.71-5.17-2.475-3.943-2.519-10.405.964-13.8 1.753-1.71 4.25-2.607 6.66-2.41 3.505.285 6.55 2.76 8.28 5.783l.066.132Z" fill="#855f47" fill-rule="evenodd" data-name="Path 201"/><path d="M933.947 2141.055c-.307 2.147-.219 4.49.92 6.353 1.315 2.147 3.724 3.308 6.024 4.337 2.454 1.118 5.17 2.235 7.733 1.424 1.556-.504 2.826-1.708 3.724-3.088 1.578-2.388 2.147-5.346 1.994-8.215-.154-2.87-.964-5.652-1.994-8.325-.766-1.993-1.665-3.987-3.11-5.542-1.446-1.555-3.55-2.65-5.652-2.476-2.103.198-3.965 1.622-5.17 3.352-2.366 3.417-3.877 8.105-4.469 12.18Z" fill="#855f47" fill-rule="evenodd" data-name="Path 202"/><path d="M954.43 2111.24c-.351 2.147-.877 4.535-2.673 5.762-1.73 1.183-4.075.854-6.09.219-3.067-.964-5.937-2.475-8.15-4.535 1.25-7.689 2.41-15.4 3.221-23.155.942.088 1.906.35 2.804.636 3.943 1.27 7.952 3.33 10.011 6.922 2.41 4.206 1.687 9.398.876 14.152Z" fill="#855f47" fill-rule="evenodd" data-name="Path 203"/><path d="M978.724 2080.418a1029.917 1029.917 0 0 0-2.673 16.123 20.008 20.008 0 0 1-1.512 1.534c-1.883 1.687-4.359 3.001-6.856 2.607-2.278-.373-4.097-2.103-5.455-3.965-1.752-2.41-2.957-5.236-3.593-8.15-.722-3.46-1.38-9.923 1.819-12.442 3.483-2.739 9.069-3.352 12.968-1.315 2.344 1.205 4.162 3.242 5.302 5.608Z" fill="#855f47" fill-rule="evenodd" data-name="Path 204"/><path d="M951.187 2080.09c-1.314 1.248-3 2.278-4.82 2.278-1.795 0-3.416-.942-4.818-2.081.657-8.653 1.248-17.24 2.037-25.871.394.087.767.219 1.139.35 4.885 1.818 8.894 5.937 10.274 10.953 1.38 5.039-.044 10.778-3.812 14.37Z" fill="#855f47" fill-rule="evenodd" data-name="Path 205"/></g></g><g data-name="Group 69"><g data-name="Group 61"><g data-name="Group 59"><path d="M1008.231 2000.176c-1.686 3.987-5.213 6.834-7.82 10.296-3.812 5.06-5.586 11.632-4.863 17.919l3.351 5.126c5.98-2.716 10.669-8.171 12.443-14.48 1.753-6.353.591-13.45-3.11-18.861Z" fill="#fcc953" fill-rule="evenodd" data-name="Path 206"/><path d="M1000.498 2019.628c.92-2.037 2.213-3.877 3.505-5.717.986-1.402 1.95-2.804 2.936-4.206.11-.153.24-.329.416-.394.307-.132.68.065.832.35.176.285.198.635.198.964.087 3.549-.636 7.163-2.322 10.296-.592 1.117-6.068 8.346-7.054 5.235-.197-.613.263-2.146.35-2.782.175-1.292.592-2.563 1.14-3.746Z" fill="#855f47" fill-rule="evenodd" data-name="Path 207"/></g><g data-name="Group 60"><path d="M938.766 2015.269c-2.497-1.446-5.213-2.453-7.864-3.505-1.358-.548-2.672-1.03-3.943-1.796-.482-.285-3.067-1.753-3.067-2.344-.175 6.856.833 13.91 4.907 19.672 3.768 5.3 10.931 9.375 17.547 7.557l2.147-7.514c-1.27-5.17-5.126-9.397-9.727-12.07Z" fill="#fcc953" fill-rule="evenodd" data-name="Path 208"/><path d="M940.344 2029.902c.876.329 1.971.57 2.65-.065.899-.81.417-2.322-.197-3.352a21.32 21.32 0 0 0-3.373-4.272c-1.227-1.204-10.69-8.017-11.37-6.44-.525 1.205 1.6 4.513 2.19 5.498a21.183 21.183 0 0 0 4.097 4.951c1.775 1.556 3.812 2.826 6.003 3.68Z" fill="#855f47" fill-rule="evenodd" data-name="Path 209"/></g><path d="M993.16 1998.774c-.438-.417-1.205-.307-1.709.065-.504.373-.81.92-1.205 1.402a6.35 6.35 0 0 1-1.468 1.293c-.372.24-.854-.11-.744-.548l.854-3.855c.088-.35.153-.723.088-1.074-.066-.35-.307-.7-.68-.767-.59-.109-1.007.526-1.204 1.096a8.807 8.807 0 0 0-.482 3.11c0 .307.044.614-.044.899-.088.284-.329.547-.635.57-.285.021-.526-.198-.657-.439-.132-.24-.176-.526-.241-.789a4.368 4.368 0 0 0-1.359-2.168c-.372-.329-.832-.592-1.336-.636-.504-.043-1.051.198-1.249.658-.262.613.154 1.314.701 1.708.548.395 1.205.614 1.71 1.03.525.416.875 1.183.503 1.752-.263.395-.789.548-1.27.548-.483 0-.965-.131-1.425-.131a2.615 2.615 0 0 0-2.19 1.358c-.285.57-.329 1.336.131 1.774.417.395 1.118.373 1.643.11.526-.263.92-.701 1.358-1.096.439-.394.942-.766 1.534-.81.548-.044 1.402.131 1.49.876a43.741 43.741 0 0 1-2.191 16.123l2.3 1.161c2.344-5.148 2.914-11.785 1.906-17.393-.022-.154.131-.263.263-.176.942.636 2.169 1.534 3.198 1.753.613.11 1.424.066 1.555-.57a.936.936 0 0 0-.416-.942c-.723-.482-2.3-.832-3.11-1.139-.263-.11-.263-.46-.022-.57.964-.416 2.65-.941 3.505-1.577.416-.306.832-.657 1.051-1.117.241-.504.22-1.139-.153-1.49Z" fill="#fcc953" fill-rule="evenodd" data-name="Path 210"/><path d="M959.972 2002.432c-.329-.789-1.249-1.205-2.103-1.161-.723.044-1.621.285-2.06-.307-.46-.613.088-1.424.482-2.059.395-.657.636-1.49.395-2.213-.241-.744-1.052-1.314-1.797-1.073-.722.241-1.073 1.095-1.03 1.862.045.767.33 1.49.46 2.235.067.372.045.788-.24 1.03-.307.24-.789.109-1.052-.176-.262-.285-.372-.68-.46-1.074-.153-.613-.328-1.248-.766-1.73-.417-.482-1.14-.745-1.709-.438-.635.35-.745 1.27-.482 1.928.285.679.854 1.182 1.336 1.708.241.263.482.636.329.964-.131.329-.548.416-.898.394-.635-.022-1.249-.219-1.884-.306-.635-.088-1.315-.088-1.862.263-.526.35-.833 1.117-.482 1.643.35.525 1.095.591 1.709.438.613-.154 1.183-.482 1.818-.526.635-.044 1.358.372 1.358 1.008 0 .547-.57.942-1.073 1.16-.504.22-1.096.439-1.315.943-.24.547.088 1.226.614 1.49.547.24 1.204.109 1.686-.242.482-.35.767-.92.942-1.49.11-.328.176-.678.35-.985.176-.307 1.03-.942 1.315-.263 2.235 5.323 2.695 11.37 1.315 16.977l3.286-1.095c1.051-5.608.021-11.413-2.103-16.693-.373-.942.109-1.117.35-1.073.832.175 1.665.876 2.497.81.898-.065 1.402-1.16 1.074-1.95Z" fill="#fcc953" fill-rule="evenodd" data-name="Path 211"/></g><g data-name="Group 63"><path d="M996.993 2075.643c-1.16 3.242-1.84 5.915-1.248 9.31 0 .044 0 .066.022.11.525 2.979 2.3 5.564 2.738 8.587.394 2.76-.153 5.652-1.6 8.017-1.97 3.22-5.235 5.06-8.871 5.784-3.133.635-6.506.416-9.53-.438a16.765 16.765 0 0 1-3.088-1.205c-3.133-1.577-5.499-4.995-6.638-8.237a17.434 17.434 0 0 1-.964-4.841c-.065-1.73.11-2.936-.788-4.447-.022-.044-.066-.11-.088-.154-.68-1.073-1.621-1.95-2.563-2.826-4.513-4.184-8.697-8.258-12.158-13.384-8.018-11.786-10.822-27.164-6.813-40.9 2.06-7.053 9.77-11.697 17.437-13.318 1.665-.35 3.308-.57 4.886-.614 4.556-.175 9.288.504 13.757 1.972a37.646 37.646 0 0 1 5.892 2.475c3.615 1.884 6.879 4.36 9.552 7.383.7.81 1.358 1.643 1.927 2.519 1.446 2.19 2.52 4.6 3.155 7.163.942 3.856.832 7.492.526 11.48a98.167 98.167 0 0 1-4.885 23.79c-.241.59-.439 1.182-.658 1.774Z" fill="#fcc953" fill-rule="evenodd" data-name="Path 212"/><g data-name="Group 62"><path d="M981.506 2021.534c-.154 2.322-.723 4.688-2.125 6.528-1.402 1.862-3.746 3.111-6.046 2.739-2.585-.417-4.425-2.651-6.025-4.732-1.336-1.73-4.118-5.301-4.49-8.346 1.664-.351 3.307-.57 4.885-.614 4.556-.175 9.288.504 13.757 1.972.087.788.087 1.62.044 2.453Z" fill="#b17d5c" fill-rule="evenodd" data-name="Path 213"/><path d="M998.833 2031.436c-.744 2.431-2.497 4.6-4.84 5.52-2.454.964-5.521.373-7.208-1.643-1.14-1.38-1.555-3.242-1.512-5.038.066-2.278.592-6.178 2.082-8.74 3.614 1.883 6.878 4.359 9.55 7.382.68.788 1.337 1.643 1.928 2.519Z" fill="#b17d5c" fill-rule="evenodd" data-name="Path 214"/><path d="M972.327 2039.76c.942.767 2.06 1.27 3.11 1.862 1.052.592 2.104 1.293 2.76 2.322.307.482.548 1.03 1.009 1.315.372.24.832.263 1.27.24 2.585-.196 4.644-2.694 4.732-5.279.087-2.585-1.556-5.038-3.812-6.33-2.388-1.359-6.134-1.578-8.719-.526-2.825 1.204-2.497 4.666-.35 6.396Z" fill="#b17d5c" fill-rule="evenodd" data-name="Path 215"/><path d="M948.274 2032.75c.898 1.6 3.023 1.906 4.622 2.826 1.446.855 2.454 2.278 3.593 3.527 1.139 1.249 2.585 2.41 4.271 2.41 1.862.022 3.505-1.446 4.163-3.199.657-1.73.503-3.68.11-5.498-.724-3.176-2.345-6.353-5.193-7.974-2.782-1.577-5.87-.964-8.258.964-1.862 1.533-4.754 4.337-3.308 6.944Z" fill="#b17d5c" fill-rule="evenodd" data-name="Path 216"/><path d="M984.112 2052.663c-.7 3.089-.57 6.484 1.03 9.2 1.293 2.191 4.206 3.79 6.703 4.053 2.103.22 5.565-1.292 3.462-3.899-.723-.876-1.819-1.38-2.585-2.212-1.315-1.402-1.534-3.527-1.27-5.433.24-1.906.897-3.746 1.05-5.652.307-3.505-2.343-7.273-5.454-3.702-1.753 1.993-2.344 5.104-2.936 7.645Z" fill="#b17d5c" fill-rule="evenodd" data-name="Path 217"/><path d="M968.712 2058.25c.11 2.212.658 4.643 2.476 5.958 1.774 1.292 4.381 1.051 6.134-.263 1.752-1.315 2.716-3.505 2.913-5.696.197-2.19-.285-4.381-.964-6.462-1.468-4.579-5.827-10.362-11.37-7.448-2.234 1.16-2.19 3.11-1.16 5.148 1.533 3.023 1.796 5.367 1.971 8.762Z" fill="#b17d5c" fill-rule="evenodd" data-name="Path 218"/><path d="M990.093 2069.115c-1.687-1.402-3.57-2.717-5.74-3.023-2.168-.307-4.666.723-5.388 2.782-.373 1.117-.198 2.344.13 3.483.987 3.264 3.418 6.155 6.617 7.273 3.22 1.117 7.141.24 9.266-2.454 3.176-3.987-2.256-5.893-4.885-8.061Z" fill="#b17d5c" fill-rule="evenodd" data-name="Path 219"/><path d="M971.976 2078.052c-1.555 2.388-4.863 3.462-7.513 2.41-1.6-.635-2.87-1.884-3.944-3.22-1.139-1.402-2.146-3.045-2.19-4.841-.066-2.892 2.65-5.367 5.542-5.52 5.258-.286 11.435 6.023 8.105 11.171Z" fill="#b17d5c" fill-rule="evenodd" data-name="Path 220"/><path d="M955.634 2062.17c-.57.68-1.226 1.315-1.643 2.103-.416.79-.591 1.775-.175 2.563.548 1.008 1.884 1.359 3.001 1.074 1.118-.263 2.038-1.008 2.936-1.73 1.862-1.512 3.811-3.09 4.753-5.302 1.249-2.892.592-6.2-.284-9.223-.329-1.117-.701-2.278-1.49-3.154-.789-.854-2.147-1.314-3.176-.767-1.6.876-.329 4.995-.526 6.594a15.003 15.003 0 0 1-3.396 7.842Z" fill="#b17d5c" fill-rule="evenodd" data-name="Path 221"/><path d="M982.294 2097.943c-.306 2.717-.854 5.52-2.497 7.711-.373.504-.81.964-1.293 1.359a16.767 16.767 0 0 1-3.088-1.205c-3.133-1.577-5.499-4.995-6.638-8.237a17.432 17.432 0 0 1-.964-4.841c-.066-1.73.11-2.936-.788-4.447 1.226-3.001 4.928-5.39 7.754-6.397 1.643-.591 3.615-.81 5.039.197 1.183.855 1.708 2.366 2.037 3.79.876 3.943.898 8.04.438 12.07Z" fill="#b17d5c" fill-rule="evenodd" data-name="Path 222"/><path d="M996.884 2101.668c-1.972 3.22-5.236 5.06-8.872 5.783-1.183-1.161-1.73-2.87-1.797-4.513-.065-1.687.307-3.352.723-4.995.745-3.045 1.621-6.155 3.396-8.74 1.16-1.709 2.804-3.177 4.71-3.965.153-.066.394-.175.657-.285 0 .044 0 .066.022.11.526 2.979 2.3 5.564 2.738 8.587.416 2.738-.11 5.652-1.577 8.018Z" fill="#b17d5c" fill-rule="evenodd" data-name="Path 223"/></g></g><g data-name="Group 66"><g data-name="Group 64"><path d="M999.885 2049.224c-7.952-.088-8.105 12.245-.131 12.333 7.93.088 8.083-12.246.131-12.333Z" fill="#fd5c37" fill-rule="evenodd" data-name="Path 224"/><path d="M999.206 2050.078c-2.19.11-3.987 1.818-4.316 3.965-.022.175.22.241.263.066.395-1.972 2.081-3.396 4.053-3.593.263-.022.285-.46 0-.438Z" fill="#fff" fill-rule="evenodd" data-name="Path 225"/></g><g data-name="Group 65"><path d="M949.391 2048.632c-7.952-.087-8.105 12.246-.131 12.334 7.93.11 8.083-12.224.131-12.334Z" fill="#fd5c37" fill-rule="evenodd" data-name="Path 226"/><path d="M948.69 2049.487c-2.19.11-3.987 1.818-4.316 3.965-.021.175.22.24.263.065.395-1.971 2.081-3.395 4.053-3.592.285 0 .285-.438 0-.438Z" fill="#fff" fill-rule="evenodd" data-name="Path 227"/></g></g><g data-name="Group 67"><path d="M952.042 2040.527c-.548-.197-1.227-.11-1.797.263-.525.35-.876.854-1.095 1.205a8.24 8.24 0 0 0-1.27 4.403c0 .24.197.46.46.46.24 0 .46-.197.46-.46 0-1.38.416-2.76 1.139-3.943.284-.46.525-.745.832-.92.329-.22.68-.285.964-.176.504.198.745.899.854 1.468a9.458 9.458 0 0 1 0 3.68.448.448 0 0 0 .373.526h.087c.22 0 .417-.153.46-.372a11.327 11.327 0 0 0 0-4.031c-.24-1.095-.723-1.818-1.467-2.103Z" fill="#120d07" fill-rule="evenodd" data-name="Path 228"/><path d="M1000.257 2042.586c-.219-.35-.547-.876-1.073-1.227-.548-.372-1.227-.503-1.774-.306-.745.263-1.25.964-1.49 2.125a10.85 10.85 0 0 0-.088 4.03c.044.22.22.373.438.373h.088a.464.464 0 0 0 .373-.526 9.897 9.897 0 0 1 .087-3.68c.132-.57.373-1.27.898-1.446.285-.088.658-.022.964.197.285.197.526.482.81.942a7.626 7.626 0 0 1 1.052 3.965c0 .241.197.46.438.46s.46-.197.46-.438a8.531 8.531 0 0 0-1.183-4.469Z" fill="#120d07" fill-rule="evenodd" data-name="Path 229"/></g><g data-name="Group 68"><path d="M992.656 2094.592c.46-.22.7-.723.876-1.183a5.334 5.334 0 0 0 .285-1.95c-.022-.548-.131-1.095-.416-1.555-1.03-1.709-3.483-.592-3.527 1.16-.066 1.293 1.008 4.426 2.782 3.528Z" fill="#120d07" fill-rule="evenodd" data-name="Path 230"/><path d="M981.703 2094.789c.57.482 1.468.679 2.08.24.505-.35.702-.985.811-1.598.132-.68.241-1.402.088-2.081-.153-.68-.591-1.337-1.249-1.6-.744-.284-1.643.044-2.146.658-1.161 1.336-.899 3.286.416 4.38Z" fill="#120d07" fill-rule="evenodd" data-name="Path 231"/></g><path d="M982.623 2103.113a.45.45 0 0 0-.635 0c-.723.701-1.95.942-3.067.592-1.249-.416-2.125-1.402-2.651-2.169-.68-1.008-1.14-2.169-1.6-3.308a.453.453 0 0 0-.59-.263.453.453 0 0 0-.263.592c.46 1.183.941 2.388 1.686 3.483.592.876 1.621 2.015 3.111 2.52.438.13.876.218 1.314.218 1.03.022 1.994-.35 2.673-1.007.197-.198.197-.482.022-.658Z" fill="#120d07" fill-rule="evenodd" data-name="Path 232"/></g></g><g data-name="Group 71"><path d="m937.956 2122.172 1.446.197c12.859 1.687 26.003 1.38 38.971.526 2.037-.132 4.973-.482 6.2-1.972.985-1.205.613-2.804.219-4.206-.176-.613-.395-1.292-1.008-1.709-1.14-.744-4.776.745-6.156.899a116.23 116.23 0 0 1-7.36.613c-9.661.504-20.045.35-29.53-1.38a76.233 76.233 0 0 1-8.302-1.972c-1.38-.394-2.892-.788-4.163-1.358-.854-.372-1.643-1.095-2.694-1.095-1.906 0-1.358 3.483-1.577 4.534-.154.79-.307 1.6.043 2.344.35.767 1.205 1.337 2.125 1.643 1.687.57 3.505 1.008 5.214 1.534 2.169.657 4.36 1.073 6.572 1.402Z" fill="#383451" fill-rule="evenodd" data-name="Path 233"/><path d="M1025.734 2026.069c-3.198-11.194-8.96-21.184-16.626-28.873a58.739 58.739 0 0 0-13.166-9.967c-4.951-2.76-10.34-4.82-15.992-6.134-6.988-1.62-14.151-1.95-21.293-1.03-6.878.899-13.582 2.936-19.934 6.09-6.287 3.111-12.027 7.208-17.087 12.159a67.433 67.433 0 0 0-12.662 17.152c-6.77 13.144-9.792 28.829-8.784 45.368.92 15.006 3.833 26.945 8.893 36.496 3.243 6.112 7.273 10.756 12.005 13.823 6.375 4.118 14.918 5.345 22.432 6.418.373.044.745.11 1.095.154a132.53 132.53 0 0 0 18.862 1.358c4.337 0 8.697-.22 13.012-.635a131.654 131.654 0 0 0 20.088-3.593c6.528-1.709 11.917-4.337 16.036-7.799 9.88-8.346 13.143-21.994 14.742-31.523 3.09-18.291 2.542-34.918-1.62-49.464Zm.526 48.566c-1.555 9.266-4.71 22.476-14.13 30.428-3.899 3.286-9.047 5.783-15.312 7.426-6.44 1.687-13.1 2.87-19.803 3.549-10.471 1.03-21.03.81-31.436-.701-.372-.044-.723-.11-1.095-.153-7.339-1.052-15.663-2.257-21.71-6.134-4.468-2.87-8.302-7.295-11.39-13.144-4.93-9.31-7.777-21.008-8.697-35.751-1.008-16.21 1.971-31.589 8.587-44.426 13.166-25.565 42.148-39.628 68.94-33.429 21.752 5.017 37.94 20.942 44.469 43.725 3.746 13.122 4.929 28.697 1.577 48.61Z" fill="#383451" fill-rule="evenodd" data-name="Path 234"/></g></g><g data-name="Group 73"><path d="M998.834 2147.123c-2.366-.46-4.82-.526-7.208-.131-.175.022-.372.065-.525.175-.395.329 0 2.366 0 2.913.043 1.162.043 2.344.022 3.505-.066 2.323-.33 4.667-.986 6.923-.68 2.256-1.687 4.403-2.257 6.681-.547 2.279-.591 4.842.636 6.857a5.851 5.851 0 0 0 2.059 2.015c.898.548 1.95.877 3.001.899 2.037.043 4.053-.986 5.214-2.651 1.095-1.6 1.38-3.637 1.358-5.586-.044-2.585-.592-5.28-.066-7.82.548-2.651 1.862-5.061 3.242-7.34.657-1.073 1.293-2.146 1.928-3.198v-.022c.416-.723.066-.766-.591-1.117a25.87 25.87 0 0 0-1.753-.854 21.435 21.435 0 0 0-3.702-1.183c-.11-.022-.241-.044-.372-.066Z" fill="#fcc953" fill-rule="evenodd" data-name="Path 235"/><path d="M991.079 2147.517c-.022-.022-.044-.043-.066-.043l-.11-.11a1.177 1.177 0 0 1-.219-.438c-.306-.942-.197-1.972-.262-2.936-.066-1.117-.132-2.256.043-3.351.263-1.84.438-3.637.898-5.433.329-1.336.767-2.694 1.643-3.746.439-.548 1.008-1.008 1.665-1.249.022 0 .044-.022.044-.022 1.14-.394 2.541-.328 3.768 0 .394.11.789.241 1.14.395.372.153.722.372.985.657.219.24.35.504.416.789.153.657-.044 1.38-.197 2.037a78.157 78.157 0 0 0-1.972 10.997c-.022.175.044.416.22.394.109-.022.153-.153.175-.24a83.288 83.288 0 0 0 1.665-9.574c.131-1.095.24-2.212.679-3.22.087-.197.197-.35.306-.482.417-.46.986-.482 1.665-.197.044.022.088.044.154.066.591.284 1.139.481 1.752.722 1.249.482 2.454 1.205 3.22 2.322.964 1.38 1.118 2.98.964 4.557-.087.854-.263 1.709-.438 2.52-.35 1.51-.81 2.978-1.424 4.424-.285.701-.613 1.38-.964 2.06-.175.328-.35.657-.547.985-.176.285-.285.68-.548.898a.517.517 0 0 1-.438.132c-.175-.044-.329-.197-.504-.329-.438-.328-1.008-.547-1.49-.767a19.687 19.687 0 0 0-3.505-1.27 19.911 19.911 0 0 0-4.118-.635 16.883 16.883 0 0 0-2.103 0c-.657.044-1.183.153-1.818.284-.22-.043-.482-.065-.68-.197Z" fill="#855f47" fill-rule="evenodd" data-name="Path 236"/></g><g data-name="Group 74"><path d="M975.109 1994.524c-.372-1.14-1.468-1.753-2.629-1.534-.482.088-.92.307-1.292.614-.066-.11-.11-.22-.197-.329-.658-.898-1.95-.92-2.848-.372-1.008.613-1.446 1.686-1.577 2.826-.132 1.204 0 2.475.11 3.68.065.723.152 1.424.262 2.147.088.482.131.964.24 1.446.067.306.089.854.417 1.007.197.11.416.044.635-.044 1.271-.482 2.3-1.533 3.243-2.497a24.65 24.65 0 0 0 2.847-3.549c.614-.986 1.183-2.19.789-3.395Z" fill="#fa9887" fill-rule="evenodd" data-name="Path 237"/><path d="M930.289 2049.815c.197-2.08-.022-4.14-.154-6.243l-.197-3.352c-.044-.854-.044-1.774-.35-2.563-.657-1.687-2.65-1.971-3.9-.723-.482.482-.766 1.118-.898 1.797-.065-.044-.131-.11-.219-.154-1.227-.876-2.826-.657-3.549.745-.766 1.468-.043 3.023.81 4.272.987 1.424 2.104 2.76 3.287 4.03a34.903 34.903 0 0 0 2.037 1.994c.635.57 2.695 3.155 3.023 1.205.022-.35.066-.68.11-1.008Z" fill="#fa9887" fill-rule="evenodd" data-name="Path 238"/><path d="M1009.874 2037.745c.066 1.008.132 2.06.373 3.045.11.46.328 2.234.898 2.388.153.043.328-.022.482-.088 1.095-.46 2.147-1.008 3.067-1.774 1.051-.877 1.971-1.972 2.563-3.22.504-1.074.438-2.63-.877-3.067-.547-.176-1.226-.066-1.664.306-.088.088-.198.175-.285.285-.175-.657-.482-1.249-.986-1.643-.876-.701-2.19-.832-2.98.11-.81.942-.656 2.497-.59 3.658Z" fill="#fa9887" fill-rule="evenodd" data-name="Path 239"/></g></g></svg>