<svg xmlns="http://www.w3.org/2000/svg" width="76.117" height="97.033" viewBox="196.233 38.983 76.117 97.033"><g data-name="logo"><g data-name="Group 261"><path d="M208.872 111.276c-.673.758-.947 1.747-1.263 2.651-.357 1.01-.736 2.02-1.094 3.03l-2.272 6.249c-.736 2.02-.484 1.283-1.2 3.303-.357 1.01-.736 2.02-1.093 3.03-.337.904-.82 1.83-.8 2.777.021.484 1.41.568 1.705.21.63-.778.841-1.83 1.157-2.735l1.073-3.03c.736-2.082.505-1.41 1.241-3.492.715-2.02 1.43-4.04 2.146-6.08l1.073-3.03c.316-.884.694-1.81.631-2.735-.02-.316-1.115-.358-1.304-.148Z" fill="#2c2870" fill-rule="evenodd" data-name="Path 1226"/><path d="M236.96 126.909c-.232-.968-.863.273-1.094-.695-.463-1.914-.926-3.85-1.368-5.764-.463-1.915-.926-3.85-1.388-5.765-.442-1.789-.59-3.766-1.873-5.323-.147-.169-.694-.042-.736.168-.463 1.957.252 3.808.652 5.618.42 1.935.841 3.871 1.283 5.786.442 1.935.863 3.85 1.305 5.785.21.968.841-.273 1.052.695.189.883.252 1.83.757 2.63.295.463 1.873.105 1.936-.442.063-.926-.295-1.81-.526-2.693Z" fill="#322274" fill-rule="evenodd" data-name="Path 1227"/><path d="M270.56 113.97c-3.156-2.967-3.998-3.809-7.154-6.775-1.535-1.431-3.05-2.883-4.607-4.313-1.41-1.305-3.072-2.883-4.881-3.64-.148-.063-.674.547-.632.652.842 1.725 2.694 3.05 4.061 4.376a914.093 914.093 0 0 0 4.692 4.46c3.093 2.925 4.082 3.767 7.174 6.691.59.547 1.915-.926 1.347-1.452Z" fill="#2c2870" fill-rule="evenodd" data-name="Path 1228"/></g><path d="M260.692 93.014c.968-3.892-1.893-6.69-5.344-8.31-8.352-3.935-20.05-1.915-28.803-.232-9.51 1.851-18.725 5.533-26.131 11.93-4.713 4.06-6.46 12.834.379 15.61 2.167.884 4.544 1.01 6.88 1.095 8.773.294 17.21-.042 25.731-1.978 7.658-1.746 16.748-4.692 22.618-10.099 2.42-2.23 3.829-4.797 4.65-7.953.02-.042.02-.042.02-.063Z" fill="#f4b331" fill-rule="evenodd" data-name="Path 1229"/><path d="M209.924 103.197c2.735.673 5.954.505 8.353.316 8.794-.652 17.462-2.82 25.542-6.333 3.997-1.746 7.89-4.629 7.153-9.447-1.325-8.479-8.1-15.8-16.41-18.01-8.311-2.188-17.674.716-23.481 7.048-3.577 3.914-5.744 9.026-6.333 14.286-.337 3.093-.968 8.122 1.6 10.394.967.863 2.23 1.41 3.576 1.746Z" fill="#fcc953" fill-rule="evenodd" data-name="Path 1230"/><g data-name="Group 263"><path d="M224.147 55.48c.063-.232.105-.464.084-.695-.084-.905-.884-1.494-1.62-1.704-.295-.084-.695-.063-1.073-.042-.337.02-.779.042-.926-.042-.063-.042-.168-.337-.19-.442-.02-.063-.041-.105-.041-.147-.274-.737-.463-1.557-.632-2.336l-.063-.273c-.19-.8-.336-1.62-.484-2.42-.147-.778-.294-1.578-.463-2.356-.042-.148-.189-.253-.336-.21-.147.041-.253.189-.21.336.168.778.315 1.578.462 2.335.148.8.316 1.641.484 2.44l.063.274c.169.8.358 1.62.653 2.42.02.042.02.084.042.126.084.253.21.61.462.758.295.168.737.126 1.22.105.337-.021.695-.042.884.02.547.148 1.158.59 1.22 1.221.022.126 0 .253-.02.379-.484-.19-1.073-.253-1.768-.19a7.13 7.13 0 0 0-3.114.99c-.147.084-.63.357-.652.841-.02.568.568.884 1.136.947a5.786 5.786 0 0 0 3.577-.82c.463-.295.842-.632 1.073-1.01.4.252.59.61.59 1.03 0 .337-.106.674-.295.99a4.084 4.084 0 0 0-1.41-.4c-1.03-.064-2.04.23-2.945.483-.253.084-.548.169-.821.358-.316.231-.484.59-.442.947.042.315.274.589.61.757.274.126.568.147.8.168 1.22.064 2.209-.084 3.03-.483.462-.232.946-.61 1.325-1.052.231.189.42.42.526.673.19.42.21.841.063 1.262-.021.021-.021.063-.042.084-1.494-.736-4.166-.063-5.134.547-.147.106-.61.4-.652.884-.02.358.19.715.547.905.274.147.59.19.884.19 1.073.062 2.062-.106 2.882-.464.547-.231 1.2-.673 1.641-1.262.19.21.295.463.316.778.042.695-.442 1.284-.905 1.62a4.21 4.21 0 0 1-.8.421c-.61.274-1.24.526-1.051 1.725.063.442.21.863.336 1.284.127.358.232.673.295 1.03a.253.253 0 0 0 .316.211.279.279 0 0 0 .21-.315c-.063-.38-.19-.737-.316-1.094-.126-.4-.252-.779-.315-1.179-.105-.778.126-.883.736-1.136.274-.126.59-.252.905-.484.757-.547 1.178-1.346 1.115-2.125-.042-.505-.232-.925-.568-1.241.042-.063.063-.147.084-.21a2.18 2.18 0 0 0-.063-1.705 2.46 2.46 0 0 0-.715-.883c.231-.4.4-.863.378-1.305.021-.442-.147-1.073-.883-1.515Zm-1.62 1.03a5.286 5.286 0 0 1-3.24.737c-.274-.021-.653-.169-.632-.358 0-.105.126-.231.358-.379a6.519 6.519 0 0 1 1.957-.757c.315-.063.61-.126.925-.147.59-.042 1.073 0 1.494.147a2.883 2.883 0 0 1-.862.757Zm.252 2.82c-.736.357-1.641.484-2.756.42-.21-.02-.421-.02-.61-.105-.148-.063-.274-.19-.295-.315-.02-.148.105-.316.232-.421.168-.126.4-.19.63-.274.38-.105.758-.231 1.158-.315a5.101 5.101 0 0 1 1.599-.148c.4.021.8.127 1.136.295a3.807 3.807 0 0 1-1.094.863Zm.42 3.008c-.757.316-1.64.463-2.63.421-.21-.021-.462-.021-.651-.126-.127-.063-.274-.232-.253-.379.021-.147.147-.294.4-.442.358-.231.968-.463 1.662-.61.989-.21 2.125-.273 2.903.084-.4.463-.967.842-1.43 1.052Z" fill="#322274" fill-rule="evenodd" data-name="Path 1231"/><g data-name="Group 262"><path d="M220.928 45.107c-.21-.4-.505-.715-.863-.947-.21-.105-.4-.19-.61-.294a2.498 2.498 0 0 0-1.305-.043c-.336.064-.61.19-.862.4-.295.169-.505.4-.695.673-.189.295-.315.61-.336.947a1.968 1.968 0 0 0 0 .99c.084.21.147.399.231.61.21.399.505.715.863.946.21.105.4.19.61.295.442.126.863.147 1.304.042.337-.063.61-.19.863-.4.295-.168.505-.4.694-.673.19-.295.316-.61.337-.947a1.968 1.968 0 0 0 0-.989c-.084-.21-.168-.42-.231-.61Z" fill="#fd5c37" fill-rule="evenodd" data-name="Path 1232"/><path d="M226.293 68.04c-.253-.252-.568-.505-.863-.568-.21-.042-.42-.105-.631-.147-.442-.063-.926-.021-1.41.084-.357.063-.673.19-.968.357-.315.148-.589.316-.8.548-.525.483-1.051 1.767-.357 2.314.19.147.442.19.673.21 1.326.084 2.61-.4 3.85-.862.358-.127.758-.295.905-.653.127-.294.042-.63-.147-.904-.02-.127-.126-.253-.252-.379Z" fill="#fd5c37" fill-rule="evenodd" data-name="Path 1233"/></g></g><g data-name="Group 264"><path d="M201.508 128.592c-1.999.316-3.408 2.293-3.093 4.271.316 1.999 2.272 3.408 4.271 3.093 1.999-.316 3.409-2.293 3.093-4.271-.316-1.999-2.272-3.409-4.271-3.093Z" fill="#fd5c37" fill-rule="evenodd" data-name="Path 1234"/><path d="M234.561 125.857c-1.956.442-3.26 2.525-2.798 4.481.463 1.978 2.504 3.24 4.481 2.799 1.957-.442 3.262-2.525 2.799-4.482-.463-1.978-2.504-3.24-4.482-2.798Z" fill="#fd5c37" fill-rule="evenodd" data-name="Path 1235"/><path d="M272.243 113.212c-.168-.673-.463-1.283-.947-1.788a4.057 4.057 0 0 0-3.85-1.2c-1.368.316-2.504 1.347-2.903 2.693a4.12 4.12 0 0 0-.085 2.083c.148.61.4 1.137.779 1.62.084.127.168.253.273.38.337.399.758.693 1.242.883.294.19.631.294.989.315.505.127 1.01.127 1.536 0 .315-.126.63-.231.946-.357l.82-.568c.4-.337.695-.758.885-1.242.252-.442.378-.925.4-1.451a4.21 4.21 0 0 0-.085-1.368Z" fill="#fd5c37" fill-rule="evenodd" data-name="Path 1236"/></g><g data-name="Group 265"><path d="M200.435 101.283c-1.915.42-1.241 3.408.694 2.987 1.894-.442 1.22-3.43-.694-2.987Z" fill="#fff" fill-rule="evenodd" data-name="Path 1237"/><path d="M207.083 106.669s0-.021-.02-.021c-.21-.484-.779-.8-1.305-.82a1.515 1.515 0 0 0-1.326.693 1.542 1.542 0 0 0-.063 1.536c.232.463.758.82 1.305.82h.02c.274 0 .506-.041.758-.167.232-.127.421-.295.568-.526.148-.232.232-.484.232-.758 0-.273-.042-.505-.169-.757Z" fill="#fff" fill-rule="evenodd" data-name="Path 1238"/><path d="M214.658 107.153a1.512 1.512 0 0 0-.526-.568 1.625 1.625 0 0 0-.779-.253 1.54 1.54 0 0 0-.757.168c-.232.127-.42.295-.568.526a1.625 1.625 0 0 0-.253.779c-.02.336.063.526.19.82.084.106.147.21.231.316a.97.97 0 0 0 .484.337.898.898 0 0 0 .379.126c.19.042.4.042.589 0 .252-.063.484-.19.694-.358a.969.969 0 0 0 .337-.484c.105-.19.147-.378.147-.589 0-.315 0-.526-.168-.82Z" fill="#fff" fill-rule="evenodd" data-name="Path 1239"/><path d="M220.38 106.143c-1.956.442-1.262 3.492.695 3.05 1.978-.441 1.283-3.492-.694-3.05Z" fill="#fff" fill-rule="evenodd" data-name="Path 1240"/><path d="M228.186 105.322c-1.893.421-1.22 3.367.673 2.946 1.915-.421 1.242-3.367-.673-2.946Z" fill="#fff" fill-rule="evenodd" data-name="Path 1241"/><path d="M235.908 103.618c-1.873.42-1.22 3.345.673 2.924 1.873-.441 1.22-3.345-.673-2.924Z" fill="#fff" fill-rule="evenodd" data-name="Path 1242"/><path d="M244.744 100.778c-.357-.4-.925-.568-1.451-.463a1.534 1.534 0 0 0-1.115 1.03 1.51 1.51 0 0 0 .378 1.537c.358.378.905.568 1.41.441.505-.126.926-.505 1.073-.988 0-.022.021-.043.021-.085a1.51 1.51 0 0 0-.316-1.472Z" fill="#fff" fill-rule="evenodd" data-name="Path 1243"/><path d="M251.056 96.738c-.357-.21-.757-.295-1.157-.21a1.489 1.489 0 0 0-.926.652c-.126.168-.189.358-.21.568-.042.19-.042.4 0 .589.105.379.316.736.652.926.358.21.758.294 1.157.21.38-.084.737-.336.926-.652a1.1 1.1 0 0 0 .21-.568c.043-.19.043-.4 0-.59-.084-.357-.294-.736-.652-.925Z" fill="#fff" fill-rule="evenodd" data-name="Path 1244"/><path d="M256.295 90.805a1.435 1.435 0 0 0-1.136-.19 1.611 1.611 0 0 0-.926.653c-.126.168-.19.357-.21.547a1.39 1.39 0 0 0 0 .589c.105.358.315.715.652.926.337.21.736.294 1.136.189.358-.084.716-.337.926-.652.126-.169.19-.358.21-.547a1.39 1.39 0 0 0 0-.59c-.105-.378-.315-.736-.652-.925Z" fill="#fff" fill-rule="evenodd" data-name="Path 1245"/><path d="M253.413 85.84c-.232-.127-.484-.19-.737-.127a.999.999 0 0 0-.589.421c-.126.21-.19.505-.126.736a1 1 0 0 0 .42.59c.232.126.485.189.737.126a1 1 0 0 0 .59-.421c.125-.21.189-.505.125-.736-.063-.232-.189-.463-.42-.59Z" fill="#fff" fill-rule="evenodd" data-name="Path 1246"/><path d="M203.233 97.327c-.02 0-.02-.021-.042-.021-.4-.231-.905-.147-1.178.253 0 .02-.021.02-.021.042-.19.252-.19.63-.042.904 0 0 0 .021.02.021a.828.828 0 0 0 .422.379c.168.084.378.126.568.063.378-.105.673-.42.694-.841v-.021c0-.295-.147-.632-.42-.779Z" fill="#fff" fill-rule="evenodd" data-name="Path 1247"/></g><g data-name="Group 266"><path d="m214.7 45.97-1.852.042c-.084 0-.147.063-.126.147 0 .084.063.147.147.126l1.852-.042h.02c.064-.021.106-.063.106-.147-.021-.063-.084-.127-.147-.127Z" fill="#26282c" fill-rule="evenodd" data-name="Path 1248"/><path d="M213.606 41.572c-.063-.042-.148-.042-.19.021-.042.063-.042.148.021.19l2.462 1.998c.042.021.084.042.126.021a.16.16 0 0 0 .084-.042c.043-.063.043-.147-.02-.189l-2.483-1.999Z" fill="#26282c" fill-rule="evenodd" data-name="Path 1249"/><path d="M217.246 39.005c-.085.021-.127.085-.106.169l.632 3.282c.02.084.084.126.168.105.063-.021.126-.084.105-.168l-.631-3.282c-.021-.085-.105-.127-.168-.106Z" fill="#26282c" fill-rule="evenodd" data-name="Path 1250"/><path d="M222.148 40.689c-.063-.043-.147-.043-.19.02l-1.367 1.831c-.042.063-.042.147.021.19.042.02.084.041.105.02a.16.16 0 0 0 .084-.042l1.368-1.83c.063-.063.042-.147-.021-.19Z" fill="#26282c" fill-rule="evenodd" data-name="Path 1251"/><path d="M224.062 44.181c-.02-.063-.105-.105-.189-.063l-2.04.926c-.064.042-.106.105-.064.19.021.062.084.083.147.083h.021l2.041-.926c.084-.063.126-.147.084-.21Z" fill="#26282c" fill-rule="evenodd" data-name="Path 1252"/></g></g></svg>