<svg xmlns="http://www.w3.org/2000/svg" width="25.017" height="19.1"><path d="M24.023 11.28c.54 0 .977-.438.977-.977V3.906A3.91 3.91 0 0 0 21.094 0H3.906A3.91 3.91 0 0 0 0 3.906v11.28a3.91 3.91 0 0 0 3.906 3.906h17.188A3.91 3.91 0 0 0 25 15.186a.977.977 0 1 0-1.953 0 1.955 1.955 0 0 1-1.953 1.953H3.906a1.955 1.955 0 0 1-1.953-1.953V4.113l8.484 5.276a3.9 3.9 0 0 0 2.063.593 3.9 3.9 0 0 0 2.063-.593l8.484-5.276v6.19c0 .54.437.976.976.976ZM13.531 7.73a1.94 1.94 0 0 1-2.062 0L2.768 2.32c.32-.23.714-.367 1.138-.367h17.188c.424 0 .817.136 1.138.367l-8.7 5.41Z" fill="#fd5c37" fill-rule="evenodd" data-name="Path 435"/></svg>