<svg xmlns="http://www.w3.org/2000/svg" width="158.167" height="146.017" viewBox="1680.983 2118.983 158.167 146.017"><g data-name="moon"><path d="M1795.022 2257.2c21.319-9.505 39.495-27.264 43.32-50.476 5.68-34.383-19.767-63.578-49.151-77.096-15.071-6.93-32.376-11.815-49.113-10.376-16.32 1.401-30.331 10.376-40.442 22.985-15.904 19.804-24.689 56.8-13.821 80.845 4.81 10.603 13.102 19.388 22.644 26.052 18.29 12.8 41.54 18.252 63.616 14.882 7.725-1.212 15.525-3.522 22.947-6.816Z" fill="#feffff" fill-rule="evenodd" data-name="Path 800"/><g data-name="Group 248"><path d="M1733.3 2204.528c3.294-6.514-4.317-14.73-11.057-13.897-6.438.795-14.238 8.52-13.064 15.411 0 1.931.72 3.749 2.575 5.15 5.793 4.43 18.516-.682 21.546-6.664Zm-18.252.681c.227-1.628 1.515-3.446 2.802-4.582 2.234-2.007 5.264-2.84 8.255-3.029.833-.038 1.666-.038 2.423.227 4.81 1.704-.643 8.104-3.105 9.277-2.234 1.06-5.49 2.083-8.027 1.364-1.97-.606-2.537-1.856-2.348-3.257Z" fill="#e1dfe8" fill-rule="evenodd" data-name="Path 801"/><path d="M1749.28 2241.069c.946-.985 1.325-2.234.87-3.787-.454-1.59-1.969-2.65-3.446-3.408-2.272-1.174-4.809-1.931-7.308-1.59-3.37.492-5.301 2.726-5.112 5.907.303 6.02 11.474 6.626 14.995 2.878Zm-2.386-3.067c.189.378.303.719.378 1.022-.265.87-.681.984-1.78 1.174a1.847 1.847 0 0 0-.264-.114c-1.78-.265-5.794-.303-5.415-3.03.492-4.127 6.058-1.135 7.08.948Z" fill="#e1dfe8" fill-rule="evenodd" data-name="Path 802"/><path d="M1768.856 2239.743c.568.72 1.363 1.25 2.197 1.477.265.227.605.455.946.644 2.461 1.439 5.377.34 7.611-1.098 2.575-1.666 3.636-4.014 2.954-7.043-.568-2.5-2.234-5.491-4.885-6.173-2.575-.681-5.225.985-7.08 2.613-.948.833-1.478 1.742-1.705 2.764-1.439 1.97-1.628 4.772-.038 6.816Zm7.12-1.4c-.607.113-1.099.226-1.553.113a.93.93 0 0 0-.644-.417c-.114-.113-.19-.265-.265-.454-.379-.909-.341-2.613.038-3.37.53-1.098 3.029-2.689 4.392-2.537 1.326.151 1.742 1.893 1.628 2.915-.075.758-.265 1.44-.643 2.045-.795.833-1.931 1.477-2.954 1.704Zm-4.356-4.204c-.227 1.023-.189 2.083.038 3.18-.265-.378-.53-.832-.681-1.287.076-.643.303-1.287.643-1.893Z" fill="#e1dfe8" fill-rule="evenodd" data-name="Path 803"/><path d="M1771.318 2187.64c0-.683-.152-1.288-.417-1.894-.265-.833-.682-1.628-1.363-2.31-2.5-2.613-8.104-4.165-11.474-2.613-2.953 1.363-3.749 4.582-2.272 7.346 1.704 3.219 5.87 5.49 9.467 5.34 3.105-.19 6.096-2.613 6.059-5.87Zm-9.921.794c-.19-.492-.228-1.06 0-1.704 1.59-4.96 10.11-1.969 6.626 2.5-1.514 1.969-5.756 1.4-6.626-.796Z" fill="#e1dfe8" fill-rule="evenodd" data-name="Path 804"/><path d="M1752.157 2160.867c6.475-9.542-3.143-20.03-12.988-20.599-9.77-.568-16.926 7.611-16.396 17.116.151 2.878 1.211 5.755 3.218 7.8 2.878 2.916 7.384 3.787 11.474 3.219 5.263-.72 11.663-3.03 14.692-7.536Zm-6.892 1.97c-3.483 2.044-11.284 4.77-15.07 1.817-3.825-2.991-1.326-11.17 1.173-14.086 3.408-3.976 9.467-5.377 14.276-3.332 4.317 1.817 7.081 8.747 3.37 12.685-.984 1.06-2.272 2.045-3.749 2.916Z" fill="#e1dfe8" fill-rule="evenodd" data-name="Path 805"/><path d="M1807.897 2164.92c2.688-4.62-1.78-8.862-6.438-9.922-2.764-.644-5.074.152-7.005 2.159-1.704 1.78-3.787 4.24-3.673 6.891.265 5.794 8.028 7.65 12.382 5.529.72-.341 1.401-.833 2.083-1.401 1.136-.947 2.083-2.045 2.65-3.257Zm-4.204 2.006c-.037.038-.113.076-.189.114-.227.151-.492.265-.72.416-.795.379-1.628.644-2.46.682-1.061.076-3.03.454-3.9-.303-.455-.417-.72-1.022-.834-1.628-.34-1.856.682-3.787 2.196-4.923 1.515-1.136 3.446-1.553 5.302-1.666.681-.038 1.4-.038 2.006.265 2.083.984 1.288 3.976.266 5.377-.19.265-.417.53-.682.757-.265.379-.606.644-.985.91Z" fill="#e1dfe8" fill-rule="evenodd" data-name="Path 806"/><path d="M1810.66 2208.163c2.16-2.5 4.734-6.892 4.015-10.376-.91-4.279-5.415-8.179-9.164-9.996-8.103-3.863-15.752 1.893-18.971 9.201-3.673 8.255 4.279 15.942 12.306 15.336.076 0 .19-.038.266-.038 4.316.379 8.898-1.022 11.549-4.127Zm-17.493-9.126c.416-1.136.984-2.234 1.78-3.18 1.665-2.084 4.05-3.522 6.664-3.977 1.439-.265 2.953-.227 4.279.34 9.277 3.825 3.597 15.98-4.355 17.003-4.582.606-8.747-.757-9.012-5.945a10.605 10.605 0 0 1 .644-4.241Z" fill="#e1dfe8" fill-rule="evenodd" data-name="Path 807"/></g></g></svg>