<svg xmlns="http://www.w3.org/2000/svg" width="146.2" height="195.533" viewBox="1310.533 1987.3 146.2 195.533"><g data-name="penguin2"><g data-name="Group 50"><path d="M1363.51 2081.374c-9.72 8.734-23.21 14.14-37.116 14.868-3.742.208-7.667.026-10.942-1.56-3.275-1.611-5.64-5.016-4.704-8.187.805-2.703 3.768-4.575 6.835-5.328 3.067-.754 6.316-.65 9.513-.806 12.71-.598 25.056-5.484 33.971-13.438 1.352 4.939 2.391 9.41 2.443 14.451Z" fill="#fcc953" fill-rule="evenodd" data-name="Path 170"/><path d="M1412.374 2087.04c8.395 4.03 17.57 6.784 27.031 8.058 3.015.416 6.108.676 9.097.182 6.576-1.066 11.228-6.732 5.9-11.826-2.131-2.028-5.25-3.067-8.343-3.561-3.093-.468-6.264-.442-9.409-.676-11.618-.858-22.249-5.744-30.826-12.58-.572 2.418-.598 5.017-.78 7.46-.26 3.509-1.429 8.135 2.47 10.344a61.896 61.896 0 0 0 4.86 2.6Z" fill="#fcc953" fill-rule="evenodd" data-name="Path 171"/><path d="M1430.594 2156.282c-2.989-8.551-5.562-17.18-6.914-26.252-1.403-9.564-2.78-19.155-5.224-28.512-3.197-12.268-6.576-22.795-9.773-35.089-15.257 5.459-32.853 3.873-46.914-4.158.39.208-2.73 12.84-2.963 14.139a284.641 284.641 0 0 0-2.236 14.867c-1.17 9.123-2.833 18.532-2.78 27.707.051 10.163.91 20.325 2.573 30.332.65 3.95 1.767 7.901 2.313 11.878.52 3.795.572 7.642 1.533 11.41.884 3.51 2.651 6.992 5.718 8.916 3.067 1.923 7.59 1.793 9.877-1.014 1.404-1.742 1.742-4.133 1.404-6.342-.572-3.795-1.456-6.524-1.43-10.397.052-4.73.858-9.123 3.535-13.1.364-.545.78-1.065 1.248-1.533 3.898-4.107 10.63-5.744 15.984-4.418 12.32 3.04 15.05 19.155 22.197 27.94 1.923 2.366 4.133 4.679 7.018 5.744 3.924 1.456 10.084.208 10.812-4.496.806-5.302-4.262-12.762-5.978-17.622Z" fill="#fcc953" fill-rule="evenodd" data-name="Path 172"/></g><g data-name="Group 51"><path d="M1342.535 2077.762c.78 2.417 1.56 4.808 2.34 7.225.39 1.17.753 2.365 1.143 3.535.39 1.196.91 2.443 1.144 3.717.104.624-.78 1.065-1.092.442-.546-1.092-.858-2.34-1.248-3.51a608.039 608.039 0 0 1-1.247-3.69 815.235 815.235 0 0 0-2.47-7.356c-.311-.91 1.144-1.273 1.43-.363Z" fill="#fff6e9" fill-rule="evenodd" data-name="Path 173"/><path d="M1338.844 2077.684c.156-.286.52-.286.728-.104.546.468.572 1.091.728 1.741.156.728.338 1.456.52 2.157a58.046 58.046 0 0 0 1.221 3.977 72.961 72.961 0 0 0 1.534 3.95c.286.625.572 1.274.831 1.898.26.65.416 1.378.676 2.002.156.363-.312.65-.546.311-.441-.65-.987-1.221-1.403-1.923a24.568 24.568 0 0 1-.936-1.845 54.421 54.421 0 0 1-1.637-4.029 57.77 57.77 0 0 1-1.3-4.263 28.492 28.492 0 0 1-.468-2.027c-.156-.65-.312-1.196.052-1.845Z" fill="#fff6e9" fill-rule="evenodd" data-name="Path 174"/><path d="M1337.337 2078.282c.13 2.703 1.013 5.562 1.975 8.083.468 1.273 1.04 2.521 1.638 3.717.65 1.273 1.507 2.443 2.079 3.742.26.598-.468 1.274-.988.728-1.013-1.04-1.715-2.47-2.39-3.743a35.58 35.58 0 0 1-1.69-3.82 32.24 32.24 0 0 1-1.274-4.081c-.364-1.481-.546-2.989-.832-4.47-.234-1.066 1.43-1.274 1.482-.156Z" fill="#fff6e9" fill-rule="evenodd" data-name="Path 175"/><path d="M1429.866 2093.435a112.798 112.798 0 0 0 2.366-7.642c.337-1.222.675-2.47.987-3.717.312-1.247.494-2.65 1.118-3.82.26-.494.936-.208.936.26.052 1.247-.39 2.573-.676 3.768-.312 1.3-.65 2.6-.988 3.873-.702 2.573-1.481 5.12-2.261 7.667-.312.962-1.82.52-1.482-.39Z" fill="#fff6e9" fill-rule="evenodd" data-name="Path 176"/><path d="M1427.241 2091.173c.234-.598.468-1.195.676-1.793.494-1.3.936-2.6 1.404-3.925.441-1.3.883-2.625 1.3-3.95.389-1.248.675-2.6 1.247-3.77.234-.467 1.065-.233.987.287-.156 1.3-.623 2.599-.987 3.846l-1.248 4.133c-.416 1.325-.858 2.625-1.3 3.95-.207.65-.441 1.3-.675 1.976-.208.624-.286 1.014-.962 1.222-.234.077-.494-.078-.624-.26-.364-.65-.052-1.092.182-1.716Z" fill="#fff6e9" fill-rule="evenodd" data-name="Path 177"/><path d="M1423.914 2091.537c.884-2.573 1.794-5.12 2.677-7.693.442-1.222.884-2.444 1.326-3.691.364-.988.624-2.547 1.585-3.145.182-.104.364.026.416.182.364 1.014-.364 2.365-.65 3.327-.415 1.3-.831 2.573-1.247 3.872l-2.495 7.564c-.338 1.04-1.95.598-1.612-.416Z" fill="#fff6e9" fill-rule="evenodd" data-name="Path 178"/><path d="M1359.066 2164.287c2.755.884 5.718 1.014 8.577.806a25.458 25.458 0 0 0 4.184-.65c1.326-.312 2.756-1.013 4.133-1.04.416-.025.65.572.338.832-1.066.936-2.781 1.248-4.107 1.586a31.912 31.912 0 0 1-4.418.701c-3.093.26-6.108-.13-9.175-.597-1.066-.182-.598-1.976.468-1.638Z" fill="#fff6e9" fill-rule="evenodd" data-name="Path 179"/><path d="M1359.066 2161.974c2.729.598 5.51.832 8.317.702a37.223 37.223 0 0 0 4.133-.468c1.377-.26 2.729-.702 4.106-.91.702-.104 1.222.858.494 1.248-1.274.65-2.807.961-4.21 1.221-1.456.26-2.912.442-4.393.494-2.963.156-5.952-.13-8.863-.78-1.014-.208-.598-1.741.416-1.507Z" fill="#fff6e9" fill-rule="evenodd" data-name="Path 180"/><path d="M1358.728 2159.167c2.885.416 5.77.676 8.68.624a48.08 48.08 0 0 0 4.341-.286c1.404-.156 2.86-.546 4.29-.494.57.026.857.884.285 1.144-1.352.65-2.937.805-4.393.987a49.797 49.797 0 0 1-4.418.364c-3.015.078-6.082-.104-9.071-.624-.91-.182-.676-1.845.286-1.715Z" fill="#fff6e9" fill-rule="evenodd" data-name="Path 181"/><path d="M1430.854 2155.294s0 .026 0 0c-.026.026-.026 0 0 0Z" fill="#eae591" fill-rule="evenodd" data-name="Path 182"/><path d="M1413.128 2163.586c6.42 0 12.71-2.314 17.726-6.654.806-.676 1.897.52 1.092 1.221-5.277 4.6-12.06 7.2-18.87 7.018-.962-.026-.91-1.585.052-1.585Z" fill="#fff6e9" fill-rule="evenodd" data-name="Path 183"/><path d="M1412.452 2161.194c3.223-.286 6.368-1.065 9.435-2.209a42.314 42.314 0 0 0 4.445-2.001c.675-.364 1.377-.728 2.053-1.092.702-.39 1.403-.91 2.183-1.066.286-.052.572.286.39.572-.442.65-1.118 1.066-1.767 1.482-.702.442-1.404.884-2.132 1.273-1.507.806-3.067 1.482-4.626 2.106-3.171 1.221-6.498 2.053-9.825 2.573-1.092.104-1.274-1.56-.156-1.638Z" fill="#fff6e9" fill-rule="evenodd" data-name="Path 184"/><path d="M1411.23 2158.595c3.275-.65 6.498-1.274 9.695-2.261 1.534-.468 3.067-1.014 4.6-1.56 1.352-.494 2.626-1.091 3.692-2.157.26-.286.78.026.65.416-.494 1.403-1.664 2.157-2.938 2.729-1.56.702-3.197 1.222-4.834 1.741-3.43 1.066-6.992 2.028-10.553 2.47-.857.13-1.17-1.196-.312-1.378Z" fill="#fff6e9" fill-rule="evenodd" data-name="Path 185"/><path d="M1390.36 2144.638c-4.471-18.714-6.213-38.156-4.991-57.39.156-2.625.39-5.276.65-7.9.26-2.678.676-5.355.805-8.058.027-.676-.987-.65-1.117-.052-.598 2.365-.858 4.808-1.144 7.225-.286 2.418-.494 4.86-.675 7.278-.338 4.834-.52 9.669-.52 14.53 0 9.668.701 19.31 2.131 28.876a199.747 199.747 0 0 0 3.145 16.088c.26 1.17 1.975.546 1.715-.597Z" fill="#fff6e9" fill-rule="evenodd" data-name="Path 186"/></g><path d="M1339.286 2047.612c1.352 4.834 3.639 9.382 6.784 13.281 2.885 3.561 6.602 6.524 10.526 8.915 8.292 5.017 17.909 7.616 27.5 8.5 6.757.623 13.619.311 20.299-.806 3.17-.546 6.42-1.17 9.487-2.158 2.729-.883 5.094-2.495 7.381-4.184 7.486-5.536 13.23-13.36 16.297-22.145 3.119-8.94 3.17-18.74.312-27.785-2.86-9.097-8.525-17.258-16.193-22.976-8.785-6.55-19.753-9.513-30.54-10.579-10.942-1.065-22.353.156-32.177 5.355-4.263 2.26-8.214 5.224-11.437 8.863-3.43 3.872-5.9 8.395-7.46 13.333-1.663 5.25-2.338 10.787-2.52 16.27-.13 5.407.286 10.891 1.741 16.116Zm.13-23.133c.728-5.406 2.157-10.786 4.783-15.569 4.626-8.369 12.761-14.399 21.676-17.466 10.527-3.639 22.145-3.587 32.984-1.481 10.084 1.975 19.883 6.134 27.187 13.593 6.523 6.68 10.942 15.465 12.45 24.718 1.481 9.175-.182 18.636-4.445 26.85-4.964 9.642-13.282 18.115-23.938 20.818-5.458 1.378-11.176 2.106-16.79 2.262-5.433.155-10.943-.156-16.297-1.118-8.993-1.612-17.83-4.99-24.9-10.943-3.43-2.885-6.42-6.445-8.577-10.396-2.573-4.705-3.873-10.033-4.445-15.335-.572-5.276-.39-10.683.312-15.933Z" fill="#c9c1cf" fill-rule="evenodd" data-name="Path 187"/><g data-name="Group 56"><path d="M1428.697 2047.898c-.156.65-.338 1.273-.546 1.897-.26.806-.52 1.585-.832 2.365-.13.312-.234.598-.364.91a42.41 42.41 0 0 1-1.013 2.235c-.182.39-.39.754-.598 1.144-.13.234-.234.442-.364.675-.39.676-.78 1.352-1.222 2.002-.208.312-.39.598-.597.91-.442.65-.91 1.3-1.404 1.923-.208.286-.442.546-.676.806-.494.571-.987 1.143-1.507 1.689-.234.26-.494.52-.754.754l-.104.104c-13.074 12.632-37.87 12.06-52.919 3.976-4.002-2.157-7.719-4.912-10.838-8.213-.494-.52-.962-1.04-1.404-1.585-.78-.936-1.533-1.898-2.209-2.911-.026-.026-.052-.052-.052-.078-.13-.208-.26-.39-.39-.598a28.637 28.637 0 0 1-1.585-2.73 1.214 1.214 0 0 1-.13-.26 29.254 29.254 0 0 1-1.43-3.196l-.234-.624c-.285-.806-.571-1.611-.805-2.443-.104-.416-.234-.806-.312-1.222 0-.026-.026-.078-.026-.104a42.804 42.804 0 0 1-.702-3.638c-.026-.286-.078-.546-.104-.832-.91-7.954.78-16.219 5.068-22.977 4.549-7.173 10.787-11.41 17.883-13.775 3.846-1.3 7.927-2.027 12.138-2.417.104-.026.233-.026.363-.026a77.743 77.743 0 0 1 4.913-.26c4.522-.104 9.149.338 13.62 1.377.467.104.961.234 1.429.364 4.756 1.274 9.279 3.223 13.333 5.926 3.405 2.262 6.446 5.069 8.942 8.422 6.55 8.707 8.109 20.065 5.432 30.41Z" fill="#38167a" fill-rule="evenodd" data-name="Path 188"/><path d="M1389.684 2039.606c-.91-4.132.052-8.629 2.547-12.034 2.495-3.405 6.472-5.692 10.682-6.082 7.122-.676 14.088 4.107 17.05 10.605 2.964 6.498 2.288 14.269-.701 20.767-2.001 4.314-5.017 8.24-9.071 10.76-5.172 3.223-11.514 3.873-17.596 4.21-6.55.365-13.282.417-19.442-1.766-5.718-2.028-10.708-5.979-14.165-10.943-3.457-4.964-5.433-10.942-5.77-16.998-.182-3.301.104-6.654 1.351-9.721 2.001-4.809 6.472-8.5 11.592-9.513 5.12-1.014 10.657.65 14.348 4.315 3.69 3.664 5.406 9.227 4.418 14.32a9.283 9.283 0 0 1-.858 2.47 72.66 72.66 0 0 0 5.823.234c-.078-.208-.182-.442-.208-.624Z" fill="#fff6e9" fill-rule="evenodd" data-name="Path 189"/><g data-name="Group 54"><g data-name="Group 52"><path d="M1419.314 2040.126c-8.577-.806-9.851 12.502-1.248 13.308 8.577.805 9.851-12.502 1.248-13.308Z" fill="#ff9786" fill-rule="evenodd" data-name="Path 190"/><path d="M1418.508 2040.984c-2.365-.078-4.47 1.611-5.016 3.898-.052.182.208.286.286.104.597-2.079 2.547-3.482 4.704-3.508.286-.026.338-.494.026-.494Z" fill="#fff" fill-rule="evenodd" data-name="Path 191"/></g><g data-name="Group 53"><path d="M1355.999 2034.122c-8.578-.806-9.851 12.502-1.248 13.308 8.551.831 9.825-12.476 1.248-13.308Z" fill="#ff9786" fill-rule="evenodd" data-name="Path 192"/><path d="M1355.193 2034.98c-2.365-.078-4.47 1.611-5.016 3.898-.052.182.208.286.286.104.597-2.079 2.547-3.482 4.704-3.508.286 0 .338-.468.026-.494Z" fill="#fff" fill-rule="evenodd" data-name="Path 193"/></g></g><path d="M1394.57 2040.152c-2.08 3.119-4.652 5.9-7.356 8.5a.736.736 0 0 1-1.195-.287 28.159 28.159 0 0 0-5.614-9.253c-.416-.441-.13-1.17.468-1.221 4.392-.442 9.044-.078 13.281 1.17.494.13.702.675.416 1.091Z" fill="#fcc953" fill-rule="evenodd" data-name="Path 194"/><g data-name="Group 55"><path d="m1365.278 2032.615-.728.155c.026.442.026.91-.026 1.378a.498.498 0 0 1-.546.442.498.498 0 0 1-.442-.546 8.146 8.146 0 0 0-.78-4.367c-.26-.52-.493-.857-.78-1.091-.311-.26-.701-.364-1.039-.286-.572.156-.91.884-1.092 1.481a10.298 10.298 0 0 0-.415 3.977c.026.26-.182.52-.442.52h-.078a.498.498 0 0 1-.442-.442c-.052-.546-.026-1.092 0-1.637a2.286 2.286 0 0 1-1.482-.286.502.502 0 0 1-.182-.676.454.454 0 0 1 .468-.234c.078 0 .13.026.208.052.286.156.624.208.962.156h.13c.052-.312.104-.624.182-.936-.052 0-.104-.026-.182-.052l-1.092-.546a.516.516 0 0 1-.234-.65.49.49 0 0 1 .494-.26c.052 0 .104.027.182.053l1.092.546c.104-.286.208-.546.338-.78h-.026a3.025 3.025 0 0 1-.962-1.378c-.078-.26.052-.546.312-.624.078-.026.13-.026.208-.026.182.026.364.13.416.338.13.364.337.676.65.91.233-.208.52-.364.805-.442.078-.026.156-.026.234-.052l-.182-1.04c-.052-.26.13-.52.416-.571h.13c.208.026.39.182.442.416l.208 1.247v.104a2.4 2.4 0 0 1 .65.39l.155.156 1.3-.936a.523.523 0 0 1 .338-.104c.13 0 .26.078.364.208a.493.493 0 0 1-.104.676l-1.274.91c.104.182.208.364.26.494.104.208.208.415.286.65a5.879 5.879 0 0 1 1.144-.572c.078-.026.156-.026.208-.026.182.026.338.13.415.311a.462.462 0 0 1-.285.624 6.193 6.193 0 0 0-1.17.598c.078.312.156.624.208.936l.624-.13h.156c.208.026.39.182.441.39 0 .26-.155.52-.441.572Z" fill="#26282c" fill-rule="evenodd" data-name="Path 195"/><path d="M1418.118 2036.643h.104a.498.498 0 0 1 0 .988l-1.04.104c-.077.546-.155 1.091-.311 1.611a.483.483 0 0 1-.52.364c-.026 0-.052 0-.078-.026a.482.482 0 0 1-.338-.598c.364-1.273.468-2.65.338-3.976-.078-.624-.26-1.404-.806-1.664-.286-.13-.702-.104-1.066.104-.337.182-.623.468-.961.936-.884 1.196-1.456 2.677-1.586 4.133a.498.498 0 0 1-.546.441.498.498 0 0 1-.441-.545c.052-.468.13-.936.233-1.378l-1.143-.312a.482.482 0 0 1-.338-.598.483.483 0 0 1 .52-.364c.026 0 .052 0 .078.026l1.17.312c.103-.285.233-.597.363-.883l-1.17-.598c-.233-.13-.337-.416-.207-.65a.49.49 0 0 1 .494-.26c.052 0 .13.026.181.052l1.222.624c.13-.208.26-.39.39-.572.052-.078.104-.156.182-.208l-.988-1.195a.496.496 0 0 1 .052-.702.466.466 0 0 1 .364-.104c.13 0 .234.078.338.182l.936 1.117c.13-.103.26-.207.416-.285.207-.104.39-.182.597-.234l-.416-1.3c-.077-.26.052-.546.312-.624.052-.026.13-.026.182-.026.182.026.364.156.416.338l.494 1.612c.104.026.208.052.312.104.156.078.286.156.39.26a11.16 11.16 0 0 0 1.17-.858.466.466 0 0 1 .363-.104c.13 0 .234.078.338.182a.496.496 0 0 1-.052.702c-.078.052-.702.571-1.221.883.13.286.234.598.312.962.233-.052.441-.156.753-.338.104-.052.182-.078.286-.052a.616.616 0 0 1 .39.234.502.502 0 0 1-.182.676c-.338.208-.702.39-1.144.468.026.415.026.805 0 1.221l.858-.182Z" fill="#26282c" fill-rule="evenodd" data-name="Path 196"/></g></g></g></svg>