<svg xmlns="http://www.w3.org/2000/svg" width="25.033" height="25.033" viewBox="-0.017 -0.017 25.033 25.033"><path d="M24.998 20.144a3.698 3.698 0 0 0-1.135-2.54c-1.363-1.316-2.506-2.075-3.596-2.39-1.501-.434-2.892-.04-4.133 1.173a.562.562 0 0 0-.005.005l-1.322 1.312c-.82-.461-2.416-1.476-4.162-3.221l-.128-.129c-1.734-1.733-2.755-3.338-3.22-4.162l1.31-1.32.006-.006c1.212-1.241 1.607-2.632 1.173-4.133-.315-1.09-1.074-2.232-2.39-3.596A3.698 3.698 0 0 0 4.857.002a3.699 3.699 0 0 0-2.617.949l-.028.025a.95.95 0 0 0-.038.036C.74 2.446-.012 4.452 0 6.816c.02 4.014 2.227 8.606 5.902 12.281l.01.01c.69.69 1.475 1.372 2.332 2.03a.977.977 0 0 0 1.188-1.55 21.837 21.837 0 0 1-2.148-1.87l-.01-.01C3.96 14.39 1.971 10.314 1.954 6.806c-.01-1.82.538-3.34 1.583-4.395l.007-.007a1.757 1.757 0 0 1 2.447.088c2.528 2.622 2.345 3.86 1.228 5.006l-1.81 1.824a.977.977 0 0 0-.2 1.085c.047.103 1.158 2.56 3.927 5.329l.129.128c2.768 2.768 5.225 3.88 5.328 3.926.368.164.8.085 1.085-.199l1.824-1.81c1.146-1.117 2.384-1.3 5.006 1.228.686.662.725 1.737.088 2.447l-.007.007c-1.047 1.037-2.55 1.584-4.35 1.584h-.045c-1.439-.007-3.105-.402-4.819-1.141a.977.977 0 1 0-.773 1.793c1.98.855 3.858 1.292 5.582 1.3l.055.001c2.34 0 4.327-.75 5.749-2.173a.946.946 0 0 0 .036-.038l.025-.029c.647-.72.983-1.649.949-2.616Z" fill="#fd5c37" fill-rule="evenodd" data-name="Path 438"/></svg>