<svg xmlns="http://www.w3.org/2000/svg" width="96.983" height="93.9" viewBox="438.233 5196.983 96.983 93.9"><path d="M528.286 5220.11c-4.197-6.244-9.724-11.668-16.223-15.558-15.864-9.672-36.64-10.388-52.198-.204-10.081 6.601-17.297 17.655-20.265 29.374-4.862 19.446 3.633 41.656 21.8 50.97 25.69 13.203 59.772 5.066 70.621-23.08 4.453-11.616 4.555-27.378-1.79-38.33-.615-1.126-1.28-2.149-1.945-3.173Zm-9.519 52.556c-5.015 4.964-11.258 8.444-18.167 9.928-2.815.614-5.68.921-8.597.972 5.424-1.74 10.593-4.145 15.096-6.908 11.208-6.756 20.368-16.99 23.234-29.528-.461 9.467-4.708 18.679-11.566 25.536Z" fill="#fd5c37" fill-rule="evenodd" data-name="planet1"/></svg>