<svg xmlns="http://www.w3.org/2000/svg" width="128.883" height="119.117" viewBox="739.933 5184.983 128.883 119.117"><g data-name="planet2"><path d="M832.542 5297.916c17.412-7.649 32.303-22.051 35.558-40.929 4.8-27.99-15.786-51.913-39.668-63.101-12.246-5.737-26.322-9.805-39.952-8.707-13.303 1.058-24.776 8.3-33.076 18.552-13.06 16.07-20.423 46.177-11.636 65.828 3.865 8.665 10.578 15.867 18.35 21.359 14.849 10.496 33.767 15.053 51.75 12.45a76.899 76.899 0 0 0 18.674-5.452Z" fill="#fcc953" fill-rule="evenodd" data-name="Path 251"/><g data-name="Group 115"><path d="M782.5 5254.668c2.726-5.289-3.458-12.002-8.95-11.35-5.249.61-11.636 6.875-10.741 12.49 0 1.586.57 3.05 2.075 4.19 4.719 3.62 15.134-.448 17.616-5.33Zm-14.89.488c.203-1.301 1.26-2.807 2.318-3.743 1.831-1.627 4.313-2.278 6.754-2.44.651-.041 1.343-.041 1.953.203 3.906 1.383-.57 6.631-2.563 7.526-1.831.855-4.516 1.668-6.55 1.058-1.628-.447-2.075-1.464-1.913-2.604Z" fill="#feaa22" fill-rule="evenodd" data-name="Path 252"/><path d="M795.356 5284.53c.773-.773 1.099-1.83.732-3.092-.366-1.301-1.586-2.156-2.766-2.766-1.83-.936-3.906-1.627-5.94-1.302-2.767.407-4.313 2.197-4.19 4.8.162 4.842 9.276 5.371 12.164 2.36Zm-1.953-2.481c.163.325.244.57.285.813-.203.692-.57.814-1.424.936-.081-.04-.122-.081-.203-.081-1.424-.244-4.72-.285-4.394-2.523.407-3.336 4.923-.854 5.736.855Z" fill="#feaa22" fill-rule="evenodd" data-name="Path 253"/><path d="M811.304 5283.554c.448.61 1.099 1.017 1.79 1.22.245.204.489.367.773.53 1.994 1.18 4.394.284 6.184-.855 2.116-1.342 2.97-3.255 2.442-5.736-.448-2.035-1.79-4.476-3.947-5.045-2.075-.57-4.272.773-5.777 2.075-.773.691-1.22 1.424-1.424 2.237-1.18 1.628-1.302 3.906-.04 5.574Zm5.818-1.098c-.488.122-.895.162-1.261.08a.946.946 0 0 0-.488-.325c-.082-.122-.163-.244-.204-.366-.284-.732-.284-2.115.041-2.726.448-.895 2.482-2.196 3.58-2.034 1.058.122 1.384 1.546 1.343 2.4-.04.61-.244 1.18-.53 1.669-.731.61-1.626 1.098-2.48 1.302Zm-3.54-3.459c-.203.814-.162 1.71 0 2.604-.243-.325-.406-.691-.569-1.058.122-.528.285-1.057.57-1.546Z" fill="#feaa22" fill-rule="evenodd" data-name="Path 254"/><path d="M813.583 5241.08a4.05 4.05 0 0 0-.326-1.546c-.203-.692-.529-1.343-1.098-1.913-2.034-2.156-6.591-3.417-9.358-2.196-2.4 1.098-3.051 3.702-1.871 5.98 1.383 2.645 4.76 4.516 7.69 4.394 2.481-.122 4.963-2.034 4.963-4.72Zm-8.096.61c-.163-.407-.163-.854 0-1.383 1.301-4.028 8.258-1.546 5.41 2.075-1.26 1.586-4.719 1.098-5.41-.692Z" fill="#feaa22" fill-rule="evenodd" data-name="Path 255"/><path d="M798.082 5219.192c5.33-7.73-2.441-16.356-10.497-16.844-7.974-.488-13.832 6.103-13.466 13.874.122 2.36.976 4.678 2.604 6.387 2.36 2.4 6.021 3.133 9.316 2.685 4.313-.61 9.52-2.44 12.043-6.102Zm-5.614 1.546c-2.848 1.627-9.195 3.865-12.287 1.423-3.092-2.44-1.017-9.113 1.058-11.473 2.807-3.214 7.73-4.353 11.635-2.644 3.5 1.505 5.737 7.16 2.686 10.334a15.477 15.477 0 0 1-3.092 2.36Z" fill="#feaa22" fill-rule="evenodd" data-name="Path 256"/><path d="M843.486 5222.731c2.237-3.743-1.384-7.201-5.208-8.137-2.238-.529-4.15.082-5.736 1.709-1.384 1.424-3.092 3.458-3.011 5.574.203 4.72 6.51 6.265 10.049 4.556.57-.284 1.14-.65 1.709-1.139.976-.65 1.75-1.546 2.197-2.563Zm-3.418 1.627c-.04.041-.081.041-.122.082a9.424 9.424 0 0 1-.57.325 5.268 5.268 0 0 1-2.034.57c-.854.04-2.481.366-3.173-.244-.366-.326-.61-.814-.692-1.343-.284-1.505.57-3.092 1.79-3.987 1.221-.895 2.808-1.261 4.354-1.342.57-.041 1.139-.041 1.627.203 1.709.814 1.058 3.255.203 4.394a4.075 4.075 0 0 1-.528.61c-.285.285-.57.529-.855.732Z" fill="#feaa22" fill-rule="evenodd" data-name="Path 257"/><path d="M845.52 5258.004c1.79-2.034 3.906-5.573 3.295-8.421-.732-3.458-4.394-6.713-7.445-8.178-6.59-3.214-12.856 1.465-15.5 7.405-3.052 6.713 3.417 13.019 9.967 12.53.081 0 .163 0 .203-.04 3.58.325 7.324-.773 9.48-3.296Zm-14.199-7.526a8.253 8.253 0 0 1 1.465-2.604 9.101 9.101 0 0 1 5.451-3.214c1.18-.204 2.4-.163 3.5.285 7.526 3.132 2.847 13.019-3.622 13.832-3.743.448-7.12-.65-7.282-4.882-.122-1.139.081-2.319.488-3.417Z" fill="#feaa22" fill-rule="evenodd" data-name="Path 258"/></g></g></svg>