<svg xmlns="http://www.w3.org/2000/svg" width="137.917" height="200.183" viewBox="1700.217 1416.483 137.917 200.183"><g data-name="rocket2"><path d="M1769.276 1440.47a104.647 104.647 0 0 0-6.317-4.59c-9.132-6.259-19.02-11.381-29.296-15a114.17 114.17 0 0 0-15.33-4.206c-4.586-.891-9.202 1.644-10.844 6.037-5.54 14.817-7.837 31.063-7.142 47.296.12 2.6.294 5.189.554 7.786 1.868 18.619 7.637 36.874 16.853 52.553 4.005 6.82 8.63 13.383 13.621 19.58a154.446 154.446 0 0 0 4.034 4.863 94.704 94.704 0 0 1 4.112-4.228c3.372-3.266 7.001-6.28 10.828-9.17a86.2 86.2 0 0 1 2.464-1.813 61.69 61.69 0 0 0-2.464 1.813c-3.806 2.857-7.456 5.904-10.828 9.17a101.538 101.538 0 0 0-4.112 4.228 212.692 212.692 0 0 0 22.936 22.828c7.506 6.435 15.346 13.217 23.715 18.493 1.453.908 3.014 1.791 4.71 1.795 3.08-.004 6.152-5.433 8.422-7.23 3.03-2.423 6.035-4.954 9.392-6.944 3.377-2.024 6.886-2.862 10.543-4.159 1.775-.636 3.86-1.4 5.772-1.445 1.738-.062 3.278.854 4.574-1 .726-1.015.784-2.357.8-3.633.254-21.059-3.744-43.03-10.075-63.106a243.704 243.704 0 0 0-1.982-6.015c-2.713-7.711-5.917-15.225-9.696-22.408-8.345-15.823-20.644-30.168-35.244-41.496Zm39.76 69.254c-.153-.05-.306-.099-.418-.214a.652.652 0 0 0 .417.214Zm-.471-.202s-.033-.02 0 0c-.033-.02 0 0 0 0Zm1.197.289c.054-.013.087.008.14-.004.302-.042.644-.15.876-.372.095-.078.156-.178.239-.31-.062.1-.144.232-.24.31-.23.223-.52.318-.875.372-.033-.021-.086-.009-.14.004Zm.491-2.403a1.253 1.253 0 0 0 0 0Zm-62.964 31.75c.013.053.058.127.07.181a.537.537 0 0 0-.07-.182Zm-11.013 8.732c.008-.087.07-.186.078-.273a.66.66 0 0 1 .206-.33l.042-.066-.042.066c-.061.1-.123.198-.206.33a.563.563 0 0 1-.078.273Zm-.033.347c.02-.033.008-.087.029-.12-.021.033-.042.066-.03.12Zm23.385-110.628c-.054.013-.074.046-.149.091.075-.045.095-.078.149-.09Zm-.62 2.094Zm2.593-.769c-.057.24-.235.45-.425.607.19-.157.368-.367.425-.607Zm-12.694 1.207c-.252-.111-.492-.17-.74-.14.248-.03.509-.004.74.14Zm.21 2.015c.157-.178.314-.355.405-.574-.09.219-.248.396-.405.574-.074.045-.136.144-.21.19-.095.078-.19.157-.318.214.128-.057.223-.136.318-.214.062-.1.136-.145.21-.19Zm-1.655-1.907c-.318.214-.545.578-.652.97.107-.392.367-.735.652-.97.074-.046.095-.079.148-.091-.04.066-.095.078-.148.09Zm15.993 88.251c-.148-.276-.446-.462-.751-.561.305.099.603.285.751.561Zm1.2-8.756c-.437.186-.841.392-1.279.578.438-.186.842-.392 1.28-.578Zm-25.717-67.324c.128-.058.289-.095.417-.153a2.14 2.14 0 0 1-.417.153Zm3.001-.834a36.577 36.577 0 0 1 3.418-.62c.496-.058.991-.116 1.52-.153-.496.058-1.024.095-1.52.153-1.152.153-2.29.36-3.418.62Zm44.252 37.663c.458-6.097-.814-12.22-3.44-17.719-3.816-8.078-10.435-14.832-18.663-18.274-.656-.273-1.313-.545-1.977-.73-.678-.24-1.342-.426-2.04-.632a31.94 31.94 0 0 1 2.04.631c.677.24 1.354.479 1.977.73 8.228 3.443 14.88 10.217 18.662 18.275 2.627 5.5 3.899 11.622 3.441 17.72-.495 6.67-3.017 13.132-6.975 18.512 3.958-5.38 6.493-11.787 6.975-18.513Zm-31.305-38.391c.64.078 1.259.19 1.899.268-.673-.099-1.292-.21-1.9-.268Zm-6.878-.165c.28-.008.582-.05.863-.057-.281.008-.562.016-.863.057Zm-13.554-3.371.012.053-.012-.053Zm.94-2.168a1.274 1.274 0 0 0 0 0Zm-1.01 1.986c-.12-.396-.038-.896.136-1.247-.174.351-.202.838-.136 1.247Zm1.436.714Zm1.226-1.668c0 .368-.152.686-.392.995.24-.31.392-.627.392-.995.013-.314-.169-.61-.392-.842.223.231.405.528.392.842Zm-.875-1.098c.087.008.153.05.219.091a.494.494 0 0 1-.219-.09Zm-11.191 7.841c0 .368-.194.751-.434 1.061l-.02.033.02-.033c.24-.31.467-.673.434-1.06-.005-.509-.397-.983-.93-1.087-.152-.05-.346-.033-.487-.028a.929.929 0 0 1 .488.028c.532.104.924.578.929 1.086Zm-2.704.653c-.034-.388.094-.814.3-1.144-.206.33-.334.756-.3 1.144Zm-9.772 6.156a.295.295 0 0 1 .149-.09c-.054.012-.108.024-.149.09-.074.045-.115.112-.19.157.075-.045.116-.112.19-.157Zm.529 2.535a.304.304 0 0 0 .215-.05l-.215.05c-.335.02-.553-.07-.73-.227.144.136.416.214.73.227Zm.896-.405c.095-.078.19-.157.272-.289.24-.31.467-.673.433-1.06.013-.315-.169-.612-.392-.843-.144-.136-.33-.206-.516-.277-.153-.05-.347-.033-.54-.016a.935.935 0 0 1 .54.016c.207.038.372.14.516.277.244.198.405.528.392.842 0 .368-.193.751-.433 1.061-.115.112-.177.21-.272.29-.075.045-.116.11-.19.156.041-.066.115-.111.19-.157Zm.2 24.374Zm.648-7.357c.008-.086.037-.206.045-.293-.008.087-.017.174-.045.293Zm-.437 10.842c-.074-.69-.149-1.38-.17-2.081.021.702.096 1.391.17 2.08Zm32.887 48.795Zm1.136-1.45c-.215.05-.364.14-.533.265-.02.033-.095.078-.115.111.02-.033.094-.078.115-.111.136-.145.318-.215.533-.265Zm12.558-7.308c.07.549.408 1.036 1.11 1.015.054-.012.108-.024.14-.004-.053.013-.107.025-.14.004-.702.021-1.04-.466-1.11-1.015Zm.012-.314c.012.054-.008.087.004.14-.012-.053-.025-.107-.004-.14Zm17.99-9.241c-.045-.074-.07-.182-.082-.235.046.074.091.148.083.235Zm-2.596.26c.099-.305.285-.602.528-.772.054-.012.095-.078.149-.09-.054.012-.095.078-.149.09-.264.203-.429.467-.528.772Zm1.949-.987c.185.07.33.207.474.343-.144-.136-.289-.272-.474-.343Zm-1.97 1.02c-.008.087-.05.153-.057.24a.554.554 0 0 1 .057-.24Zm-.09.587c.004.507.276.953.95 1.052.119.03.226.004.334-.02a1.183 1.183 0 0 1-.335.02c-.693-.066-.945-.545-.95-1.052Zm15.406-6.723c.025.107.037.161.083.235-.046-.074-.07-.181-.083-.235Zm-.05-.215c-.012-.053-.004-.14-.016-.194.012.054.025.108.017.194Zm2.812-.677a.295.295 0 0 1-.016.174c-.021.033-.009.086-.05.152.02-.033.008-.086.05-.152.02-.034.008-.087.016-.174Zm-1.825-1.048c-.128.057-.256.115-.35.194-.096.078-.19.157-.273.289.062-.1.177-.21.272-.29.108-.024.223-.136.351-.193.202-.104.43-.1.624-.116-.194.017-.442.045-.624.116Zm1.738.672Zm-50.01-73.134c1.102-.368 2.184-.702 3.32-1.049-1.136.347-2.238.715-3.32 1.049a74.166 74.166 0 0 0-5.771 2.18c1.878-.8 3.835-1.507 5.771-2.18Zm-14.424 6.326c.276-.149.574-.33.883-.458a6.2 6.2 0 0 0-.883.458c-2.242 1.31-4.463 2.585-6.659 3.968 2.163-1.404 4.405-2.713 6.659-3.968Zm-18.412 12.193Zm-8.619 10.78c-.181.438-.177.946.03 1.35-.195-.35-.178-.892-.03-1.35Zm1.028 1.883c.14-.004.322-.075.483-.112-.181.07-.342.108-.483.112-.173-.017-.313-.013-.433-.042.12.03.24.058.433.042Zm.917-.438-.285.235.285-.235Zm.664-1.284-.024-.107.024.107c-.008.087.004.14-.004.227-.012-.054-.004-.14.004-.227Zm-.045.293Zm32.213 79.787c.215-.05.438-.186.595-.363.095-.079.136-.145.23-.223-.061.099-.135.144-.23.223-.157.177-.36.28-.595.363Zm.941-.698c.22-.276.393-.627.393-.995 0 .368-.174.719-.393.995Zm.38-1.048a.99.99 0 0 0-.165-.471 1.118 1.118 0 0 0-.751-.561c-.36-.087-.789.012-1.107.227.318-.215.727-.281 1.107-.227.326.066.602.284.751.561.09.149.161.33.165.47Zm10.155-8.167c-.223.136-.479.252-.726.28-.335.021-.586-.09-.764-.247a2.682 2.682 0 0 1-.202-.264c.057.128.103.202.202.264.178.157.43.268.764.247a1.55 1.55 0 0 0 .726-.28Zm.855-1.441c.016.194-.054.38-.124.565.07-.185.14-.371.124-.565-.017-.194-.087-.376-.157-.558.07.182.14.364.157.558Zm-.426-.863c.1.062.178.157.236.285l-.236-.285Zm31.127-14.535a143.785 143.785 0 0 1 11.328-5.046c-3.822 1.56-7.62 3.23-11.328 5.046Zm17.818-7.42c2.588-.909 5.202-1.71 7.827-2.458a118.05 118.05 0 0 0-7.827 2.458Zm13.178-3.89 2.415-.558-2.415.557Z" fill="#fcc953" fill-rule="evenodd" data-name="Path 808"/><g data-name="Group 249"><path d="M1769.33 1440.457c-6.969.422-13.847 1.727-20.518 3.804a87.222 87.222 0 0 0-12.22 4.857 123.717 123.717 0 0 0-3.97 2.019c-.98.536-1.945 1.127-2.89 1.684a124.965 124.965 0 0 0-4.884 2.965c-3.5 2.221-6.857 4.58-10.003 7.114-5.288 4.274-9.998 9.092-13.783 14.856 1.868 18.619 7.637 36.874 16.853 52.553 4.005 6.82 8.63 13.383 13.621 19.58a88.769 88.769 0 0 1 3.794-4.014c3.558-3.563 7.46-6.866 11.55-9.958 4.45-3.374 9.124-6.516 13.92-9.489a222.172 222.172 0 0 1 8.773-5.219c.776-.434 1.52-.888 2.275-1.288a151.58 151.58 0 0 1 4.363-2.28c5.165-2.605 10.445-4.955 15.832-6.962a138.863 138.863 0 0 1 16.74-5.108c1.879-.434 3.736-.834 5.594-1.235-2.713-7.712-5.917-15.225-9.696-22.408-8.485-15.82-20.752-30.144-35.35-41.47Zm16.915 48.78c-.87 11.902-8.239 22.959-18.48 28.913a34.357 34.357 0 0 1-8.596 3.539c-33.666 8.677-59.163-32.836-36.224-58.963 2.436-2.795 5.35-5.107 8.537-6.974 9.763-5.702 22.21-6.88 32.66-2.509 13.83 5.795 23.162 20.995 22.103 35.994Z" fill="#eb5d3f" fill-rule="evenodd" data-name="Path 809"/><path d="M1826.028 1556.762c-.264-.165-.507-.363-.739-.508-3.682-2.485-6.928-5.156-10.999-6.873-.371-.14-.809-.322-1.16-.128-.573.33-.375 1.19-.065 1.796 2.836 6.044 4.889 11.873 5.067 18.644.07 2.753.285 4.54 2.358 6.295 1.973 1.693 4.14 3.001 5.8 5.049a375.773 375.773 0 0 1 6.116 8c.664.92 2.031 4.393 3.344 4.203 4.896-.707.845-19.359.015-22.22-.661-2.25-1.83-6.332-3.465-8.273-1.664-1.82-4.22-4.565-6.272-5.985Z" fill="#eb5d3f" fill-rule="evenodd" data-name="Path 810"/><path d="M1791.717 1558.606a4.15 4.15 0 0 0-.772-.16c-.574-.038-1.205.165-1.461.648-.269.429-.186 1.032-.128 1.527 1.227 7.518 2.392 15.135 4.35 22.512.23.88.677 1.71 1.333 2.349.97 1.02 1.974 2.06 2.964 3.046a120.273 120.273 0 0 0 6.768 6.296c1.552 1.337 8.133 8.297 10 7.075 1.452-.93-.01-5.425-.17-6.857-.488-3.704-1.083-7.382-1.839-11.023-.227-1.107-.487-2.234-.735-3.307-.322-1.395-.665-2.758-1.008-4.12-.231-.88-.677-1.71-1.333-2.349a116.845 116.845 0 0 0-9.34-8.867c-2.06-1.7-5.772-5.903-8.629-6.77Z" fill="#eb5d3f" fill-rule="evenodd" data-name="Path 811"/><path d="m1771.807 1574.226-.053.012c-.744.087-1.33.731-1.59 1.441-.26.71-.214 1.52-.214 2.254.1 3.002.145 6.016.298 9.005.008.28.029.615.037.895.128 2.515 1.099 6.106 1.883 8.525.752 2.399 3.634 5.578 5.22 7.303 2.704 3.022 5.796 5.643 9.149 7.922 2.58 1.75 4.769 3.393 7.609 4.8.417.215.941.405 1.367.165.54-.35.408-1.168.185-1.767-1.693-4.64-3.159-9.276-4.778-13.962-1.073-3.059-.698-5.717-.884-8.727-.227-3.31-4.137-4.33-6.47-6.11-1.924-1.477-3.84-3.042-5.524-4.83-1.334-1.246-4.41-6.98-6.235-6.926Z" fill="#eb5d3f" fill-rule="evenodd" data-name="Path 812"/></g><path d="M1761.839 1458.693c11.61 4.866 19.43 17.56 18.514 30.123-.915 12.563-10.455 24.008-22.65 27.134-28.176 7.24-49.473-27.47-30.286-49.282 8.268-9.484 22.812-12.841 34.422-7.975Z" fill="#8e89c0" fill-rule="evenodd" data-name="Path 813"/><g data-name="Group 250"><path d="M1809.741 1507.272c.508-.004 1.024.272 1.264.697.239.426.16 1.065-.207 1.433-.231.223-.52.318-.875.372a.846.846 0 0 1-.227-.005c-.475.025-.954-.09-1.255-.416-.768-.756-.124-1.64.677-1.966.214-.05.43-.099.623-.115Z" fill="#ebc48e" fill-rule="evenodd" data-name="Path 814"/><path d="M1761.118 1437.576c.43.269.673.834.504 1.325-.107.393-.413.661-.764.855-.371.227-.842.392-1.32.277-1.276-.384-.793-1.965.078-2.477.511-.232 1.073-.248 1.502.02Z" fill="#ebc48e" fill-rule="evenodd" data-name="Path 815"/><path d="M1793.682 1512.393c.47.202.789.722.74 1.242-.054.38-.315.723-.6.958-.169.124-.317.215-.486.339-.256.115-.492.198-.785.152-1.313-.177-1.07-1.816-.31-2.444a1.58 1.58 0 0 1 .351-.194c.33-.16.752-.173 1.09-.053Z" fill="#ebc48e" fill-rule="evenodd" data-name="Path 816"/><path d="M1748.927 1440.108c.45.235.748.789.632 1.267-.087.36-.347.702-.664.917-.19.157-.413.293-.628.343-.215.05-.43.099-.636.062-1.325-.231-.974-1.895-.17-2.448.15-.091.298-.182.459-.22.376-.086.743-.086 1.007.08Z" fill="#ebc48e" fill-rule="evenodd" data-name="Path 817"/><path d="M1778.296 1519.45c.47.202.789.722.74 1.242-.054.38-.314.723-.6.958-.169.124-.317.215-.486.339-.256.115-.492.198-.785.152-1.313-.177-1.07-1.816-.31-2.444l.223-.136c.372-.227.834-.306 1.218-.112Z" fill="#ebc48e" fill-rule="evenodd" data-name="Path 818"/><path d="M1736.171 1445.088c.512.136.925.578.929 1.086 0 .367-.194.751-.433 1.06a2.055 2.055 0 0 1-.719.562 1.185 1.185 0 0 1-.429.1c-1.317.05-1.367-1.635-.686-2.358.137-.144.306-.268.508-.371.256-.116.558-.157.83-.079Z" fill="#ebc48e" fill-rule="evenodd" data-name="Path 819"/><path d="M1762.758 1527.927c.511.136.924.577.929 1.085 0 .368-.194.752-.434 1.061a2.714 2.714 0 0 1-.59.504c-.17.124-.363.14-.557.157-1.317.05-1.367-1.635-.719-2.378.116-.111.231-.223.38-.314a1.74 1.74 0 0 1 .99-.115Z" fill="#ebc48e" fill-rule="evenodd" data-name="Path 820"/><path d="M1713.76 1459.42c.478.116.903.611.908 1.119 0 .367-.194.751-.434 1.06-.095.08-.157.178-.272.29-.265.202-.562.384-.896.404-1.317.05-1.367-1.634-.686-2.357.042-.066.116-.111.19-.157.314-.355.743-.454 1.19-.359Z" fill="#ebc48e" fill-rule="evenodd" data-name="Path 821"/><path d="M1749.065 1537.052c.478.115.924.578.928 1.085.034.388-.193.752-.433 1.061-.136.145-.272.29-.421.38-.223.136-.479.252-.727.281-1.317.05-1.366-1.635-.718-2.378a.553.553 0 0 1 .19-.157c.305-.268.755-.4 1.18-.272Z" fill="#ebc48e" fill-rule="evenodd" data-name="Path 822"/><path d="M1704.533 1468.305c.479.116.904.611.929 1.086.033.388-.194.751-.433 1.061-.314.355-.694.669-1.148.66-1.317.05-1.367-1.634-.719-2.377.347-.335.892-.545 1.371-.43Z" fill="#ebc48e" fill-rule="evenodd" data-name="Path 823"/><path d="M1738.067 1546.713c.48.116.904.611.93 1.086 0 .367-.195.751-.434 1.06-.062.1-.178.212-.273.29a1.462 1.462 0 0 1-.895.405c-1.284.07-1.363-1.495-.78-2.28l.061-.098c.334-.388.88-.599 1.391-.463Z" fill="#ebc48e" fill-rule="evenodd" data-name="Path 824"/></g><g data-name="Group 251"><path d="M1808.676 1505.596c-5.602 1.321-11.192 3.064-16.707 5.129-5.388 2.007-10.68 4.303-15.832 6.962-1.47.735-2.906 1.49-4.364 2.28-.776.433-1.498.854-2.274 1.287a399.141 399.141 0 0 0-8.773 5.22c-4.817 3.005-9.49 6.148-13.92 9.488a116.354 116.354 0 0 0-11.55 9.959 83.204 83.204 0 0 0-3.794 4.013 154.412 154.412 0 0 0 4.034 4.863 94.681 94.681 0 0 1 4.112-4.228c3.372-3.266 7-6.28 10.828-9.17 4.24-3.184 8.69-6.19 13.263-9.026 3.683-2.292 7.443-4.489 11.237-6.665 1.255-.685 2.543-1.35 3.831-2.015a161.758 161.758 0 0 1 15.221-6.792 144.043 144.043 0 0 1 16.381-5.195c1.953-.48 3.885-.925 5.85-1.35a243.888 243.888 0 0 0-1.982-6.016 194.77 194.77 0 0 0-5.561 1.256Z" fill="#342873" fill-rule="evenodd" data-name="Path 825"/><path d="M1724.848 1455.786c1.601-1.02 3.236-2.02 4.883-2.965.946-.557 1.945-1.127 2.89-1.684 1.309-.698 2.617-1.396 3.971-2.02a93.743 93.743 0 0 1 12.22-4.856c6.671-2.077 13.55-3.382 20.518-3.804a104.663 104.663 0 0 0-6.317-4.59 87.872 87.872 0 0 0-15.407 3.048 91.275 91.275 0 0 0-12.942 4.91 78.868 78.868 0 0 0-4.76 2.4c-2.551 1.436-5.09 2.927-7.55 4.512-3.778 2.37-7.431 4.91-10.828 7.7-4.137 3.386-7.873 7.16-11.018 11.532.12 2.601.294 5.19.554 7.787 3.785-5.764 8.495-10.582 13.783-14.856 3.146-2.535 6.535-4.872 10.003-7.114Z" fill="#342873" fill-rule="evenodd" data-name="Path 826"/></g><g data-name="Group 252"><path d="M1735.09 1548.39c-.647.375-.944 1.292-.536 1.96.41.67 1.26.925 1.961.537.649-.376.946-1.292.537-1.96-.409-.67-1.26-.926-1.961-.537Z" fill="#f7c46d" fill-rule="evenodd" data-name="Path 827"/><path d="M1741.287 1543.03c-1.552.867-.206 3.27 1.346 2.403 1.585-.847.24-3.25-1.346-2.403Z" fill="#f7c46d" fill-rule="evenodd" data-name="Path 828"/><path d="M1747.066 1537.824c-1.606.88-.202 3.41 1.425 2.497 1.626-.912.202-3.41-1.425-2.497Z" fill="#f7c46d" fill-rule="evenodd" data-name="Path 829"/><path d="M1755.674 1533.236c-.033-.02-.046-.074-.079-.095-.38-.42-1.086-.54-1.552-.235-.467.306-.784.888-.627 1.445.012.054.024.108.057.128.24.793 1.16 1.23 1.916.83.722-.421.834-1.408.285-2.073Z" fill="#f7c46d" fill-rule="evenodd" data-name="Path 830"/><path d="M1761.932 1528.145a1.284 1.284 0 0 0-1.098.14c-.297.183-.57.472-.657.83-.086.36-.074.781.14 1.099.034.02.046.074.08.095.214.318.437.549.83.656.338.12.78.074 1.077-.107.297-.182.57-.47.656-.83.107-.392.033-.714-.107-1.078-.013-.053-.046-.074-.058-.128-.161-.33-.59-.598-.863-.677Z" fill="#f7c46d" fill-rule="evenodd" data-name="Path 831"/><path d="M1767.872 1524.004c-.68.355-.966 1.325-.557 1.994.409.669 1.292.945 1.994.557.681-.355.966-1.325.557-1.994a1.52 1.52 0 0 0-1.994-.557Z" fill="#f7c46d" fill-rule="evenodd" data-name="Path 832"/><path d="M1775.171 1519.747c-1.606.88-.202 3.41 1.425 2.498 1.605-.88.201-3.41-1.425-2.498Z" fill="#f7c46d" fill-rule="evenodd" data-name="Path 833"/><path d="M1782.044 1516.464c-.627.343-.904 1.227-.507 1.842.396.615 1.193.883 1.841.507.628-.343.904-1.226.508-1.841a1.403 1.403 0 0 0-1.842-.508Z" fill="#f7c46d" fill-rule="evenodd" data-name="Path 834"/><path d="M1788.571 1513.883c-1.7.958-.218 3.584 1.483 2.626 1.7-.958.218-3.584-1.483-2.626Z" fill="#f7c46d" fill-rule="evenodd" data-name="Path 835"/><path d="M1796.638 1511.484c-.628.343-.904 1.226-.508 1.841.397.615 1.193.884 1.842.508.627-.343.904-1.226.507-1.841-.396-.615-1.16-.863-1.841-.508Z" fill="#f7c46d" fill-rule="evenodd" data-name="Path 836"/><path d="M1802.52 1509.052c-1.626.912-.222 3.443 1.405 2.53 1.68-.925.255-3.422-1.404-2.53Z" fill="#f7c46d" fill-rule="evenodd" data-name="Path 837"/><path d="M1810.554 1507c-1.626.912-.21 3.496 1.437 2.55 1.648-.945.21-3.496-1.437-2.55Z" fill="#f7c46d" fill-rule="evenodd" data-name="Path 838"/><path d="M1702.246 1469.54c-1.68.925-.21 3.497 1.47 2.572 1.626-.913.21-3.497-1.47-2.572Z" fill="#f7c46d" fill-rule="evenodd" data-name="Path 839"/><path d="M1708.595 1463.863c-.033-.02-.033-.02 0 0-.285-.132-.747-.054-.99.115-.244.17-.55.438-.595.731l-.021.033c-.14.372-.128.793.1 1.164.342.628 1.258.925 1.907.55.615-.397.957-1.24.549-1.908-.26-.392-.59-.599-.95-.685Z" fill="#f7c46d" fill-rule="evenodd" data-name="Path 840"/><path d="M1715.32 1458.834c-.033-.021-.066-.042-.079-.095-.466-.43-1.185-.603-1.758-.273-.595.364-.826.954-.698 1.631.012.054.025.108.004.14.19.946 1.391 1.375 2.188.909.81-.413 1.086-1.664.343-2.312Z" fill="#f7c46d" fill-rule="evenodd" data-name="Path 841"/><path d="M1720.884 1453.677a1.614 1.614 0 0 0-1.077.107c-.723.421-.99 1.586-.314 2.192.29.273.586.459 1.008.446.227.004.495-.058.697-.16.203-.104.36-.282.483-.48.227-.363.227-.73.14-1.106-.045-.442-.511-.871-.937-1Z" fill="#f7c46d" fill-rule="evenodd" data-name="Path 842"/><path d="M1727.093 1449.106c-1.754.97-.227 3.67 1.528 2.7 1.721-.991.193-3.691-1.528-2.7Z" fill="#f7c46d" fill-rule="evenodd" data-name="Path 843"/><path d="M1733.876 1445.307c-1.755.97-.227 3.67 1.527 2.7 1.755-.97.227-3.67-1.527-2.7Z" fill="#f7c46d" fill-rule="evenodd" data-name="Path 844"/><path d="M1740.774 1442.5c-1.68.924-.21 3.496 1.47 2.571 1.68-.925.21-3.497-1.47-2.572Z" fill="#f7c46d" fill-rule="evenodd" data-name="Path 845"/><path d="M1748.126 1440.067c-1.68.925-.197 3.55 1.483 2.625 1.68-.924.198-3.55-1.483-2.625Z" fill="#f7c46d" fill-rule="evenodd" data-name="Path 846"/><path d="M1756.115 1438.307c-.392-.107-.814-.094-1.185.133-.351.194-.611.536-.698.896-.148.458-.02 1.135.368 1.47.177.156.343.26.508.363.185.07.392.107.598.144.488.029.987-.256 1.255-.685.124-.199.174-.351.178-.578.037-.207-.013-.422-.042-.67-.004-.507-.536-.978-.982-1.073Z" fill="#f7c46d" fill-rule="evenodd" data-name="Path 847"/><path d="M1761.246 1437.151c-1.626.913-.222 3.443 1.404 2.53 1.66-.891.223-3.443-1.404-2.53Z" fill="#f7c46d" fill-rule="evenodd" data-name="Path 848"/></g></g></svg>