<svg xmlns="http://www.w3.org/2000/svg" width="123.55" height="220.917" viewBox="92.25 3877.667 123.55 220.917"><g data-name="rocket"><g data-name="Group 255"><path d="M215.703 3899.406c.083 3.623-.8 7.342-1.48 10.983-2.402-2.323-4.804-4.646-7.591-6.505-2.861-1.872-5.96-3.254-9.172-4.428-3.212-1.174-6.48-2.245-9.788-3.094-1.638-.403-3.29-.732-4.98-.84-1.353-.086-2.67.061-3.94-.277 4.147-4.131 8.624-7.976 13.452-11.228 4.061-2.779 12.573-8.61 17.667-5.394 2.696 1.729 4.474 6.297 5.289 9.214 1.058 3.91.426 7.71.543 11.569Z" fill="#342873" fill-rule="evenodd" data-name="Path 864"/><path d="M162.58 4051.378c.216-2.735.038-5.388-.213-8.053-.122-1.465.29-2.722.966-3.97 2.543-3.01 4.65-6.55 6.834-9.888 4.212-6.438 8.142-13 11.878-19.75l.298-.403c.157-.238.417-.42.755-.399.75.056 1.79 2.557 2.128 3.225.616 1.248.985 2.605 1.206 3.935.52 2.865.308 5.791.023 8.704-.598 5.973-1.468 11.556-4.77 16.71-2.947 4.647-6.275 9.302-10.089 13.264-3.44 3.572-7.363 6.642-11.303 9.594.975-4.235 1.963-8.543 2.287-12.969Z" fill="#342873" fill-rule="evenodd" data-name="Path 865"/><path d="M117.004 4023.094c-.204-1.214.845-3.498 1.17-4.695.026-.147.095-.325.12-.472.785-2.293 1.318-4.669 1.894-7.074.286-.975.529-1.92.814-2.896a377.01 377.01 0 0 1 4.333-14.014c.667-1.63 1.291-3.229 2.002-4.89.32-.74.684-1.512.606-2.361-.017-.117-.034-.234-.021-.308 6.84-19.194 15.264-37.88 25.266-55.606 6.842-12.09 14.47-23.889 24.103-33.929.286-.33.603-.615.876-.871 1.244 1.131 3.905.689 5.288.818 3.87.455 7.585 1.794 11.24 3.046 3.445 1.14 6.866 2.426 10.004 4.233 3.437 2.05 6.333 4.802 9.173 7.658l.03.043c-.065.369-.117.663-.139 1.002a292.936 292.936 0 0 1-8.806 39.171 289.75 289.75 0 0 1-23.138 55.601l-.174.121c-1.048.993-1.815 2.757-2.565 3.993-1.655 2.709-3.176 5.518-4.875 8.258-3.172 5.063-6.461 10.143-9.737 15.15-.78 1.192-2.414 2.917-3.303 4.508-.693.486-1.404.854-2.193 1.019-3.025.568-7.009-.97-9.947-1.754a87.092 87.092 0 0 1-10.694-3.557 99.32 99.32 0 0 1-18.106-9.347c-1.192-.78-2.94-1.43-3.221-2.847Z" fill="#e1dfe8" fill-rule="evenodd" data-name="Path 866"/><path d="M96.66 4039.147c.307-11 2.308-21.703 6.727-31.902 2.327-5.44 5.3-11.526 9.443-15.848 1.863-1.951 4.108-3.265 6.705-3.985 1.56-.446 5.85-2.16 5.973.598.065.923-.43 1.785-.837 2.587-1.603 3.06-2.703 6.286-3.596 9.623-1.083 3.988-1.871 8.028-2.88 12.029-.382 1.3-.69 2.614-1.07 3.914-.235.68-.395 1.374-.629 2.055-1.031 3.047-2.526 5.708-5.122 7.72-2.063 1.573-4.308 2.887-6.384 4.535-3.012 2.432-5.998 5.362-8.33 8.674Z" fill="#342873" fill-rule="evenodd" data-name="Path 867"/><path d="M136.453 3967.298c.03.043.018.117 0 0-.117.017-.264-.008-.411-.034.147.026.294.051.411.034Z" fill="#202328" fill-rule="evenodd" data-name="Path 868"/><g data-name="Group 254"><path d="m161.613 3955.817.182.26c.43.798.902 1.565 1.461 2.271 5.684 7.195 16.147 7.748 23.398 2.606 7.194-5.037 10.093-15.011 5.775-22.839-4.38-7.914-15.446-11.727-23.49-7.257-8.434 4.743-12.658 16.421-7.326 24.96Z" fill="#fffefe" fill-rule="evenodd" data-name="Path 869"/><path d="m161.106 3956.108.182.26c.43.797.932 1.608 1.522 2.357 5.865 7.455 16.68 7.956 24.178 2.706 7.41-5.19 10.405-15.488 5.935-23.533-4.561-8.174-15.983-12.125-24.244-7.503-8.681 4.851-13.088 16.914-7.573 25.713Zm9.272-24.578c10.346-5.242 23.931 3.46 23.096 15.09-.722 10.775-12.224 19.346-22.775 16.27-4.803-1.417-8.44-5.136-9.693-9.877-1.575-8.522.739-17.117 9.372-21.483Z" fill="#202328" fill-rule="evenodd" data-name="Path 870"/></g></g><g data-name="Group 256"><path d="M92.798 4068.591c1.531 6.614 9.775 8.334 14.157 2.876-4.17 5.116-8.555 12.966-7.734 19.948.672 5.665 6.42 8.616 11.625 6.457 2.501-1.04 4.447-3.243 5.283-5.83.157 2.99 3.174 5.27 6.039 6.04 3.411.906 7.598.429 10.181-2.155 3.372-3.394 4.55-8.353 5.603-13.03.139 3.52 4.07 5.999 7.508 5.465 3.48-.564 6.189-3.43 7.524-6.69 1.724-4.178 1.602-8.872 2.707-13.198 1.386-5.492 4.943-18.769.556-23.19-1.804-1.837-4.262-2.764-6.875-3.453-1.89-.485-3.85-.792-5.765-1.13a32.026 32.026 0 0 1-3.793-.897c-3.637-1.135-7.178-2.595-10.564-4.294-1.99-.997-3.923-2.097-5.813-3.228-.58-.369-1.161-.737-1.712-1.062-1.222-.823-2.549-1.703-4.022-1.963a2.35 2.35 0 0 0-.72-.013c-3.255.148-6.956 4.548-9.04 6.46-3.61 3.238-7.082 6.767-9.838 10.764-4.42 6.324-7.037 14.486-5.307 22.123Z" fill="#eb5d3f" fill-rule="evenodd" data-name="Path 871"/><path d="M105.887 4062.01c.278 1.872 1.288 3.684 2.922 4.542 1.665.901 3.706 1.603 4.907.181-1.716 1.977-2.505 4.725-2.197 7.287.165 1.434.846 2.96 2.237 3.471 1.14.43 2.406-.07 3.45-.607 2.276-1.27 3.671-3.152 5.136-5.21-.25 3.792 2.372 8.091 6.763 7.536 2.37-.304 4.43-2.068 5.63-4.136 1.243-2.098 1.776-4.473 2.309-6.849.863 2.432 3.672 3.953 6.125 3.398 4.278-.994 4.953-6.763 5.165-10.334.35-6.51.73-12.978 1.081-19.488-3.203-.793-6.675-1.14-9.558-2.027a75.276 75.276 0 0 1-16.376-7.523c-3.476 4.63-6.951 9.26-10.457 13.846-2.48 3.286-4.958 6.572-6.396 10.42-.577 1.76-.988 3.664-.74 5.493Z" fill="#f29384" fill-rule="evenodd" data-name="Path 872"/><path d="M120.585 4057.725c-1.066 1.522-4.074 5.436-2.838 7.478.641 1.1 2.297.975 3.415.45 2.193-1.019 3.818-3.126 4.265-5.44.26 2.4-.225 9.457 4.56 7.528 1.106-.451 1.799-1.582 2.332-2.666 1.179-2.376 2.253-4.807 3.137-7.235.078 1.496 2.12 2.198 3.485 1.564 1.335-.676 2.05-2.145 2.561-3.537 1.725-4.824 2.032-10.013 2.135-15.123a32.057 32.057 0 0 1-3.793-.897c-3.636-1.135-7.178-2.595-10.563-4.294-2.535 2.744-4.711 5.818-6.709 8.96-2.153 3.382-5.13 7.34-6.261 11.167-.312 1.123-.399 2.475.511 3.13.538.398 1.331.424 1.986.16.71-.369 1.244-.807 1.777-1.245Z" fill="#fcc953" fill-rule="evenodd" data-name="Path 873"/></g></g></svg>