<svg xmlns="http://www.w3.org/2000/svg" width="41.8" height="40.65" viewBox="214.933 2417.717 41.8 40.65"><path d="M216.48 2449.01c2.29 1.237 5.778-.853 7.777-1.822 1.572-.732 3.19-1.519 4.696-2.444a116.218 116.218 0 0 1 5.732 12.79c.448 1.152 2.38 1.132 2.51-.219.347-3.403 1.244-6.755 1.74-10.17.26-1.561.659-3.233.767-4.83 5.192.39 11.46-2.242 16.064-4.034 1.25-.456 1.251-2.143.108-2.737-3.372-1.689-8.156-3.651-12.588-3.859 1.042-3.96.562-8.877.145-12.511-.166-1.325-1.912-2.015-2.806-.895-2.907 3.627-6.736 7.483-8.638 11.816-.005-.05-.005-.05-.058-.094-2.555-2.554-4.861-5.676-7.097-8.555-.945-1.157-3.008-.927-3.26.731-.646 4.52-1.708 11.657.572 16.17-4.426 3.263-9.928 8.407-5.664 10.662Z" fill="#fff" fill-rule="evenodd" data-name="star4"/></svg>