<svg xmlns="http://www.w3.org/2000/svg" width="38.233" height="40.033" viewBox="1765.367 1191.983 38.233 40.033"><path d="M1801.879 1205.472c-2.98.994-6.502 1.761-9.572 3.116.993-5.012 1.445-10.25 2.122-15.307.135-1.038-1.264-1.851-1.851-.768l-5.103 9.753c-1.264 2.393-2.89 4.832-3.702 7.45-2.167-1.264-4.831-.948-7.315-1.038-3.25-.135-6.502-.27-9.708-.361-1.4-.045-1.896 1.941-.677 2.619 2.8 1.58 5.554 3.16 8.353 4.74.949.543 1.897 1.175 2.89 1.716-2.077 4.155-3.702 8.625-5.554 12.824-.542 1.174.813 2.393 1.852 1.445 2.528-2.258 4.921-4.696 7.495-6.909 1.264-1.083 2.574-2.212 3.928-3.16-.632.451 6.818 8.85 7.36 9.391.993 1.039 2.71 0 2.393-1.354-.587-2.484-1.174-4.922-1.851-7.36-.316-1.129-.587-2.303-.994-3.386.994-.994 1.897-2.032 2.845-2.89 2.845-2.71 5.87-5.328 8.489-8.263.767-.903 0-2.754-1.4-2.258Z" fill="#fcc953" fill-rule="evenodd" data-name="star2"/></svg>