<svg xmlns="http://www.w3.org/2000/svg" width="34.2" height="40.033" viewBox="122 1287.967 34.2 40.033"><path d="M129.576 1323.452c-.049.971 1.262 1.797 2.087 1.165 2.525-1.942 5.05-4.904 6.361-8.205 1.02 1.408 2.185 2.719 3.205 4.03 1.942 2.525 3.738 5.39 6.311 7.331.729.583 1.7-.048 1.457-.874-.048-.048-.048-.145-.097-.194 0-.048 0-.048-.049-.097-.145-.34-.29-.68-.485-1.02-1.894-4.612-1.554-10.002-3.447-14.566 5.05.583 12.187-.582 11.167-5.243-.631-2.768-4.079-3.06-6.36-3.156l-4.953-.146c.922-4.467.097-9.274-1.505-13.498-.437-1.165-2.476-1.457-2.72.049-.485 3.156-2.038 6.312-3.204 9.273-.63 1.651-1.36 3.302-1.7 5.001a.783.783 0 0 0-.339.195c-3.69-1.943-7.477-2.67-11.944-1.894-1.36.243-1.797 2.282-.777 3.156 2.428 1.99 4.904 4.03 7.38 6.02.486.39.923.777 1.457 1.214-.049.243-.146.486-.194.729-1.02 3.496-1.506 7.089-1.651 10.73Z" fill="#fcc953" fill-rule="evenodd" data-name="star3"/></svg>