<svg xmlns="http://www.w3.org/2000/svg" width="42.533" height="40.033" viewBox="873.917 1488.983 42.533 40.033"><path d="M915.085 1500.025c-2.174-1.432-5.83.346-7.906 1.137-1.63.593-3.31 1.235-4.891 2.026a116.218 116.218 0 0 1-4.595-13.242c-.346-1.186-2.273-1.334-2.52 0-.643 3.36-1.828 6.62-2.619 9.98-.395 1.532-.939 3.163-1.186 4.744-5.139-.84-11.611 1.235-16.355 2.619-1.284.346-1.433 2.026-.345 2.717 3.211 1.977 7.806 4.348 12.204 4.941-1.384 3.854-1.334 8.795-1.235 12.452.049 1.334 1.729 2.174 2.717 1.136 3.212-3.36 7.362-6.868 9.635-11.018 0 .05 0 .05.05.098 2.322 2.767 4.348 6.078 6.324 9.141.84 1.236 2.915 1.186 3.31-.444 1.038-4.447 2.718-11.464.84-16.157 4.694-2.866 10.624-7.51 6.572-10.13Z" fill="#fcc953" fill-rule="evenodd" data-name="star4"/></svg>