<svg xmlns="http://www.w3.org/2000/svg" width="40.133" height="40.133" viewBox="344.533 2404.483 40.133 40.133"><g data-name="Group 239"><path d="M346.7 2425.578a18.978 18.978 0 1 1 0 .1z" fill="#fff" fill-rule="evenodd" data-name="Ellipse 25"/><path d="M0 18.878a18.978 18.978 0 1 1 0 .1z" stroke-linejoin="round" stroke-linecap="round" stroke-width="3" stroke="#341c77" fill="transparent" transform="translate(346.5 2406.496) scale(.92096)" data-name="Ellipse 24"/><g data-name="tick"><g data-name="Group 238"><path d="M373.27 2417.902a.92.92 0 0 0-1.302 0l-11.031 11.03-4.24-4.24a.92.92 0 0 0-1.303 1.303l4.892 4.891c.36.36.943.36 1.302 0l11.682-11.682a.92.92 0 0 0 0-1.302Z" fill="#341c77" fill-rule="evenodd" data-name="Path 454"/></g></g></g></svg>