<svg height="512" viewBox="0 0 512 512" width="512" xmlns="http://www.w3.org/2000/svg" xmlns:xlink="http://www.w3.org/1999/xlink"><linearGradient id="linear-gradient" gradientUnits="userSpaceOnUse" x1="149.924" x2="149.924" y1="38.21" y2="192.607"><stop offset="0" stop-color="#fef0ae"/><stop offset="1" stop-color="#fed402"/></linearGradient><linearGradient id="linear-gradient-2" x1="74.852" x2="74.852" xlink:href="#linear-gradient" y1="154.253" y2="259.862"/><linearGradient id="linear-gradient-3" x1="419.917" x2="419.917" xlink:href="#linear-gradient" y1="385.603" y2="491.212"/><linearGradient id="linear-gradient-4" gradientTransform="matrix(.707 .707 -.707 .707 188.55 -124.413)" gradientUnits="userSpaceOnUse" x1="226.908" x2="277.222" y1="147.847" y2="198.161"><stop offset="0" stop-color="#aeffd1"/><stop offset="1" stop-color="#22b27f"/></linearGradient><linearGradient id="linear-gradient-5" gradientUnits="userSpaceOnUse" x1="241.352" x2="205.956" y1="181.831" y2="203.881"><stop offset="0" stop-color="#22b27f" stop-opacity="0"/><stop offset="1" stop-color="#017b4e"/></linearGradient><linearGradient id="linear-gradient-6" gradientTransform="translate(57.304 100.021)" gradientUnits="userSpaceOnUse" x1="175.157" x2="175.157" y1="151.495" y2="195.165"><stop offset="0" stop-color="#feaee1"/><stop offset="1" stop-color="#fe5694"/></linearGradient><linearGradient id="linear-gradient-7" gradientUnits="userSpaceOnUse" x1="265.251" x2="222.307" y1="233.394" y2="276.337"><stop offset="0" stop-color="#fe0364" stop-opacity="0"/><stop offset="1" stop-color="#e30256"/></linearGradient><linearGradient id="linear-gradient-8" gradientTransform="translate(-12.327 -68.085)" x1="412.895" x2="412.895" xlink:href="#linear-gradient-6" y1="151.495" y2="195.165"/><linearGradient id="linear-gradient-9" gradientUnits="userSpaceOnUse" x1="294.403" x2="294.403" y1="278.371" y2="322.041"><stop offset="0" stop-color="#e5caf3"/><stop offset="1" stop-color="#bd80e1"/></linearGradient><linearGradient id="linear-gradient-10" gradientUnits="userSpaceOnUse" x1="299.95" x2="288.925" y1="238.689" y2="293.234"><stop offset="0" stop-color="#5b3374" stop-opacity="0"/><stop offset=".173" stop-color="#5b3374" stop-opacity=".039"/><stop offset=".363" stop-color="#5b3374" stop-opacity=".152"/><stop offset=".56" stop-color="#5b3374" stop-opacity=".341"/><stop offset=".763" stop-color="#5b3374" stop-opacity=".605"/><stop offset=".968" stop-color="#5b3374" stop-opacity=".942"/><stop offset="1" stop-color="#5b3374"/></linearGradient><linearGradient id="linear-gradient-11" gradientUnits="userSpaceOnUse" x1="359.459" x2="359.459" y1="302.113" y2="345.782"><stop offset="0" stop-color="#b3dafe"/><stop offset="1" stop-color="#7bacdf"/></linearGradient><linearGradient id="linear-gradient-12" gradientUnits="userSpaceOnUse" x1="373.359" x2="297.344" y1="352.682" y2="351.521"><stop offset="0" stop-color="#7bacdf" stop-opacity="0"/><stop offset="1" stop-color="#0681af"/></linearGradient><linearGradient id="linear-gradient-13" x1="106.699" x2="279.81" xlink:href="#linear-gradient" y1="292.815" y2="465.926"/><linearGradient id="linear-gradient-14" x1="249.191" x2="114.069" xlink:href="#linear-gradient" y1="430.012" y2="294.891"/><linearGradient id="linear-gradient-15" gradientUnits="userSpaceOnUse" x1="182.566" x2="182.566" y1="399.152" y2="505.193"><stop offset="0" stop-color="#fef0ae" stop-opacity="0"/><stop offset="1" stop-color="#fe9738"/></linearGradient><g id="_4_Star" data-name="4 Star"><path d="m146.23 154.669a140.777 140.777 0 0 0 -67.46-64.469 4.145 4.145 0 0 1 0-7.542 140.782 140.782 0 0 0 67.46-64.472 4.141 4.141 0 0 1 7.389 0 140.782 140.782 0 0 0 67.46 64.472 4.145 4.145 0 0 1 0 7.542 140.777 140.777 0 0 0 -67.46 64.472 4.141 4.141 0 0 1 -7.389-.003z" fill="url(#linear-gradient)"/><path d="m72.325 233.912a96.293 96.293 0 0 0 -46.143-44.1 2.835 2.835 0 0 1 0-5.159 96.291 96.291 0 0 0 46.143-44.1 2.832 2.832 0 0 1 5.054 0 96.3 96.3 0 0 0 46.144 44.1 2.836 2.836 0 0 1 0 5.159 96.3 96.3 0 0 0 -46.144 44.1 2.832 2.832 0 0 1 -5.054 0z" fill="url(#linear-gradient-2)"/><path d="m417.39 465.262a96.3 96.3 0 0 0 -46.144-44.1 2.835 2.835 0 0 1 0-5.159 96.3 96.3 0 0 0 46.144-44.1 2.832 2.832 0 0 1 5.054 0 96.291 96.291 0 0 0 46.143 44.097 2.835 2.835 0 0 1 0 5.159 96.293 96.293 0 0 0 -46.143 44.1 2.832 2.832 0 0 1 -5.054.003z" fill="url(#linear-gradient-3)"/><rect fill="url(#linear-gradient-4)" height="62.789" rx="31.394" transform="matrix(.707 -.707 .707 .707 -45.352 221.298)" width="438.966" x="24.972" y="133.999"/><path d="m174.826 279.42 106.717-106.717-44.398-44.398-62.319 62.319z" fill="url(#linear-gradient-5)"/><rect fill="url(#linear-gradient-6)" height="62.789" rx="31.394" transform="matrix(.707 -.707 .707 .707 -120.133 242.338)" width="279.468" x="92.728" y="234.788"/><path d="m174.826 279.42v88.38a31.692 31.692 0 0 0 3.227-2.808l147.888-147.892-44.4-44.4z" fill="url(#linear-gradient-7)"/><rect fill="url(#linear-gradient-8)" height="62.789" rx="31.394" transform="matrix(.707 -.707 .707 .707 47.973 311.97)" width="63.632" x="368.752" y="66.683"/><rect fill="url(#linear-gradient-9)" height="62.789" rx="31.394" transform="matrix(.707 -.707 .707 .707 -120.981 294.003)" width="329.086" x="129.86" y="261.644"/><path d="m355.81 187.233-177.757 177.757a31.639 31.639 0 0 0 -3.227 3.783v36.827a31.727 31.727 0 0 0 3.227 3.784 31.394 31.394 0 0 0 44.4 0l177.755-177.753z" fill="url(#linear-gradient-10)"/><rect fill="url(#linear-gradient-11)" height="62.789" rx="31.394" transform="matrix(.707 -.707 .707 .707 -118.714 346.958)" width="387.514" x="165.701" y="285.385"/><path d="m391.154 240.685-168.7 168.7a31.394 31.394 0 0 0 0 44.4 31.394 31.394 0 0 0 44.4 0l168.7-168.7z" fill="url(#linear-gradient-12)"/><path d="m202.922 186.225 36.871 74.71a22.7 22.7 0 0 0 17.092 12.418l82.447 11.98c18.619 2.706 26.054 25.587 12.581 38.719l-59.66 58.154a22.7 22.7 0 0 0 -6.528 20.092l14.084 82.114c3.18 18.544-16.283 32.685-32.937 23.93l-73.743-38.769a22.7 22.7 0 0 0 -21.126 0l-73.743 38.769c-16.654 8.755-36.117-5.386-32.937-23.93l14.084-82.112a22.7 22.7 0 0 0 -6.528-20.092l-59.66-58.154c-13.473-13.134-6.038-36.015 12.581-38.721l82.447-11.98a22.7 22.7 0 0 0 17.092-12.418l36.871-74.71c8.327-16.871 32.39-16.871 40.712 0z" fill="url(#linear-gradient-13)"/><path d="m212.031 433.62a63.322 63.322 0 0 0 -58.928 0l-12.2 6.413a16.4 16.4 0 0 1 -23.793-17.287l2.329-13.58a63.308 63.308 0 0 0 -18.211-56.047l-9.864-9.619a16.4 16.4 0 0 1 9.088-27.97l13.637-1.982a63.305 63.305 0 0 0 47.673-34.635l6.1-12.357a16.4 16.4 0 0 1 29.41 0l6.1 12.355a63.313 63.313 0 0 0 47.678 34.638l13.634 1.981a16.4 16.4 0 0 1 9.088 27.97l-9.867 9.618a63.308 63.308 0 0 0 -18.211 56.043l2.329 13.582a16.4 16.4 0 0 1 -23.793 17.287z" fill="url(#linear-gradient-14)"/><path d="m316.539 358.533h-267.946l24.286 23.673a22.7 22.7 0 0 1 6.528 20.094l-14.084 82.112c-3.18 18.544 16.283 32.685 32.937 23.93l73.74-38.769a22.7 22.7 0 0 1 21.126 0l73.743 38.769c16.654 8.755 36.117-5.386 32.937-23.93l-14.081-82.112a22.7 22.7 0 0 1 6.528-20.092z" fill="url(#linear-gradient-15)"/></g></svg>